{
.appVersion = "895";
DisplayStrings = (
H
);
copyright = "Copyright (c) 2010, The Josefin Sans Project Authors (hi@typemade.mx), with Reserved Font Name Josefin";
customParameters = (
{
name = licenseURL;
value = "http://scripts.sil.org/OFL";
},
{
name = trademark;
value = "Josefin Sans is a trademark of Typemade.";
},
{
name = license;
value = "This Font Software is licensed under the SIL Open Font License, Version 1.1. This license is available with a FAQ at: http://scripts.sil.org/OFL";
},
{
name = fsType;
value = "0";
},
{
name = "Use Typo Metrics";
value = 1;
}
);
date = "2016-08-26 16:01:20 +0000";
designer = "Santiago Orozco";
designerURL = "http://www.typemade.mx";
familyName = "Josefin Sans";
fontMaster = (
{
alignmentZones = (
"{700, 32}",
"{375, 5}",
"{0, -7}",
"{-250, 0}"
);
ascender = 750;
capHeight = 700;
customParameters = (
{
name = typoDescender;
value = -250;
},
{
name = typoLineGap;
value = 0;
},
{
name = hheaLineGap;
value = 9;
},
{
name = hheaAscender;
value = 750;
},
{
name = typoAscender;
value = 750;
},
{
name = hheaDescender;
value = -250;
},
{
name = winDescent;
value = 0;
},
{
name = winAscent;
value = 0;
}
);
descender = -250;
horizontalStems = (
126,
24,
217
);
id = UUID0;
verticalStems = (
220,
126,
177
);
weight = Light;
weightValue = 14;
xHeight = 375;
},
{
alignmentZones = (
"{700, 32}",
"{375, 9}",
"{0, -9}",
"{-250, 0}"
);
ascender = 750;
capHeight = 700;
customParameters = (
{
name = typoDescender;
value = -250;
},
{
name = typoLineGap;
value = 0;
},
{
name = hheaLineGap;
value = 9;
},
{
name = hheaAscender;
value = 750;
},
{
name = typoAscender;
value = 750;
},
{
name = hheaDescender;
value = -250;
},
{
name = winDescent;
value = 0;
},
{
name = winAscent;
value = 0;
}
);
descender = -250;
horizontalStems = (
65,
81,
253
);
id = UUID1;
verticalStems = (
256,
65,
246
);
weight = Bold;
weightValue = 150;
xHeight = 500;
}
);
glyphs = (
{
glyphname = A;
lastChange = "2016-08-26 16:01:03 +0000";
layers = (
{
hints = (
{
horizontal = 1;
place = "{0, 21}";
target = up;
type = BottomGhost;
},
{
horizontal = 1;
place = "{732, -20}";
target = down;
type = TopGhost;
}
);
layerId = UUID0;
paths = (
{
closed = 1;
nodes = (
"176 318 LINE",
"485 318 LINE",
"485 332 LINE",
"176 332 LINE"
);
},
{
closed = 1;
nodes = (
"620 0 LINE",
"517 244 OFFCURVE",
"433 488 OFFCURVE",
"330 732 CURVE",
"227 488 OFFCURVE",
"143 244 OFFCURVE",
"40 0 CURVE",
"55 0 LINE",
"150 225 OFFCURVE",
"226 450 OFFCURVE",
"321 675 CURVE",
"324 683 OFFCURVE",
"327 692 OFFCURVE",
"330 700 CURVE",
"333 692 OFFCURVE",
"336 683 OFFCURVE",
"339 675 CURVE",
"434 450 OFFCURVE",
"510 225 OFFCURVE",
"605 0 CURVE"
);
}
);
width = 660;
},
{
hints = (
{
horizontal = 1;
place = "{0, 21}";
target = up;
type = BottomGhost;
},
{
horizontal = 1;
place = "{732, -20}";
target = down;
type = TopGhost;
}
);
layerId = UUID1;
paths = (
{
closed = 1;
nodes = (
"234 161 LINE",
"511 161 LINE",
"460 286 LINE",
"279 286 LINE"
);
},
{
closed = 1;
nodes = (
"704 0 LINE",
"704 0 OFFCURVE",
"368 770 OFFCURVE",
"368 770 CURVE",
"368 770 OFFCURVE",
"32 0 OFFCURVE",
"32 0 CURVE",
"180 0 LINE",
"180 0 OFFCURVE",
"357 417 OFFCURVE",
"357 417 CURVE",
"357 417 OFFCURVE",
"365 443 OFFCURVE",
"368 458 CURVE",
"371 443 OFFCURVE",
"379 417 OFFCURVE",
"379 417 CURVE",
"379 417 OFFCURVE",
"556 0 OFFCURVE",
"556 0 CURVE"
);
}
);
width = 736;
}
);
unicode = 0041;
},
{
glyphname = Aring;
lastChange = "2016-08-26 16:01:03 +0000";
layers = (
{
components = (
{
name = A;
}
);
hints = (
{
place = "{308, 126}";
},
{
horizontal = 1;
place = "{775, 126}";
}
);
layerId = UUID0;
paths = (
{
closed = 1;
nodes = (
"282 834 LINE SMOOTH",
"282 860 OFFCURVE",
"305 883 OFFCURVE",
"331 883 CURVE SMOOTH",
"357 883 OFFCURVE",
"380 860 OFFCURVE",
"380 834 CURVE SMOOTH",
"380 808 OFFCURVE",
"357 785 OFFCURVE",
"331 785 CURVE SMOOTH",
"305 785 OFFCURVE",
"282 808 OFFCURVE",
"282 834 CURVE SMOOTH"
);
},
{
closed = 1;
nodes = (
"268 834 LINE SMOOTH",
"268 798 OFFCURVE",
"295 771 OFFCURVE",
"331 771 CURVE SMOOTH",
"367 771 OFFCURVE",
"394 798 OFFCURVE",
"394 834 CURVE SMOOTH",
"394 870 OFFCURVE",
"367 897 OFFCURVE",
"331 897 CURVE SMOOTH",
"295 897 OFFCURVE",
"268 870 OFFCURVE",
"268 834 CURVE SMOOTH"
);
}
);
width = 700;
},
{
components = (
{
name = A;
}
);
hints = (
{
place = "{339, 65}";
},
{
horizontal = 1;
place = "{805, 65}";
}
);
layerId = UUID1;
paths = (
{
closed = 1;
nodes = (
"340 854 LINE SMOOTH",
"340 872 OFFCURVE",
"352 884 OFFCURVE",
"369 884 CURVE SMOOTH",
"386 884 OFFCURVE",
"398 872 OFFCURVE",
"398 854 CURVE SMOOTH",
"398 838 OFFCURVE",
"386 826 OFFCURVE",
"369 826 CURVE SMOOTH",
"352 826 OFFCURVE",
"340 838 OFFCURVE",
"340 854 CURVE SMOOTH"
);
},
{
closed = 1;
nodes = (
"274 856 LINE SMOOTH",
"274 805 OFFCURVE",
"318 761 OFFCURVE",
"369 761 CURVE SMOOTH",
"419 761 OFFCURVE",
"463 805 OFFCURVE",
"463 856 CURVE SMOOTH",
"463 906 OFFCURVE",
"419 950 OFFCURVE",
"369 950 CURVE SMOOTH",
"318 950 OFFCURVE",
"274 906 OFFCURVE",
"274 856 CURVE SMOOTH"
);
}
);
width = 765;
}
);
unicode = 00C5;
},
{
glyphname = AE;
lastChange = "2016-08-26 16:01:03 +0000";
layers = (
{
hints = (
{
horizontal = 1;
place = "{0, 21}";
target = up;
type = BottomGhost;
},
{
horizontal = 1;
place = "{700, -20}";
target = down;
type = TopGhost;
}
);
layerId = UUID0;
paths = (
{
closed = 1;
nodes = (
"176 318 LINE",
"325 318 LINE",
"325 332 LINE",
"176 332 LINE"
);
},
{
closed = 1;
nodes = (
"317 700 LINE",
"214 456 OFFCURVE",
"143 244 OFFCURVE",
"40 0 CURVE",
"55 0 LINE",
"150 225 OFFCURVE",
"226 450 OFFCURVE",
"321 675 CURVE SMOOTH",
"324 683 OFFCURVE",
"327 692 OFFCURVE",
"330 700 CURVE"
);
},
{
closed = 1;
nodes = (
"586 0 LINE",
"586 14 LINE",
"331 14 LINE",
"331 346 LINE",
"533 346 LINE",
"533 360 LINE",
"331 360 LINE",
"331 686 LINE",
"572 686 LINE",
"572 700 LINE",
"317 700 LINE",
"317 0 LINE"
);
}
);
width = 655;
},
{
hints = (
{
horizontal = 1;
place = "{0, 21}";
target = up;
type = BottomGhost;
},
{
horizontal = 1;
place = "{700, -20}";
target = down;
type = TopGhost;
}
);
layerId = UUID1;
paths = (
{
closed = 1;
nodes = (
"234 161 LINE",
"370 161 LINE",
"370 276 LINE",
"279 276 LINE"
);
},
{
closed = 1;
nodes = (
"353 736 LINE",
"353 736 OFFCURVE",
"32 0 OFFCURVE",
"32 0 CURVE",
"180 0 LINE",
"180 0 OFFCURVE",
"357 417 OFFCURVE",
"357 417 CURVE SMOOTH",
"357 417 OFFCURVE",
"365 443 OFFCURVE",
"368 458 CURVE"
);
},
{
closed = 1;
nodes = (
"779 0 LINE",
"779 139 LINE",
"493 139 LINE",
"493 299 LINE",
"724 299 LINE",
"724 437 LINE",
"493 437 LINE",
"493 601 LINE",
"765 601 LINE",
"765 736 LINE",
"353 736 LINE",
"353 0 LINE"
);
}
);
width = 860;
}
);
unicode = 00C6;
},
{
glyphname = B;
lastChange = "2016-08-26 16:01:03 +0000";
layers = (
{
hints = (
{
place = "{418, 41}";
},
{
horizontal = 1;
place = "{0, 21}";
target = up;
type = BottomGhost;
},
{
horizontal = 1;
place = "{700, -20}";
target = down;
type = TopGhost;
}
);
layerId = UUID0;
paths = (
{
closed = 1;
nodes = (
"100 686 LINE",
"100 358 LINE",
"247 358 LINE SMOOTH",
"353 358 OFFCURVE",
"410 427 OFFCURVE",
"410 528 CURVE SMOOTH",
"410 641 OFFCURVE",
"337 686 OFFCURVE",
"233 686 CURVE SMOOTH"
);
},
{
closed = 1;
nodes = (
"100 344 LINE",
"100 14 LINE",
"248 14 LINE SMOOTH",
"356 14 OFFCURVE",
"447 68 OFFCURVE",
"447 176 CURVE SMOOTH",
"447 293 OFFCURVE",
"341 344 OFFCURVE",
"229 344 CURVE SMOOTH"
);
},
{
closed = 1;
nodes = (
"86 0 LINE",
"86 700 LINE",
"221 700 LINE SMOOTH",
"342 700 OFFCURVE",
"424 650 OFFCURVE",
"424 522 CURVE SMOOTH",
"424 444 OFFCURVE",
"393 375 OFFCURVE",
"307 352 CURVE",
"388 335 OFFCURVE",
"461 278 OFFCURVE",
"461 179 CURVE SMOOTH",
"461 62 OFFCURVE",
"359 0 OFFCURVE",
"249 0 CURVE SMOOTH"
);
}
);
width = 534;
},
{
hints = (
{
place = "{377, 108}";
},
{
horizontal = 1;
place = "{0, 21}";
target = up;
type = BottomGhost;
},
{
horizontal = 1;
place = "{700, -20}";
target = down;
type = TopGhost;
}
);
layerId = UUID1;
paths = (
{
closed = 1;
nodes = (
"238 601 LINE",
"238 435 LINE",
"316 435 LINE SMOOTH",
"373 435 OFFCURVE",
"400 476 OFFCURVE",
"400 520 CURVE SMOOTH",
"400 574 OFFCURVE",
"363 601 OFFCURVE",
"306 601 CURVE SMOOTH"
);
},
{
closed = 1;
nodes = (
"238 309 LINE",
"238 135 LINE",
"321 135 LINE SMOOTH",
"385 135 OFFCURVE",
"435 164 OFFCURVE",
"435 224 CURVE SMOOTH",
"435 291 OFFCURVE",
"373 309 OFFCURVE",
"311 309 CURVE SMOOTH"
);
},
{
closed = 1;
nodes = (
"88 0 LINE",
"88 736 LINE",
"304 736 LINE SMOOTH",
"454 736 OFFCURVE",
"549 683 OFFCURVE",
"549 543 CURVE SMOOTH",
"549 470 OFFCURVE",
"523 398 OFFCURVE",
"446 374 CURVE",
"510 362 OFFCURVE",
"583 316 OFFCURVE",
"583 203 CURVE SMOOTH",
"583 57 OFFCURVE",
"461 0 OFFCURVE",
"333 0 CURVE SMOOTH"
);
}
);
width = 622;
}
);
unicode = 0042;
},
{
glyphname = C;
lastChange = "2016-08-26 16:01:03 +0000";
layers = (
{
hints = (
{
horizontal = 1;
place = "{708, -20}";
target = down;
type = TopGhost;
},
{
horizontal = 1;
place = "{-8, 21}";
target = up;
type = BottomGhost;
}
);
layerId = UUID0;
paths = (
{
closed = 1;
nodes = (
"609 42 LINE",
"556 11 OFFCURVE",
"496 -8 OFFCURVE",
"424 -8 CURVE SMOOTH",
"212 -8 OFFCURVE",
"70 154 OFFCURVE",
"70 346 CURVE SMOOTH",
"70 549 OFFCURVE",
"230 708 OFFCURVE",
"427 708 CURVE SMOOTH",
"494 708 OFFCURVE",
"556 690 OFFCURVE",
"610 658 CURVE",
"607 654 OFFCURVE",
"605 650 OFFCURVE",
"602 646 CURVE",
"551 677 OFFCURVE",
"490 694 OFFCURVE",
"427 694 CURVE SMOOTH",
"238 694 OFFCURVE",
"84 540 OFFCURVE",
"84 345 CURVE SMOOTH",
"84 163 OFFCURVE",
"217 6 OFFCURVE",
"420 6 CURVE SMOOTH",
"489 6 OFFCURVE",
"548 24 OFFCURVE",
"600 54 CURVE"
);
}
);
width = 653;
},
{
hints = (
{
horizontal = 1;
place = "{708, -20}";
target = down;
type = TopGhost;
},
{
horizontal = 1;
place = "{-8, 21}";
target = up;
type = BottomGhost;
}
);
layerId = UUID1;
paths = (
{
closed = 1;
nodes = (
"641 57 LINE",
"616 37 OFFCURVE",
"523 -8 OFFCURVE",
"400 -8 CURVE SMOOTH",
"167 -8 OFFCURVE",
"31 163 OFFCURVE",
"31 362 CURVE SMOOTH",
"31 586 OFFCURVE",
"205 744 OFFCURVE",
"414 744 CURVE SMOOTH",
"497 744 OFFCURVE",
"595 718 OFFCURVE",
"613 693 CURVE",
"585 647 OFFCURVE",
"584 644 OFFCURVE",
"546 576 CURVE",
"519 596 OFFCURVE",
"455 603 OFFCURVE",
"420 603 CURVE SMOOTH",
"281 603 OFFCURVE",
"181 491 OFFCURVE",
"181 375 CURVE SMOOTH",
"181 260 OFFCURVE",
"278 145 OFFCURVE",
"413 145 CURVE SMOOTH",
"502 145 OFFCURVE",
"588 190 OFFCURVE",
"578 193 CURVE"
);
}
);
width = 692;
}
);
unicode = 0043;
},
{
glyphname = Ccedilla;
lastChange = "2016-08-26 16:01:03 +0000";
layers = (
{
hints = (
{
horizontal = 1;
place = "{-223, 229}";
},
{
horizontal = 1;
place = "{708, -20}";
target = down;
type = TopGhost;
}
);
layerId = UUID0;
paths = (
{
closed = 1;
nodes = (
"609 42 LINE",
"556 11 OFFCURVE",
"496 -8 OFFCURVE",
"424 -8 CURVE SMOOTH",
"212 -8 OFFCURVE",
"70 154 OFFCURVE",
"70 346 CURVE SMOOTH",
"70 549 OFFCURVE",
"230 708 OFFCURVE",
"427 708 CURVE SMOOTH",
"494 708 OFFCURVE",
"556 690 OFFCURVE",
"610 658 CURVE",
"607 654 OFFCURVE",
"605 650 OFFCURVE",
"602 646 CURVE",
"551 677 OFFCURVE",
"490 694 OFFCURVE",
"427 694 CURVE SMOOTH",
"238 694 OFFCURVE",
"84 540 OFFCURVE",
"84 345 CURVE SMOOTH",
"84 163 OFFCURVE",
"217 6 OFFCURVE",
"420 6 CURVE SMOOTH",
"489 6 OFFCURVE",
"548 24 OFFCURVE",
"600 54 CURVE"
);
},
{
closed = 1;
nodes = (
"413 0 LINE",
"427 0 LINE",
"427 -6 LINE SMOOTH",
"427 -41 OFFCURVE",
"451 -50 OFFCURVE",
"468 -61 CURVE SMOOTH",
"498 -81 OFFCURVE",
"510 -109 OFFCURVE",
"510 -127 CURVE SMOOTH",
"510 -195 OFFCURVE",
"470 -223 OFFCURVE",
"426 -223 CURVE SMOOTH",
"391 -223 OFFCURVE",
"358 -204 OFFCURVE",
"345 -165 CURVE",
"350 -164 OFFCURVE",
"355 -162 OFFCURVE",
"360 -161 CURVE",
"368 -189 OFFCURVE",
"393 -209 OFFCURVE",
"426 -209 CURVE SMOOTH",
"467 -209 OFFCURVE",
"496 -178 OFFCURVE",
"496 -137 CURVE SMOOTH",
"496 -63 OFFCURVE",
"413 -69 OFFCURVE",
"413 -16 CURVE SMOOTH"
);
}
);
width = 635;
},
{
hints = (
{
horizontal = 1;
place = "{-250, 321}";
},
{
horizontal = 1;
place = "{708, -20}";
target = down;
type = TopGhost;
}
);
layerId = UUID1;
paths = (
{
closed = 1;
nodes = (
"641 57 LINE",
"616 37 OFFCURVE",
"523 -8 OFFCURVE",
"400 -8 CURVE SMOOTH",
"167 -8 OFFCURVE",
"31 163 OFFCURVE",
"31 362 CURVE SMOOTH",
"31 586 OFFCURVE",
"205 744 OFFCURVE",
"414 744 CURVE SMOOTH",
"497 744 OFFCURVE",
"595 718 OFFCURVE",
"613 693 CURVE",
"585 647 OFFCURVE",
"584 644 OFFCURVE",
"546 576 CURVE",
"519 596 OFFCURVE",
"455 603 OFFCURVE",
"420 603 CURVE SMOOTH",
"281 603 OFFCURVE",
"181 491 OFFCURVE",
"181 375 CURVE SMOOTH",
"181 260 OFFCURVE",
"278 145 OFFCURVE",
"413 145 CURVE SMOOTH",
"502 145 OFFCURVE",
"588 190 OFFCURVE",
"578 193 CURVE"
);
},
{
closed = 1;
nodes = (
"352 0 LINE",
"426 0 LINE",
"426 -8 LINE SMOOTH",
"426 -48 OFFCURVE",
"452 -48 OFFCURVE",
"469 -62 CURVE SMOOTH",
"496 -84 OFFCURVE",
"506 -111 OFFCURVE",
"506 -154 CURVE SMOOTH",
"506 -204 OFFCURVE",
"471 -271 OFFCURVE",
"386 -271 CURVE SMOOTH",
"335 -271 OFFCURVE",
"287 -243 OFFCURVE",
"267 -184 CURVE",
"288 -172 OFFCURVE",
"311 -160 OFFCURVE",
"332 -148 CURVE",
"338 -166 OFFCURVE",
"353 -180 OFFCURVE",
"375 -180 CURVE SMOOTH",
"403 -180 OFFCURVE",
"415 -159 OFFCURVE",
"415 -132 CURVE SMOOTH",
"415 -88 OFFCURVE",
"352 -98 OFFCURVE",
"352 -25 CURVE SMOOTH"
);
}
);
width = 693;
}
);
unicode = 00C7;
},
{
glyphname = D;
lastChange = "2016-08-26 16:01:03 +0000";
layers = (
{
hints = (
{
horizontal = 1;
place = "{0, 21}";
target = up;
type = BottomGhost;
},
{
horizontal = 1;
place = "{700, -20}";
target = down;
type = TopGhost;
}
);
layerId = UUID0;
paths = (
{
closed = 1;
nodes = (
"69 0 LINE",
"246 0 LINE SMOOTH",
"437 0 OFFCURVE",
"598 136 OFFCURVE",
"598 350 CURVE SMOOTH",
"598 508 OFFCURVE",
"494 700 OFFCURVE",
"212 700 CURVE SMOOTH",
"69 700 LINE"
);
},
{
closed = 1;
nodes = (
"83 14 LINE",
"83 238 OFFCURVE",
"83 461 OFFCURVE",
"83 685 CURVE",
"221 685 LINE SMOOTH",
"486 685 OFFCURVE",
"585 501 OFFCURVE",
"585 350 CURVE SMOOTH",
"585 144 OFFCURVE",
"432 14 OFFCURVE",
"252 14 CURVE"
);
}
);
width = 653;
},
{
hints = (
{
horizontal = 1;
place = "{79, 21}";
target = up;
type = BottomGhost;
},
{
horizontal = 1;
place = "{622, -20}";
target = down;
type = TopGhost;
}
);
layerId = UUID1;
paths = (
{
closed = 1;
nodes = (
"87 0 LINE",
"323 0 LINE SMOOTH",
"523 0 OFFCURVE",
"693 136 OFFCURVE",
"693 355 CURVE SMOOTH",
"693 540 OFFCURVE",
"584 736 OFFCURVE",
"287 736 CURVE SMOOTH",
"87 736 LINE"
);
},
{
closed = 1;
nodes = (
"237 142 LINE",
"237 291 OFFCURVE",
"237 444 OFFCURVE",
"237 592 CURVE",
"325 592 LINE SMOOTH",
"393 592 OFFCURVE",
"542 553 OFFCURVE",
"542 365 CURVE SMOOTH",
"542 218 OFFCURVE",
"442 142 OFFCURVE",
"298 142 CURVE"
);
}
);
width = 726;
}
);
unicode = 0044;
},
{
glyphname = Eth;
lastChange = "2016-08-26 16:01:03 +0000";
layers = (
{
hints = (
{
horizontal = 1;
place = "{0, 21}";
target = up;
type = BottomGhost;
},
{
horizontal = 1;
place = "{700, -20}";
target = down;
type = TopGhost;
}
);
layerId = UUID0;
paths = (
{
closed = 1;
nodes = (
"11 346 LINE",
"292 346 LINE",
"292 360 LINE",
"11 360 LINE"
);
},
{
closed = 1;
nodes = (
"69 0 LINE",
"246 0 LINE SMOOTH",
"437 0 OFFCURVE",
"598 136 OFFCURVE",
"598 350 CURVE SMOOTH",
"598 508 OFFCURVE",
"494 700 OFFCURVE",
"212 700 CURVE SMOOTH",
"69 700 LINE"
);
},
{
closed = 1;
nodes = (
"83 14 LINE",
"83 238 OFFCURVE",
"83 461 OFFCURVE",
"83 685 CURVE",
"221 685 LINE SMOOTH",
"486 685 OFFCURVE",
"585 501 OFFCURVE",
"585 350 CURVE SMOOTH",
"585 144 OFFCURVE",
"432 14 OFFCURVE",
"252 14 CURVE SMOOTH"
);
}
);
width = 683;
},
{
hints = (
{
horizontal = 1;
place = "{0, 21}";
target = up;
type = BottomGhost;
},
{
horizontal = 1;
place = "{700, -20}";
target = down;
type = TopGhost;
}
);
layerId = UUID1;
paths = (
{
closed = 1;
nodes = (
"11 306 LINE",
"319 306 LINE",
"319 405 LINE",
"11 405 LINE"
);
},
{
closed = 1;
nodes = (
"87 0 LINE",
"323 0 LINE SMOOTH",
"523 0 OFFCURVE",
"693 136 OFFCURVE",
"693 355 CURVE SMOOTH",
"693 540 OFFCURVE",
"584 736 OFFCURVE",
"287 736 CURVE SMOOTH",
"87 736 LINE"
);
},
{
closed = 1;
nodes = (
"237 142 LINE",
"237 291 OFFCURVE",
"237 444 OFFCURVE",
"237 592 CURVE",
"325 592 LINE SMOOTH",
"393 592 OFFCURVE",
"542 553 OFFCURVE",
"542 365 CURVE SMOOTH",
"542 218 OFFCURVE",
"442 142 OFFCURVE",
"298 142 CURVE SMOOTH"
);
}
);
width = 651;
}
);
unicode = 00D0;
},
{
glyphname = Dcroat;
lastChange = "2016-08-26 16:01:03 +0000";
layers = (
{
components = (
{
name = D;
}
);
layerId = UUID0;
paths = (
{
closed = 1;
nodes = (
"11 386 LINE",
"292 386 LINE",
"292 400 LINE",
"11 400 LINE"
);
}
);
width = 653;
},
{
components = (
{
name = D;
}
);
layerId = UUID1;
paths = (
{
closed = 1;
nodes = (
"11 316 LINE",
"319 316 LINE",
"319 415 LINE",
"11 415 LINE"
);
}
);
width = 726;
}
);
unicode = 0110;
},
{
glyphname = E;
lastChange = "2016-08-26 16:01:03 +0000";
layers = (
{
hints = (
{
horizontal = 1;
place = "{0, 21}";
target = up;
type = BottomGhost;
},
{
horizontal = 1;
place = "{700, -20}";
target = down;
type = TopGhost;
}
);
layerId = UUID0;
paths = (
{
closed = 1;
nodes = (
"80 0 LINE",
"80 700 LINE",
"495 700 LINE",
"495 686 LINE",
"94 686 LINE",
"94 360 LINE",
"456 360 LINE",
"456 346 LINE",
"94 346 LINE",
"94 14 LINE",
"509 14 LINE",
"509 0 LINE"
);
}
);
width = 551;
},
{
hints = (
{
horizontal = 1;
place = "{0, 21}";
target = up;
type = BottomGhost;
},
{
horizontal = 1;
place = "{700, -20}";
target = down;
type = TopGhost;
}
);
layerId = UUID1;
paths = (
{
closed = 1;
nodes = (
"82 0 LINE",
"82 736 LINE",
"584 736 LINE",
"584 601 LINE",
"232 601 LINE",
"232 437 LINE",
"543 437 LINE",
"543 299 LINE",
"232 299 LINE",
"232 139 LINE",
"598 139 LINE",
"598 0 LINE"
);
}
);
width = 653;
}
);
unicode = 0045;
},
{
glyphname = F;
lastChange = "2016-08-26 16:01:03 +0000";
layers = (
{
hints = (
{
horizontal = 1;
place = "{0, 21}";
target = up;
type = BottomGhost;
},
{
horizontal = 1;
place = "{700, -20}";
target = down;
type = TopGhost;
}
);
layerId = UUID0;
paths = (
{
closed = 1;
nodes = (
"70 0 LINE",
"70 700 LINE",
"445 700 LINE",
"445 686 LINE",
"84 686 LINE",
"84 350 LINE",
"406 350 LINE",
"406 336 LINE",
"84 336 LINE",
"84 0 LINE"
);
}
);
width = 495;
},
{
hints = (
{
horizontal = 1;
place = "{0, 21}";
target = up;
type = BottomGhost;
},
{
horizontal = 1;
place = "{700, -20}";
target = down;
type = TopGhost;
}
);
layerId = UUID1;
paths = (
{
closed = 1;
nodes = (
"87 0 LINE",
"87 736 LINE",
"547 736 LINE",
"547 598 LINE",
"237 598 LINE",
"237 428 LINE",
"505 428 LINE",
"505 289 LINE",
"237 289 LINE",
"237 0 LINE"
);
}
);
width = 593;
}
);
unicode = 0046;
},
{
glyphname = G;
lastChange = "2016-08-26 16:01:03 +0000";
layers = (
{
hints = (
{
horizontal = 1;
place = "{708, -20}";
target = down;
type = TopGhost;
},
{
horizontal = 1;
place = "{-8, 21}";
target = up;
type = BottomGhost;
}
);
layerId = UUID0;
paths = (
{
closed = 1;
nodes = (
"609 300 LINE",
"609 42 LINE",
"556 11 OFFCURVE",
"494 -8 OFFCURVE",
"427 -8 CURVE SMOOTH",
"210 -8 OFFCURVE",
"70 152 OFFCURVE",
"70 349 CURVE SMOOTH",
"70 547 OFFCURVE",
"230 708 OFFCURVE",
"427 708 CURVE SMOOTH",
"494 708 OFFCURVE",
"556 690 OFFCURVE",
"610 658 CURVE",
"602 646 LINE",
"551 677 OFFCURVE",
"490 694 OFFCURVE",
"427 694 CURVE SMOOTH",
"238 694 OFFCURVE",
"84 538 OFFCURVE",
"84 348 CURVE SMOOTH",
"84 159 OFFCURVE",
"217 6 OFFCURVE",
"424 6 CURVE SMOOTH",
"486 6 OFFCURVE",
"544 22 OFFCURVE",
"595 51 CURVE",
"595 286 LINE",
"423 286 LINE",
"423 300 LINE"
);
}
);
width = 665;
},
{
hints = (
{
horizontal = 1;
place = "{708, -20}";
target = down;
type = TopGhost;
},
{
horizontal = 1;
place = "{-8, 21}";
target = up;
type = BottomGhost;
}
);
layerId = UUID1;
paths = (
{
closed = 1;
nodes = (
"660 367 LINE",
"660 44 LINE",
"604 11 OFFCURVE",
"513 -8 OFFCURVE",
"427 -8 CURVE SMOOTH",
"194 -8 OFFCURVE",
"47 141 OFFCURVE",
"47 347 CURVE SMOOTH",
"47 586 OFFCURVE",
"230 744 OFFCURVE",
"437 744 CURVE SMOOTH",
"507 744 OFFCURVE",
"600 725 OFFCURVE",
"656 691 CURVE",
"583 569 LINE",
"548 589 OFFCURVE",
"478 603 OFFCURVE",
"434 603 CURVE SMOOTH",
"313 603 OFFCURVE",
"197 498 OFFCURVE",
"197 360 CURVE SMOOTH",
"197 241 OFFCURVE",
"296 133 OFFCURVE",
"431 133 CURVE SMOOTH",
"448 133 OFFCURVE",
"490 134 OFFCURVE",
"522 142 CURVE",
"522 239 LINE",
"395 239 LINE",
"395 367 LINE"
);
}
);
width = 748;
}
);
unicode = 0047;
},
{
glyphname = H;
lastChange = "2016-08-26 16:01:03 +0000";
layers = (
{
hints = (
{
horizontal = 1;
place = "{0, 21}";
target = up;
type = BottomGhost;
},
{
horizontal = 1;
place = "{700, -20}";
target = down;
type = TopGhost;
}
);
layerId = UUID0;
paths = (
{
closed = 1;
nodes = (
"140 0 LINE",
"140 700 LINE",
"154 700 LINE",
"154 360 LINE",
"618 360 LINE",
"618 700 LINE",
"636 700 LINE",
"635 467 OFFCURVE",
"633 233 OFFCURVE",
"632 0 CURVE",
"618 0 LINE",
"618 346 LINE",
"154 346 LINE",
"154 0 LINE"
);
}
);
width = 774;
},
{
hints = (
{
horizontal = 1;
place = "{0, 21}";
target = up;
type = BottomGhost;
},
{
horizontal = 1;
place = "{700, -20}";
target = down;
type = TopGhost;
}
);
layerId = UUID1;
paths = (
{
closed = 1;
nodes = (
"143 0 LINE",
"143 736 LINE",
"293 736 LINE",
"293 441 LINE",
"612 441 LINE",
"612 736 LINE",
"762 736 LINE",
"762 736 OFFCURVE",
"762 0 OFFCURVE",
"762 0 CURVE",
"612 0 LINE",
"612 299 LINE",
"293 299 LINE",
"293 0 LINE"
);
}
);
width = 902;
}
);
unicode = 0048;
},
{
glyphname = Hbar;
lastChange = "2016-08-26 16:01:03 +0000";
layers = (
{
components = (
{
name = H;
}
);
hints = (
{
horizontal = 1;
place = "{492, 21}";
target = up;
type = BottomGhost;
},
{
horizontal = 1;
place = "{506, -20}";
target = down;
type = TopGhost;
}
);
layerId = UUID0;
paths = (
{
closed = 1;
nodes = (
"62 492 LINE",
"62 506 LINE",
"712 506 LINE",
"712 492 LINE"
);
}
);
width = 774;
},
{
components = (
{
name = H;
}
);
hints = (
{
horizontal = 1;
place = "{478, 21}";
target = up;
type = BottomGhost;
},
{
horizontal = 1;
place = "{531, -20}";
target = down;
type = TopGhost;
}
);
layerId = UUID1;
paths = (
{
closed = 1;
nodes = (
"63 529 LINE",
"63 606 LINE",
"838 606 LINE",
"838 529 LINE"
);
}
);
width = 902;
}
);
unicode = 0126;
},
{
glyphname = I;
lastChange = "2016-08-26 16:01:03 +0000";
layers = (
{
hints = (
{
horizontal = 1;
place = "{0, 21}";
target = up;
type = BottomGhost;
},
{
horizontal = 1;
place = "{700, -20}";
target = down;
type = TopGhost;
}
);
layerId = UUID0;
paths = (
{
closed = 1;
nodes = (
"140 700 LINE",
"154 700 LINE",
"154 0 LINE",
"140 0 LINE"
);
}
);
width = 294;
},
{
hints = (
{
horizontal = 1;
place = "{0, 21}";
target = up;
type = BottomGhost;
},
{
horizontal = 1;
place = "{700, -20}";
target = down;
type = TopGhost;
}
);
layerId = UUID1;
paths = (
{
closed = 1;
nodes = (
"93 736 LINE",
"243 736 LINE",
"243 0 LINE",
"93 0 LINE"
);
}
);
width = 330;
}
);
unicode = 0049;
},
{
glyphname = J;
lastChange = "2016-08-26 16:01:03 +0000";
layers = (
{
hints = (
{
horizontal = 1;
place = "{-142, 21}";
target = up;
type = BottomGhost;
},
{
horizontal = 1;
place = "{700, -20}";
target = down;
type = TopGhost;
}
);
layerId = UUID0;
paths = (
{
closed = 1;
nodes = (
"-10 -142 LINE",
"-10 -128 LINE",
"88 -123 OFFCURVE",
"161 -42 OFFCURVE",
"161 93 CURVE SMOOTH",
"161 700 LINE",
"175 700 LINE",
"175 90 LINE SMOOTH",
"175 -58 OFFCURVE",
"91 -138 OFFCURVE",
"-10 -142 CURVE"
);
}
);
width = 315;
},
{
hints = (
{
horizontal = 1;
place = "{-144, 21}";
target = up;
type = BottomGhost;
},
{
horizontal = 1;
place = "{700, -20}";
target = down;
type = TopGhost;
}
);
layerId = UUID1;
paths = (
{
closed = 1;
nodes = (
"42 -153 LINE",
"42 -12 LINE",
"133 -7 OFFCURVE",
"196 38 OFFCURVE",
"196 158 CURVE SMOOTH",
"196 736 LINE",
"347 736 LINE",
"347 155 LINE SMOOTH",
"347 -37 OFFCURVE",
"219 -148 OFFCURVE",
"42 -153 CURVE"
);
}
);
width = 428;
}
);
unicode = 004A;
},
{
glyphname = K;
lastChange = "2016-08-26 16:01:03 +0000";
layers = (
{
hints = (
{
horizontal = 1;
place = "{0, 21}";
target = up;
type = BottomGhost;
},
{
horizontal = 1;
place = "{701, -20}";
target = down;
type = TopGhost;
},
{
horizontal = 1;
place = "{700, -20}";
target = down;
type = TopGhost;
}
);
layerId = UUID0;
paths = (
{
closed = 1;
nodes = (
"530 0 LINE",
"421 138 OFFCURVE",
"313 276 OFFCURVE",
"204 414 CURVE",
"169 381 OFFCURVE",
"135 349 OFFCURVE",
"100 316 CURVE",
"100 211 OFFCURVE",
"101 105 OFFCURVE",
"101 0 CURVE",
"87 0 LINE",
"87 700 LINE",
"101 700 LINE",
"101 360 LINE SMOOTH",
"101 350 OFFCURVE",
"100 341 OFFCURVE",
"100 331 CURVE",
"106 338 OFFCURVE",
"111 344 OFFCURVE",
"117 351 CURVE",
"239 467 OFFCURVE",
"361 584 OFFCURVE",
"483 700 CURVE",
"491 700 OFFCURVE",
"497 700 OFFCURVE",
"505 700 CURVE",
"408 608 OFFCURVE",
"312 516 OFFCURVE",
"215 424 CURVE",
"327 283 OFFCURVE",
"438 141 OFFCURVE",
"550 0 CURVE"
);
}
);
width = 573;
},
{
hints = (
{
horizontal = 1;
place = "{0, 21}";
target = up;
type = BottomGhost;
},
{
horizontal = 1;
place = "{700, -20}";
target = down;
type = TopGhost;
},
{
horizontal = 1;
place = "{700, -20}";
target = down;
type = TopGhost;
}
);
layerId = UUID1;
paths = (
{
closed = 1;
nodes = (
"513 0 LINE",
"425 111 OFFCURVE",
"369 192 OFFCURVE",
"282 305 CURVE",
"273 294 OFFCURVE",
"265 286 OFFCURVE",
"255 278 CURVE",
"255 175 OFFCURVE",
"255 102 OFFCURVE",
"255 0 CURVE",
"89 0 LINE",
"89 736 LINE",
"255 736 LINE",
"255 494 LINE SMOOTH",
"255 482 OFFCURVE",
"252 470 OFFCURVE",
"251 457 CURVE",
"257 467 OFFCURVE",
"266 474 OFFCURVE",
"273 485 CURVE",
"355 563 OFFCURVE",
"426 657 OFFCURVE",
"508 736 CURVE",
"567 736 OFFCURVE",
"637 736 OFFCURVE",
"696 736 CURVE",
"597 628 OFFCURVE",
"496 514 OFFCURVE",
"397 406 CURVE",
"510 261 OFFCURVE",
"588 145 OFFCURVE",
"697 0 CURVE"
);
}
);
width = 714;
}
);
unicode = 004B;
},
{
glyphname = L;
lastChange = "2016-08-26 16:01:03 +0000";
layers = (
{
hints = (
{
horizontal = 1;
place = "{0, 21}";
target = up;
type = BottomGhost;
},
{
horizontal = 1;
place = "{700, -20}";
target = down;
type = TopGhost;
}
);
layerId = UUID0;
paths = (
{
closed = 1;
nodes = (
"90 0 LINE",
"90 700 LINE",
"104 700 LINE",
"104 14 LINE",
"509 14 LINE",
"509 0 LINE"
);
}
);
width = 550;
},
{
hints = (
{
horizontal = 1;
place = "{0, 21}";
target = up;
type = BottomGhost;
},
{
horizontal = 1;
place = "{700, -20}";
target = down;
type = TopGhost;
}
);
layerId = UUID1;
paths = (
{
closed = 1;
nodes = (
"92 0 LINE",
"92 736 LINE",
"242 736 LINE",
"242 142 LINE",
"583 142 LINE",
"583 0 LINE"
);
}
);
width = 640;
}
);
unicode = 004C;
},
{
glyphname = Lslash;
lastChange = "2016-08-26 16:01:03 +0000";
layers = (
{
components = (
{
name = L;
}
);
hints = (
{
horizontal = 1;
place = "{179, 21}";
target = up;
type = BottomGhost;
},
{
horizontal = 1;
place = "{193, -20}";
target = down;
type = TopGhost;
}
);
layerId = UUID0;
paths = (
{
closed = 1;
nodes = (
"23 279 LINE",
"23 293 LINE",
"337 408 LINE",
"337 394 LINE"
);
}
);
width = 550;
},
{
components = (
{
name = L;
}
);
hints = (
{
horizontal = 1;
place = "{327, 21}";
target = up;
type = BottomGhost;
},
{
horizontal = 1;
place = "{408, -20}";
target = down;
type = TopGhost;
}
);
layerId = UUID1;
paths = (
{
closed = 1;
nodes = (
"15 225 LINE",
"15 346 LINE",
"441 472 LINE",
"441 351 LINE"
);
}
);
width = 640;
}
);
unicode = 0141;
},
{
glyphname = M;
lastChange = "2016-08-26 16:01:03 +0000";
layers = (
{
hints = (
{
horizontal = 1;
place = "{0, 21}";
target = up;
type = BottomGhost;
},
{
horizontal = 1;
place = "{732, -20}";
target = down;
type = TopGhost;
}
);
layerId = UUID0;
paths = (
{
closed = 1;
nodes = (
"92 732 LINE",
"217 545 OFFCURVE",
"305 417 OFFCURVE",
"418 257 CURVE",
"476 343 OFFCURVE",
"609 547 OFFCURVE",
"744 732 CURVE",
"744 0 LINE",
"730 0 LINE",
"730 645 LINE SMOOTH",
"730 660 OFFCURVE",
"731 675 OFFCURVE",
"731 690 CURVE",
"616 528 OFFCURVE",
"514 371 OFFCURVE",
"418 228 CURVE",
"328 346 OFFCURVE",
"154 615 OFFCURVE",
"105 690 CURVE",
"105 675 OFFCURVE",
"106 660 OFFCURVE",
"106 645 CURVE SMOOTH",
"106 0 LINE",
"92 0 LINE"
);
}
);
width = 834;
},
{
hints = (
{
horizontal = 1;
place = "{0, 21}";
target = up;
type = BottomGhost;
},
{
horizontal = 1;
place = "{732, -20}";
target = down;
type = TopGhost;
}
);
layerId = UUID1;
paths = (
{
closed = 1;
nodes = (
"91 768 LINE",
"91 768 OFFCURVE",
"470 250 OFFCURVE",
"470 250 CURVE",
"470 250 OFFCURVE",
"849 768 OFFCURVE",
"849 768 CURVE",
"849 0 LINE",
"689 0 LINE",
"689 304 LINE SMOOTH",
"689 312 OFFCURVE",
"693 327 OFFCURVE",
"693 327 CURVE",
"693 327 OFFCURVE",
"470 9 OFFCURVE",
"470 9 CURVE",
"470 9 OFFCURVE",
"236 327 OFFCURVE",
"236 327 CURVE",
"236 327 OFFCURVE",
"241 312 OFFCURVE",
"241 304 CURVE SMOOTH",
"241 0 LINE",
"91 0 LINE"
);
}
);
width = 941;
}
);
unicode = 004D;
},
{
glyphname = N;
lastChange = "2016-08-26 16:01:03 +0000";
layers = (
{
hints = (
{
horizontal = 1;
place = "{732, -20}";
target = down;
type = TopGhost;
},
{
horizontal = 1;
place = "{-32, 21}";
target = up;
type = BottomGhost;
}
);
layerId = UUID0;
paths = (
{
closed = 1;
nodes = (
"682 700 LINE",
"682 -32 LINE",
"492 205 OFFCURVE",
"314 439 OFFCURVE",
"141 670 CURVE",
"135 679 OFFCURVE",
"128 687 OFFCURVE",
"122 696 CURVE",
"123 685 OFFCURVE",
"124 675 OFFCURVE",
"125 664 CURVE",
"125 0 LINE",
"111 0 LINE",
"111 732 LINE",
"303 489 OFFCURVE",
"469 262 OFFCURVE",
"652 28 CURVE",
"658 19 OFFCURVE",
"665 11 OFFCURVE",
"671 2 CURVE",
"670 13 OFFCURVE",
"669 23 OFFCURVE",
"668 34 CURVE",
"668 700 LINE"
);
}
);
width = 793;
},
{
hints = (
{
horizontal = 1;
place = "{732, -20}";
target = down;
type = TopGhost;
},
{
horizontal = 1;
place = "{-32, 21}";
target = up;
type = BottomGhost;
}
);
layerId = UUID1;
paths = (
{
closed = 1;
nodes = (
"776 736 LINE",
"776 -34 LINE",
"776 -34 OFFCURVE",
"280 404 OFFCURVE",
"280 404 CURVE",
"280 404 OFFCURVE",
"266 421 OFFCURVE",
"260 430 CURVE",
"261 419 OFFCURVE",
"262 409 OFFCURVE",
"263 398 CURVE",
"263 0 LINE",
"113 0 LINE",
"113 770 LINE",
"113 770 OFFCURVE",
"611 345 OFFCURVE",
"611 345 CURVE",
"611 345 OFFCURVE",
"624 326 OFFCURVE",
"630 317 CURVE",
"629 328 OFFCURVE",
"628 340 OFFCURVE",
"627 351 CURVE",
"627 736 LINE"
);
}
);
width = 892;
}
);
unicode = 004E;
},
{
glyphname = O;
lastChange = "2016-08-26 16:01:03 +0000";
layers = (
{
hints = (
{
horizontal = 1;
place = "{-8, 21}";
target = up;
type = BottomGhost;
},
{
horizontal = 1;
place = "{708, -20}";
target = down;
type = TopGhost;
}
);
layerId = UUID0;
paths = (
{
closed = 1;
nodes = (
"70 349 LINE",
"70 547 OFFCURVE",
"230 708 OFFCURVE",
"427 708 CURVE SMOOTH",
"625 708 OFFCURVE",
"786 547 OFFCURVE",
"786 349 CURVE SMOOTH",
"786 152 OFFCURVE",
"625 -8 OFFCURVE",
"427 -8 CURVE SMOOTH",
"230 -8 OFFCURVE",
"70 152 OFFCURVE",
"70 349 CURVE"
);
},
{
closed = 1;
nodes = (
"84 348 LINE",
"84 159 OFFCURVE",
"237 6 OFFCURVE",
"424 6 CURVE SMOOTH",
"614 6 OFFCURVE",
"772 160 OFFCURVE",
"772 349 CURVE SMOOTH",
"772 538 OFFCURVE",
"616 694 OFFCURVE",
"427 694 CURVE SMOOTH",
"238 694 OFFCURVE",
"84 538 OFFCURVE",
"84 348 CURVE"
);
}
);
width = 856;
},
{
hints = (
{
horizontal = 1;
place = "{71, 21}";
target = up;
type = BottomGhost;
},
{
horizontal = 1;
place = "{629, -20}";
target = down;
type = TopGhost;
}
);
layerId = UUID1;
paths = (
{
closed = 1;
nodes = (
"59 367 LINE",
"59 570 OFFCURVE",
"227 744 OFFCURVE",
"434 744 CURVE SMOOTH",
"639 744 OFFCURVE",
"811 570 OFFCURVE",
"811 367 CURVE SMOOTH",
"811 160 OFFCURVE",
"639 -8 OFFCURVE",
"434 -8 CURVE SMOOTH",
"227 -8 OFFCURVE",
"59 160 OFFCURVE",
"59 367 CURVE"
);
},
{
closed = 1;
nodes = (
"209 367 LINE",
"209 238 OFFCURVE",
"311 133 OFFCURVE",
"439 133 CURVE SMOOTH",
"563 133 OFFCURVE",
"662 237 OFFCURVE",
"662 367 CURVE SMOOTH",
"662 496 OFFCURVE",
"560 600 OFFCURVE",
"435 600 CURVE SMOOTH",
"309 600 OFFCURVE",
"209 496 OFFCURVE",
"209 367 CURVE"
);
}
);
width = 885;
}
);
unicode = 004F;
},
{
glyphname = Oslash;
lastChange = "2016-08-26 16:01:03 +0000";
layers = (
{
components = (
{
name = O;
}
);
hints = (
{
horizontal = 1;
place = "{-8, 21}";
target = up;
type = BottomGhost;
},
{
horizontal = 1;
place = "{708, -20}";
target = down;
type = TopGhost;
}
);
layerId = UUID0;
paths = (
{
closed = 1;
nodes = (
"112 8 LINE",
"252 176 OFFCURVE",
"564 547 OFFCURVE",
"704 716 CURVE",
"712 708 LINE",
"572 540 OFFCURVE",
"260 168 OFFCURVE",
"120 0 CURVE"
);
}
);
width = 836;
},
{
components = (
{
name = O;
}
);
hints = (
{
horizontal = 1;
place = "{-17, 21}";
target = up;
type = BottomGhost;
},
{
horizontal = 1;
place = "{719, -20}";
target = down;
type = TopGhost;
}
);
layerId = UUID1;
paths = (
{
closed = 1;
nodes = (
"96 40 LINE",
"206 166 OFFCURVE",
"591 612 OFFCURVE",
"701 739 CURVE",
"771 675 LINE",
"661 549 OFFCURVE",
"277 103 OFFCURVE",
"168 -23 CURVE"
);
}
);
width = 858;
}
);
unicode = 00D8;
},
{
glyphname = OE;
lastChange = "2016-08-26 16:01:03 +0000";
layers = (
{
hints = (
{
horizontal = 1;
place = "{-8, 21}";
target = up;
type = BottomGhost;
},
{
horizontal = 1;
place = "{708, -20}";
target = down;
type = TopGhost;
},
{
horizontal = 1;
place = "{0, 21}";
target = up;
type = BottomGhost;
},
{
horizontal = 1;
place = "{700, -20}";
target = down;
type = TopGhost;
}
);
layerId = UUID0;
paths = (
{
closed = 1;
nodes = (
"516 3 LINE",
"488 -4 OFFCURVE",
"458 -8 OFFCURVE",
"427 -8 CURVE SMOOTH",
"230 -8 OFFCURVE",
"70 152 OFFCURVE",
"70 349 CURVE SMOOTH",
"70 547 OFFCURVE",
"230 708 OFFCURVE",
"427 708 CURVE SMOOTH",
"459 708 OFFCURVE",
"489 704 OFFCURVE",
"518 696 CURVE",
"502 686 LINE",
"478 691 OFFCURVE",
"453 694 OFFCURVE",
"427 694 CURVE SMOOTH",
"238 694 OFFCURVE",
"84 538 OFFCURVE",
"84 348 CURVE SMOOTH",
"84 159 OFFCURVE",
"237 6 OFFCURVE",
"424 6 CURVE SMOOTH",
"451 6 OFFCURVE",
"476 9 OFFCURVE",
"501 15 CURVE"
);
},
{
closed = 1;
nodes = (
"496 0 LINE",
"496 700 LINE",
"881 700 LINE",
"881 686 LINE",
"510 686 LINE",
"510 360 LINE",
"842 360 LINE",
"842 346 LINE",
"510 346 LINE",
"510 14 LINE",
"895 14 LINE",
"895 0 LINE"
);
}
);
width = 988;
},
{
hints = (
{
horizontal = 1;
place = "{71, 21}";
target = up;
type = BottomGhost;
},
{
horizontal = 1;
place = "{629, -20}";
target = down;
type = TopGhost;
},
{
horizontal = 1;
place = "{0, 21}";
target = up;
type = BottomGhost;
},
{
horizontal = 1;
place = "{700, -20}";
target = down;
type = TopGhost;
}
);
layerId = UUID1;
paths = (
{
closed = 1;
nodes = (
"526 4 LINE",
"496 -4 OFFCURVE",
"466 -8 OFFCURVE",
"434 -8 CURVE SMOOTH",
"227 -8 OFFCURVE",
"59 160 OFFCURVE",
"59 367 CURVE SMOOTH",
"59 570 OFFCURVE",
"227 744 OFFCURVE",
"434 744 CURVE SMOOTH",
"467 744 OFFCURVE",
"499 739 OFFCURVE",
"529 731 CURVE",
"484 594 LINE",
"468 598 OFFCURVE",
"452 600 OFFCURVE",
"435 600 CURVE SMOOTH",
"309 600 OFFCURVE",
"209 496 OFFCURVE",
"209 367 CURVE SMOOTH",
"209 238 OFFCURVE",
"311 133 OFFCURVE",
"439 133 CURVE SMOOTH",
"456 133 OFFCURVE",
"473 135 OFFCURVE",
"489 139 CURVE"
);
},
{
closed = 1;
nodes = (
"477 0 LINE",
"477 736 LINE",
"949 736 LINE",
"949 601 LINE",
"627 601 LINE",
"627 437 LINE",
"908 437 LINE",
"908 299 LINE",
"627 299 LINE",
"627 139 LINE",
"963 139 LINE",
"963 0 LINE"
);
}
);
width = 1021;
}
);
unicode = 0152;
},
{
glyphname = P;
lastChange = "2016-08-26 16:01:03 +0000";
layers = (
{
hints = (
{
horizontal = 1;
place = "{0, 21}";
target = up;
type = BottomGhost;
},
{
horizontal = 1;
place = "{700, -20}";
target = down;
type = TopGhost;
}
);
layerId = UUID0;
paths = (
{
closed = 1;
nodes = (
"94 335 LINE",
"209 335 LINE SMOOTH",
"364 335 OFFCURVE",
"406 446 OFFCURVE",
"406 518 CURVE SMOOTH",
"406 620 OFFCURVE",
"321 686 OFFCURVE",
"210 686 CURVE SMOOTH",
"94 686 LINE"
);
},
{
closed = 1;
nodes = (
"80 0 LINE",
"80 700 LINE",
"220 700 LINE SMOOTH",
"297 700 OFFCURVE",
"420 654 OFFCURVE",
"420 516 CURVE SMOOTH",
"420 416 OFFCURVE",
"355 321 OFFCURVE",
"206 321 CURVE SMOOTH",
"94 321 LINE",
"94 0 LINE"
);
}
);
width = 475;
},
{
hints = (
{
horizontal = 1;
place = "{0, 21}";
target = up;
type = BottomGhost;
},
{
horizontal = 1;
place = "{700, -20}";
target = down;
type = TopGhost;
}
);
layerId = UUID1;
paths = (
{
closed = 1;
nodes = (
"232 374 LINE",
"325 374 LINE SMOOTH",
"413 374 OFFCURVE",
"438 446 OFFCURVE",
"438 484 CURVE SMOOTH",
"438 513 OFFCURVE",
"428 596 OFFCURVE",
"326 596 CURVE SMOOTH",
"232 596 LINE"
);
},
{
closed = 1;
nodes = (
"82 0 LINE",
"82 736 LINE",
"305 736 LINE SMOOTH",
"487 736 OFFCURVE",
"588 639 OFFCURVE",
"588 488 CURVE SMOOTH",
"588 367 OFFCURVE",
"523 233 OFFCURVE",
"331 233 CURVE SMOOTH",
"232 233 LINE",
"232 0 LINE"
);
}
);
width = 635;
}
);
unicode = 0050;
},
{
glyphname = Thorn;
lastChange = "2016-08-26 16:01:03 +0000";
layers = (
{
hints = (
{
horizontal = 1;
place = "{700, -20}";
target = down;
type = TopGhost;
},
{
horizontal = 1;
place = "{0, 21}";
target = up;
type = BottomGhost;
}
);
layerId = UUID0;
paths = (
{
closed = 1;
nodes = (
"70 0 LINE",
"70 700 LINE",
"84 700 LINE",
"84 535 LINE",
"210 535 LINE SMOOTH",
"287 535 OFFCURVE",
"410 489 OFFCURVE",
"410 351 CURVE SMOOTH",
"410 251 OFFCURVE",
"345 156 OFFCURVE",
"196 156 CURVE SMOOTH",
"84 156 LINE",
"84 0 LINE"
);
},
{
closed = 1;
nodes = (
"84 170 LINE",
"199 170 LINE SMOOTH",
"354 170 OFFCURVE",
"396 281 OFFCURVE",
"396 353 CURVE SMOOTH",
"396 455 OFFCURVE",
"311 521 OFFCURVE",
"200 521 CURVE SMOOTH",
"84 521 LINE"
);
}
);
width = 470;
},
{
hints = (
{
horizontal = 1;
place = "{700, -20}";
target = down;
type = TopGhost;
},
{
horizontal = 1;
place = "{0, 21}";
target = up;
type = BottomGhost;
}
);
layerId = UUID1;
paths = (
{
closed = 1;
nodes = (
"82 0 LINE",
"82 714 LINE",
"232 714 LINE",
"232 616 LINE",
"305 616 LINE SMOOTH",
"487 616 OFFCURVE",
"588 519 OFFCURVE",
"588 368 CURVE SMOOTH",
"588 247 OFFCURVE",
"523 113 OFFCURVE",
"331 113 CURVE SMOOTH",
"232 113 LINE",
"232 0 LINE"
);
},
{
closed = 1;
nodes = (
"232 254 LINE",
"325 254 LINE SMOOTH",
"413 254 OFFCURVE",
"438 326 OFFCURVE",
"438 364 CURVE SMOOTH",
"438 393 OFFCURVE",
"428 476 OFFCURVE",
"326 476 CURVE SMOOTH",
"232 476 LINE"
);
}
);
width = 518;
}
);
unicode = 00DE;
},
{
glyphname = Q;
lastChange = "2016-08-26 16:01:03 +0000";
layers = (
{
hints = (
{
horizontal = 1;
place = "{-8, 21}";
target = up;
type = BottomGhost;
},
{
horizontal = 1;
place = "{708, -20}";
target = down;
type = TopGhost;
}
);
layerId = UUID0;
paths = (
{
closed = 1;
nodes = (
"60 349 LINE SMOOTH",
"60 547 OFFCURVE",
"220 708 OFFCURVE",
"417 708 CURVE SMOOTH",
"615 708 OFFCURVE",
"776 547 OFFCURVE",
"776 349 CURVE SMOOTH",
"776 195 OFFCURVE",
"678 64 OFFCURVE",
"541 14 CURVE",
"798 14 LINE",
"798 0 LINE",
"491 0 LINE",
"467 -5 OFFCURVE",
"442 -8 OFFCURVE",
"417 -8 CURVE SMOOTH",
"220 -8 OFFCURVE",
"60 152 OFFCURVE",
"60 349 CURVE SMOOTH"
);
},
{
closed = 1;
nodes = (
"74 348 LINE SMOOTH",
"74 159 OFFCURVE",
"227 6 OFFCURVE",
"414 6 CURVE SMOOTH",
"604 6 OFFCURVE",
"762 160 OFFCURVE",
"762 349 CURVE SMOOTH",
"762 538 OFFCURVE",
"606 694 OFFCURVE",
"417 694 CURVE SMOOTH",
"228 694 OFFCURVE",
"74 538 OFFCURVE",
"74 348 CURVE SMOOTH"
);
}
);
width = 858;
},
{
hints = (
{
horizontal = 1;
place = "{-8, 21}";
target = up;
type = BottomGhost;
},
{
horizontal = 1;
place = "{708, -20}";
target = down;
type = TopGhost;
}
);
layerId = UUID1;
paths = (
{
closed = 1;
nodes = (
"67 367 LINE SMOOTH",
"67 570 OFFCURVE",
"235 744 OFFCURVE",
"442 744 CURVE SMOOTH",
"647 744 OFFCURVE",
"819 570 OFFCURVE",
"819 367 CURVE SMOOTH",
"819 288 OFFCURVE",
"807 214 OFFCURVE",
"774 130 CURVE",
"843 142 LINE",
"843 0 LINE",
"521 0 LINE",
"494 -5 OFFCURVE",
"469 -8 OFFCURVE",
"442 -8 CURVE SMOOTH",
"235 -8 OFFCURVE",
"67 160 OFFCURVE",
"67 367 CURVE SMOOTH"
);
},
{
closed = 1;
nodes = (
"217 367 LINE SMOOTH",
"217 238 OFFCURVE",
"319 133 OFFCURVE",
"447 133 CURVE SMOOTH",
"571 133 OFFCURVE",
"670 237 OFFCURVE",
"670 367 CURVE SMOOTH",
"670 496 OFFCURVE",
"568 600 OFFCURVE",
"443 600 CURVE SMOOTH",
"317 600 OFFCURVE",
"217 496 OFFCURVE",
"217 367 CURVE SMOOTH"
);
}
);
width = 870;
}
);
unicode = 0051;
},
{
glyphname = R;
lastChange = "2016-08-26 16:01:03 +0000";
layers = (
{
hints = (
{
horizontal = 1;
place = "{0, 21}";
target = up;
type = BottomGhost;
},
{
horizontal = 1;
place = "{700, -20}";
target = down;
type = TopGhost;
}
);
layerId = UUID0;
paths = (
{
closed = 1;
nodes = (
"302 337 LINE",
"302 337 OFFCURVE",
"504 0 OFFCURVE",
"504 0 CURVE",
"486 0 LINE",
"486 0 OFFCURVE",
"286 337 OFFCURVE",
"286 337 CURVE"
);
},
{
closed = 1;
nodes = (
"104 335 LINE",
"219 335 LINE SMOOTH",
"374 335 OFFCURVE",
"416 451 OFFCURVE",
"416 520 CURVE SMOOTH",
"416 619 OFFCURVE",
"331 686 OFFCURVE",
"220 686 CURVE SMOOTH",
"104 686 LINE"
);
},
{
closed = 1;
nodes = (
"90 0 LINE",
"90 700 LINE",
"230 700 LINE SMOOTH",
"307 700 OFFCURVE",
"430 654 OFFCURVE",
"430 516 CURVE SMOOTH",
"430 416 OFFCURVE",
"365 321 OFFCURVE",
"216 321 CURVE SMOOTH",
"104 321 LINE",
"104 0 LINE"
);
}
);
width = 512;
},
{
hints = (
{
horizontal = 1;
place = "{0, 21}";
target = up;
type = BottomGhost;
},
{
horizontal = 1;
place = "{700, -20}";
target = down;
type = TopGhost;
}
);
layerId = UUID1;
paths = (
{
closed = 1;
nodes = (
"486 284 LINE",
"563 161 OFFCURVE",
"575 144 OFFCURVE",
"668 0 CURVE",
"489 0 LINE",
"400 139 OFFCURVE",
"374 176 OFFCURVE",
"303 280 CURVE"
);
},
{
closed = 1;
nodes = (
"242 374 LINE",
"335 374 LINE SMOOTH",
"423 374 OFFCURVE",
"448 441 OFFCURVE",
"448 483 CURVE SMOOTH",
"448 514 OFFCURVE",
"438 596 OFFCURVE",
"336 596 CURVE SMOOTH",
"242 596 LINE"
);
},
{
closed = 1;
nodes = (
"92 0 LINE",
"92 736 LINE",
"315 736 LINE SMOOTH",
"497 736 OFFCURVE",
"598 639 OFFCURVE",
"598 488 CURVE SMOOTH",
"598 367 OFFCURVE",
"533 233 OFFCURVE",
"341 233 CURVE SMOOTH",
"242 233 LINE",
"242 0 LINE"
);
}
);
width = 693;
}
);
unicode = 0052;
},
{
glyphname = S;
lastChange = "2016-08-26 16:01:03 +0000";
layers = (
{
hints = (
{
horizontal = 1;
place = "{704, -20}";
target = down;
type = TopGhost;
},
{
horizontal = 1;
place = "{-8, 21}";
target = up;
type = BottomGhost;
}
);
layerId = UUID0;
paths = (
{
closed = 1;
nodes = (
"453 667 LINE",
"447 656 LINE",
"411 672 OFFCURVE",
"345 691 OFFCURVE",
"287 691 CURVE SMOOTH",
"177 691 OFFCURVE",
"109 624 OFFCURVE",
"109 546 CURVE SMOOTH",
"109 360 OFFCURVE",
"489 437 OFFCURVE",
"489 188 CURVE SMOOTH",
"489 66 OFFCURVE",
"397 -8 OFFCURVE",
"272 -8 CURVE SMOOTH",
"163 -8 OFFCURVE",
"87 49 OFFCURVE",
"64 63 CURVE",
"72 76 LINE",
"112 47 OFFCURVE",
"193 6 OFFCURVE",
"275 6 CURVE SMOOTH",
"374 6 OFFCURVE",
"475 65 OFFCURVE",
"475 187 CURVE SMOOTH",
"475 425 OFFCURVE",
"95 345 OFFCURVE",
"95 543 CURVE SMOOTH",
"95 635 OFFCURVE",
"177 704 OFFCURVE",
"281 704 CURVE SMOOTH",
"329 704 OFFCURVE",
"405 689 OFFCURVE",
"453 667 CURVE"
);
}
);
width = 555;
},
{
hints = (
{
horizontal = 1;
place = "{704, -20}";
target = down;
type = TopGhost;
},
{
horizontal = 1;
place = "{-8, 21}";
target = up;
type = BottomGhost;
}
);
layerId = UUID1;
paths = (
{
closed = 1;
nodes = (
"550 693 LINE",
"497 571 LINE",
"436 592 OFFCURVE",
"383 603 OFFCURVE",
"338 603 CURVE SMOOTH",
"265 603 OFFCURVE",
"218 575 OFFCURVE",
"218 533 CURVE SMOOTH",
"218 419 OFFCURVE",
"572 458 OFFCURVE",
"572 209 CURVE SMOOTH",
"572 81 OFFCURVE",
"479 -8 OFFCURVE",
"271 -8 CURVE SMOOTH",
"152 -8 OFFCURVE",
"80 21 OFFCURVE",
"31 50 CURVE",
"96 181 LINE",
"155 150 OFFCURVE",
"223 138 OFFCURVE",
"264 138 CURVE SMOOTH",
"299 138 OFFCURVE",
"424 147 OFFCURVE",
"424 216 CURVE SMOOTH",
"424 332 OFFCURVE",
"70 307 OFFCURVE",
"70 524 CURVE SMOOTH",
"70 627 OFFCURVE",
"149 740 OFFCURVE",
"329 740 CURVE SMOOTH",
"445 740 OFFCURVE",
"550 693 OFFCURVE",
"550 693 CURVE"
);
}
);
width = 630;
}
);
unicode = 0053;
},
{
glyphname = T;
lastChange = "2016-08-26 16:01:03 +0000";
layers = (
{
hints = (
{
horizontal = 1;
place = "{700, -20}";
target = down;
type = TopGhost;
},
{
horizontal = 1;
place = "{0, 21}";
target = up;
type = BottomGhost;
}
);
layerId = UUID0;
paths = (
{
closed = 1;
nodes = (
"456 700 LINE",
"456 686 LINE",
"256 686 LINE",
"256 0 LINE",
"242 0 LINE",
"242 686 LINE",
"42 686 LINE",
"42 700 LINE"
);
}
);
width = 498;
},
{
hints = (
{
horizontal = 1;
place = "{700, -20}";
target = down;
type = TopGhost;
},
{
horizontal = 1;
place = "{0, 21}";
target = up;
type = BottomGhost;
}
);
layerId = UUID1;
paths = (
{
closed = 1;
nodes = (
"539 736 LINE",
"539 593 LINE",
"363 593 LINE",
"363 0 LINE",
"213 0 LINE",
"213 593 LINE",
"43 593 LINE",
"43 736 LINE"
);
}
);
width = 576;
}
);
unicode = 0054;
},
{
glyphname = U;
lastChange = "2016-08-26 16:01:03 +0000";
layers = (
{
hints = (
{
horizontal = 1;
place = "{-8, 21}";
target = up;
type = BottomGhost;
},
{
horizontal = 1;
place = "{700, -20}";
target = down;
type = TopGhost;
}
);
layerId = UUID0;
paths = (
{
closed = 1;
nodes = (
"315 -8 LINE SMOOTH",
"186 -8 OFFCURVE",
"90 73 OFFCURVE",
"90 226 CURVE SMOOTH",
"90 700 LINE",
"104 700 LINE",
"104 229 LINE SMOOTH",
"104 86 OFFCURVE",
"192 6 OFFCURVE",
"315 6 CURVE SMOOTH",
"436 6 OFFCURVE",
"526 86 OFFCURVE",
"526 229 CURVE SMOOTH",
"526 700 LINE",
"540 700 LINE",
"540 226 LINE SMOOTH",
"540 73 OFFCURVE",
"442 -8 OFFCURVE",
"315 -8 CURVE SMOOTH"
);
}
);
width = 630;
},
{
hints = (
{
horizontal = 1;
place = "{-8, 21}";
target = up;
type = BottomGhost;
},
{
horizontal = 1;
place = "{700, -20}";
target = down;
type = TopGhost;
}
);
layerId = UUID1;
paths = (
{
closed = 1;
nodes = (
"389 -8 LINE SMOOTH",
"224 -8 OFFCURVE",
"92 107 OFFCURVE",
"92 269 CURVE SMOOTH",
"92 736 LINE",
"242 736 LINE",
"242 272 LINE SMOOTH",
"242 202 OFFCURVE",
"307 133 OFFCURVE",
"389 133 CURVE SMOOTH",
"471 133 OFFCURVE",
"538 202 OFFCURVE",
"538 272 CURVE SMOOTH",
"538 736 LINE",
"688 736 LINE",
"688 269 LINE SMOOTH",
"688 107 OFFCURVE",
"555 -8 OFFCURVE",
"389 -8 CURVE SMOOTH"
);
}
);
width = 780;
}
);
unicode = 0055;
},
{
glyphname = Uring;
lastChange = "2016-08-26 16:01:03 +0000";
layers = (
{
components = (
{
name = U;
}
);
layerId = UUID0;
paths = (
{
closed = 1;
nodes = (
"272 813 LINE SMOOTH",
"272 839 OFFCURVE",
"295 862 OFFCURVE",
"321 862 CURVE SMOOTH",
"347 862 OFFCURVE",
"370 839 OFFCURVE",
"370 813 CURVE SMOOTH",
"370 787 OFFCURVE",
"347 764 OFFCURVE",
"321 764 CURVE SMOOTH",
"295 764 OFFCURVE",
"272 787 OFFCURVE",
"272 813 CURVE SMOOTH"
);
},
{
closed = 1;
nodes = (
"258 813 LINE SMOOTH",
"258 777 OFFCURVE",
"285 750 OFFCURVE",
"321 750 CURVE SMOOTH",
"357 750 OFFCURVE",
"384 777 OFFCURVE",
"384 813 CURVE SMOOTH",
"384 849 OFFCURVE",
"357 876 OFFCURVE",
"321 876 CURVE SMOOTH",
"285 876 OFFCURVE",
"258 849 OFFCURVE",
"258 813 CURVE SMOOTH"
);
}
);
width = 630;
},
{
components = (
{
name = U;
}
);
layerId = UUID1;
paths = (
{
closed = 1;
nodes = (
"367 863 LINE SMOOTH",
"367 881 OFFCURVE",
"379 893 OFFCURVE",
"396 893 CURVE SMOOTH",
"413 893 OFFCURVE",
"425 881 OFFCURVE",
"425 863 CURVE SMOOTH",
"425 847 OFFCURVE",
"413 835 OFFCURVE",
"396 835 CURVE SMOOTH",
"379 835 OFFCURVE",
"367 847 OFFCURVE",
"367 863 CURVE SMOOTH"
);
},
{
closed = 1;
nodes = (
"301 865 LINE SMOOTH",
"301 814 OFFCURVE",
"345 770 OFFCURVE",
"396 770 CURVE SMOOTH",
"446 770 OFFCURVE",
"490 814 OFFCURVE",
"490 865 CURVE SMOOTH",
"490 915 OFFCURVE",
"446 959 OFFCURVE",
"396 959 CURVE SMOOTH",
"345 959 OFFCURVE",
"301 915 OFFCURVE",
"301 865 CURVE SMOOTH"
);
}
);
width = 780;
}
);
unicode = 016E;
},
{
glyphname = V;
lastChange = "2016-08-26 16:01:03 +0000";
layers = (
{
hints = (
{
horizontal = 1;
place = "{700, -20}";
target = down;
type = TopGhost;
},
{
horizontal = 1;
place = "{-32, 21}";
target = up;
type = BottomGhost;
}
);
layerId = UUID0;
paths = (
{
closed = 1;
nodes = (
"40 700 LINE",
"143 456 OFFCURVE",
"227 212 OFFCURVE",
"330 -32 CURVE",
"433 212 OFFCURVE",
"517 456 OFFCURVE",
"620 700 CURVE",
"605 700 LINE",
"510 475 OFFCURVE",
"434 250 OFFCURVE",
"339 25 CURVE SMOOTH",
"336 17 OFFCURVE",
"333 8 OFFCURVE",
"330 0 CURVE",
"327 8 OFFCURVE",
"324 17 OFFCURVE",
"321 25 CURVE SMOOTH",
"226 250 OFFCURVE",
"150 475 OFFCURVE",
"55 700 CURVE"
);
}
);
width = 700;
},
{
hints = (
{
horizontal = 1;
place = "{700, -20}";
target = down;
type = TopGhost;
},
{
horizontal = 1;
place = "{-32, 21}";
target = up;
type = BottomGhost;
}
);
layerId = UUID1;
paths = (
{
closed = 1;
nodes = (
"32 736 LINE",
"32 736 OFFCURVE",
"368 -34 OFFCURVE",
"368 -34 CURVE",
"368 -34 OFFCURVE",
"704 736 OFFCURVE",
"704 736 CURVE",
"556 736 LINE",
"556 736 OFFCURVE",
"379 319 OFFCURVE",
"379 319 CURVE SMOOTH",
"379 319 OFFCURVE",
"371 293 OFFCURVE",
"368 278 CURVE",
"365 293 OFFCURVE",
"357 319 OFFCURVE",
"357 319 CURVE SMOOTH",
"357 319 OFFCURVE",
"180 736 OFFCURVE",
"180 736 CURVE"
);
}
);
width = 710;
}
);
unicode = 0056;
},
{
glyphname = W;
lastChange = "2016-08-26 16:01:03 +0000";
layers = (
{
hints = (
{
horizontal = 1;
place = "{700, -20}";
target = down;
type = TopGhost;
},
{
horizontal = 1;
place = "{-32, 21}";
target = up;
type = BottomGhost;
}
);
layerId = UUID0;
paths = (
{
closed = 1;
nodes = (
"932 700 LINE",
"829 456 OFFCURVE",
"642 -32 OFFCURVE",
"642 -32 CURVE",
"494 367 LINE",
"494 367 OFFCURVE",
"487 388 OFFCURVE",
"487 388 CURVE",
"487 388 OFFCURVE",
"480 367 OFFCURVE",
"480 367 CURVE",
"480 367 OFFCURVE",
"393 101 OFFCURVE",
"350 -32 CURVE",
"247 212 OFFCURVE",
"163 456 OFFCURVE",
"60 700 CURVE",
"75 700 LINE",
"169 475 OFFCURVE",
"341 25 OFFCURVE",
"341 25 CURVE",
"341 25 OFFCURVE",
"350 0 OFFCURVE",
"350 0 CURVE",
"350 0 OFFCURVE",
"357 25 OFFCURVE",
"357 25 CURVE",
"357 25 OFFCURVE",
"481 408 OFFCURVE",
"481 408 CURVE",
"481 408 OFFCURVE",
"372 700 OFFCURVE",
"372 700 CURVE",
"387 700 LINE",
"387 700 OFFCURVE",
"560 243 OFFCURVE",
"633 25 CURVE",
"636 17 OFFCURVE",
"639 8 OFFCURVE",
"642 0 CURVE",
"645 8 OFFCURVE",
"651 25 OFFCURVE",
"651 25 CURVE",
"651 25 OFFCURVE",
"822 475 OFFCURVE",
"917 700 CURVE"
);
}
);
width = 991;
},
{
hints = (
{
horizontal = 1;
place = "{700, -20}";
target = down;
type = TopGhost;
},
{
horizontal = 1;
place = "{-32, 21}";
target = up;
type = BottomGhost;
}
);
layerId = UUID1;
paths = (
{
closed = 1;
nodes = (
"986 731 LINE",
"893 476 OFFCURVE",
"789 221 OFFCURVE",
"696 -32 CURVE",
"528 376 LINE",
"522 391 OFFCURVE",
"523 386 OFFCURVE",
"519 401 CURVE",
"518 388 OFFCURVE",
"514 377 OFFCURVE",
"514 377 CURVE",
"514 377 OFFCURVE",
"381 101 OFFCURVE",
"317 -34 CURVE",
"224 221 OFFCURVE",
"120 476 OFFCURVE",
"27 731 CURVE",
"197 731 LINE",
"249 577 OFFCURVE",
"282 496 OFFCURVE",
"320 353 CURVE",
"323 340 OFFCURVE",
"324 326 OFFCURVE",
"327 314 CURVE",
"328 324 OFFCURVE",
"337 341 OFFCURVE",
"340 351 CURVE",
"351 386 OFFCURVE",
"447 562 OFFCURVE",
"447 562 CURVE",
"447 562 OFFCURVE",
"413 674 OFFCURVE",
"396 731 CURVE",
"540 731 LINE",
"540 731 OFFCURVE",
"687 353 OFFCURVE",
"687 353 CURVE",
"692 340 OFFCURVE",
"693 328 OFFCURVE",
"695 315 CURVE",
"698 328 OFFCURVE",
"698 340 OFFCURVE",
"701 353 CURVE",
"736 501 OFFCURVE",
"780 588 OFFCURVE",
"830 731 CURVE"
);
}
);
width = 1032;
}
);
unicode = 0057;
},
{
glyphname = X;
lastChange = "2016-08-26 16:01:03 +0000";
layers = (
{
hints = (
{
horizontal = 1;
place = "{0, 21}";
target = up;
type = BottomGhost;
},
{
horizontal = 1;
place = "{700, -20}";
target = down;
type = TopGhost;
}
);
layerId = UUID0;
paths = (
{
closed = 1;
nodes = (
"310 360 LINE",
"237 473 OFFCURVE",
"163 587 OFFCURVE",
"90 700 CURVE",
"106 700 LINE",
"175 594 OFFCURVE",
"245 487 OFFCURVE",
"314 381 CURVE",
"317 377 OFFCURVE",
"319 372 OFFCURVE",
"322 368 CURVE",
"325 372 OFFCURVE",
"327 377 OFFCURVE",
"330 381 CURVE",
"398 487 OFFCURVE",
"466 594 OFFCURVE",
"534 700 CURVE",
"546 700 LINE",
"473 585 OFFCURVE",
"401 474 OFFCURVE",
"328 359 CURVE",
"405 240 OFFCURVE",
"485 119 OFFCURVE",
"562 0 CURVE",
"545 0 LINE",
"362 279 LINE",
"347 301 OFFCURVE",
"332 330 OFFCURVE",
"316 351 CURVE",
"313 347 OFFCURVE",
"311 342 OFFCURVE",
"308 338 CURVE",
"237 226 OFFCURVE",
"163 112 OFFCURVE",
"92 0 CURVE",
"80 0 LINE",
"157 120 OFFCURVE",
"233 240 OFFCURVE",
"310 360 CURVE"
);
}
);
width = 637;
},
{
hints = (
{
horizontal = 1;
place = "{0, 21}";
target = up;
type = BottomGhost;
},
{
horizontal = 1;
place = "{700, -20}";
target = down;
type = TopGhost;
}
);
layerId = UUID1;
paths = (
{
closed = 1;
nodes = (
"242 376 LINE",
"242 376 OFFCURVE",
"11 736 OFFCURVE",
"11 736 CURVE",
"196 736 LINE",
"196 736 OFFCURVE",
"323 522 OFFCURVE",
"323 522 CURVE",
"323 522 OFFCURVE",
"337 495 OFFCURVE",
"342 480 CURVE",
"347 495 OFFCURVE",
"361 522 OFFCURVE",
"361 522 CURVE",
"361 522 OFFCURVE",
"483 736 OFFCURVE",
"483 736 CURVE",
"669 736 LINE",
"669 736 OFFCURVE",
"439 368 OFFCURVE",
"439 368 CURVE",
"439 368 OFFCURVE",
"676 0 OFFCURVE",
"676 0 CURVE",
"489 0 LINE",
"356 221 LINE",
"356 221 OFFCURVE",
"337 253 OFFCURVE",
"336 258 CURVE",
"331 243 OFFCURVE",
"319 221 OFFCURVE",
"319 221 CURVE",
"319 221 OFFCURVE",
"191 0 OFFCURVE",
"191 0 CURVE",
"1 0 LINE",
"1 0 OFFCURVE",
"242 376 OFFCURVE",
"242 376 CURVE"
);
}
);
width = 681;
}
);
unicode = 0058;
},
{
glyphname = Y;
lastChange = "2016-08-26 16:01:03 +0000";
layers = (
{
hints = (
{
horizontal = 1;
place = "{700, -20}";
target = down;
type = TopGhost;
},
{
horizontal = 1;
place = "{0, 21}";
target = up;
type = BottomGhost;
}
);
layerId = UUID0;
paths = (
{
closed = 1;
nodes = (
"317 262 LINE",
"317 0 LINE",
"303 0 LINE",
"303 262 LINE",
"215 408 OFFCURVE",
"128 554 OFFCURVE",
"40 700 CURVE",
"57 700 LINE",
"137 566 OFFCURVE",
"220 433 OFFCURVE",
"298 298 CURVE",
"311 272 LINE",
"315 281 OFFCURVE",
"318 289 OFFCURVE",
"322 298 CURVE",
"402 432 OFFCURVE",
"482 566 OFFCURVE",
"562 700 CURVE",
"579 700 LINE"
);
}
);
width = 619;
},
{
hints = (
{
horizontal = 1;
place = "{700, -20}";
target = down;
type = TopGhost;
},
{
horizontal = 1;
place = "{0, 21}";
target = up;
type = BottomGhost;
}
);
layerId = UUID1;
paths = (
{
closed = 1;
nodes = (
"401 229 LINE",
"401 0 LINE",
"250 0 LINE",
"250 229 LINE",
"250 229 OFFCURVE",
"-21 736 OFFCURVE",
"-21 736 CURVE",
"148 736 LINE",
"148 736 OFFCURVE",
"271 491 OFFCURVE",
"315 401 CURVE",
"326 365 LINE",
"331 376 OFFCURVE",
"335 391 OFFCURVE",
"339 401 CURVE",
"384 492 OFFCURVE",
"502 736 OFFCURVE",
"502 736 CURVE",
"671 736 LINE"
);
}
);
width = 650;
}
);
unicode = 0059;
},
{
glyphname = Z;
lastChange = "2016-08-26 16:01:03 +0000";
layers = (
{
hints = (
{
horizontal = 1;
place = "{735, -20}";
target = down;
type = TopGhost;
},
{
horizontal = 1;
place = "{0, 21}";
target = up;
type = BottomGhost;
}
);
layerId = UUID0;
paths = (
{
closed = 1;
nodes = (
"103 700 LINE",
"578 700 LINE",
"60 14 LINE",
"611 14 LINE",
"611 0 LINE",
"35 0 LINE",
"205 238 OFFCURVE",
"380 462 OFFCURVE",
"550 686 CURVE",
"117 686 LINE SMOOTH",
"76 686 OFFCURVE",
"57 693 OFFCURVE",
"57 731 CURVE SMOOTH",
"57 735 LINE",
"73 735 LINE",
"73 723 LINE SMOOTH",
"73 711 OFFCURVE",
"81 700 OFFCURVE",
"103 700 CURVE"
);
}
);
width = 629;
},
{
hints = (
{
horizontal = 1;
place = "{735, -20}";
target = down;
type = TopGhost;
},
{
horizontal = 1;
place = "{0, 21}";
target = up;
type = BottomGhost;
}
);
layerId = UUID1;
paths = (
{
closed = 1;
nodes = (
"253 736 LINE",
"662 736 LINE",
"296 144 LINE",
"661 144 LINE",
"661 0 LINE",
"35 0 LINE",
"35 0 OFFCURVE",
"415 620 OFFCURVE",
"415 620 CURVE",
"185 620 LINE SMOOTH",
"142 620 OFFCURVE",
"88 651 OFFCURVE",
"88 692 CURVE SMOOTH",
"88 773 LINE",
"221 773 LINE",
"221 759 LINE SMOOTH",
"221 730 OFFCURVE",
"229 736 OFFCURVE",
"253 736 CURVE"
);
}
);
width = 738;
}
);
unicode = 005A;
},
{
glyphname = a;
lastChange = "2016-08-26 16:01:03 +0000";
layers = (
{
hints = (
{
horizontal = 1;
place = "{-6, 21}";
target = up;
type = BottomGhost;
},
{
horizontal = 1;
place = "{383, -20}";
target = down;
type = TopGhost;
}
);
layerId = UUID0;
paths = (
{
closed = 1;
nodes = (
"44 188 LINE SMOOTH",
"44 88 OFFCURVE",
"124 8 OFFCURVE",
"224 8 CURVE SMOOTH",
"324 8 OFFCURVE",
"405 88 OFFCURVE",
"405 188 CURVE SMOOTH",
"405 288 OFFCURVE",
"324 369 OFFCURVE",
"224 369 CURVE SMOOTH",
"124 369 OFFCURVE",
"44 288 OFFCURVE",
"44 188 CURVE SMOOTH"
);
},
{
closed = 1;
nodes = (
"30 188 LINE SMOOTH",
"30 296 OFFCURVE",
"116 383 OFFCURVE",
"224 383 CURVE SMOOTH",
"306 383 OFFCURVE",
"376 332 OFFCURVE",
"405 260 CURVE",
"405 298 OFFCURVE",
"407 337 OFFCURVE",
"409 375 CURVE",
"419 375 LINE",
"419 0 LINE",
"405 0 LINE",
"405 54 LINE SMOOTH",
"405 75 OFFCURVE",
"406 96 OFFCURVE",
"406 117 CURVE",
"378 45 OFFCURVE",
"307 -6 OFFCURVE",
"224 -6 CURVE SMOOTH",
"116 -6 OFFCURVE",
"30 80 OFFCURVE",
"30 188 CURVE SMOOTH"
);
}
);
width = 499;
},
{
hints = (
{
horizontal = 1;
place = "{-9, 21}";
target = up;
type = BottomGhost;
},
{
horizontal = 1;
place = "{382, -20}";
target = down;
type = TopGhost;
}
);
layerId = UUID1;
paths = (
{
closed = 1;
nodes = (
"160 220 LINE SMOOTH",
"160 153 OFFCURVE",
"208 102 OFFCURVE",
"279 102 CURVE SMOOTH",
"351 102 OFFCURVE",
"398 154 OFFCURVE",
"398 220 CURVE SMOOTH",
"398 286 OFFCURVE",
"351 335 OFFCURVE",
"279 335 CURVE SMOOTH",
"208 335 OFFCURVE",
"160 287 OFFCURVE",
"160 220 CURVE SMOOTH"
);
},
{
closed = 1;
nodes = (
"43 213 LINE SMOOTH",
"43 340 OFFCURVE",
"149 449 OFFCURVE",
"273 449 CURVE SMOOTH",
"353 449 OFFCURVE",
"396 404 OFFCURVE",
"398 402 CURVE",
"399 412 OFFCURVE",
"401 425 OFFCURVE",
"402 437 CURVE",
"515 437 LINE",
"515 0 LINE",
"398 0 LINE",
"398 22 LINE SMOOTH",
"398 24 OFFCURVE",
"398 28 OFFCURVE",
"398 26 CURVE",
"393 26 OFFCURVE",
"356 -12 OFFCURVE",
"274 -12 CURVE SMOOTH",
"137 -12 OFFCURVE",
"43 94 OFFCURVE",
"43 213 CURVE SMOOTH"
);
}
);
width = 586;
}
);
unicode = 0061;
},
{
glyphname = aring;
lastChange = "2016-08-26 16:01:03 +0000";
layers = (
{
components = (
{
name = a;
}
);
hints = (
{
place = "{187, 126}";
},
{
horizontal = 1;
place = "{477, 126}";
}
);
layerId = UUID0;
paths = (
{
closed = 1;
nodes = (
"182 469 LINE SMOOTH",
"182 495 OFFCURVE",
"205 518 OFFCURVE",
"231 518 CURVE SMOOTH",
"257 518 OFFCURVE",
"280 495 OFFCURVE",
"280 469 CURVE SMOOTH",
"280 443 OFFCURVE",
"257 420 OFFCURVE",
"231 420 CURVE SMOOTH",
"205 420 OFFCURVE",
"182 443 OFFCURVE",
"182 469 CURVE SMOOTH"
);
},
{
closed = 1;
nodes = (
"168 469 LINE SMOOTH",
"168 433 OFFCURVE",
"195 406 OFFCURVE",
"231 406 CURVE SMOOTH",
"267 406 OFFCURVE",
"294 433 OFFCURVE",
"294 469 CURVE SMOOTH",
"294 505 OFFCURVE",
"267 532 OFFCURVE",
"231 532 CURVE SMOOTH",
"195 532 OFFCURVE",
"168 505 OFFCURVE",
"168 469 CURVE SMOOTH"
);
}
);
width = 551;
},
{
components = (
{
name = a;
transform = "{1, 0, 0, 1, 17, 0}";
}
);
hints = (
{
place = "{218, 65}";
},
{
horizontal = 1;
place = "{507, 65}";
}
);
layerId = UUID1;
paths = (
{
closed = 1;
nodes = (
"270 574 LINE SMOOTH",
"270 592 OFFCURVE",
"282 604 OFFCURVE",
"299 604 CURVE SMOOTH",
"316 604 OFFCURVE",
"328 592 OFFCURVE",
"328 574 CURVE SMOOTH",
"328 558 OFFCURVE",
"316 546 OFFCURVE",
"299 546 CURVE SMOOTH",
"282 546 OFFCURVE",
"270 558 OFFCURVE",
"270 574 CURVE SMOOTH"
);
},
{
closed = 1;
nodes = (
"204 576 LINE SMOOTH",
"204 525 OFFCURVE",
"248 481 OFFCURVE",
"299 481 CURVE SMOOTH",
"349 481 OFFCURVE",
"393 525 OFFCURVE",
"393 576 CURVE SMOOTH",
"393 626 OFFCURVE",
"349 670 OFFCURVE",
"299 670 CURVE SMOOTH",
"248 670 OFFCURVE",
"204 626 OFFCURVE",
"204 576 CURVE SMOOTH"
);
}
);
width = 551;
}
);
unicode = 00E5;
},
{
glyphname = ae;
lastChange = "2016-08-26 16:01:03 +0000";
layers = (
{
hints = (
{
horizontal = 1;
place = "{-6, 199}";
},
{
horizontal = 1;
place = "{179, 204}";
},
{
horizontal = 1;
place = "{-8, 21}";
target = up;
type = BottomGhost;
}
);
layerId = UUID0;
paths = (
{
closed = 1;
nodes = (
"278 324 LINE",
"260 352 OFFCURVE",
"224 367 OFFCURVE",
"161 367 CURVE SMOOTH",
"96 367 OFFCURVE",
"67 352 OFFCURVE",
"39 332 CURVE",
"31 346 LINE",
"58 367 OFFCURVE",
"103 383 OFFCURVE",
"166 383 CURVE SMOOTH",
"232 383 OFFCURVE",
"270 365 OFFCURVE",
"290 334 CURVE"
);
},
{
closed = 1;
nodes = (
"306 75 LINE",
"290 15 OFFCURVE",
"229 -8 OFFCURVE",
"159 -8 CURVE SMOOTH",
"72 -8 OFFCURVE",
"19 45 OFFCURVE",
"19 104 CURVE SMOOTH",
"19 165 OFFCURVE",
"82 195 OFFCURVE",
"138 195 CURVE SMOOTH",
"216 195 LINE",
"215 178 LINE",
"155 178 LINE SMOOTH",
"61 178 OFFCURVE",
"36 137 OFFCURVE",
"36 105 CURVE SMOOTH",
"36 33 OFFCURVE",
"104 8 OFFCURVE",
"166 8 CURVE SMOOTH",
"244 8 OFFCURVE",
"289 48 OFFCURVE",
"295 93 CURVE"
);
},
{
closed = 1;
nodes = (
"534 46 LINE",
"499 14 OFFCURVE",
"452 -6 OFFCURVE",
"400 -6 CURVE SMOOTH",
"292 -6 OFFCURVE",
"206 80 OFFCURVE",
"206 188 CURVE SMOOTH",
"206 296 OFFCURVE",
"292 384 OFFCURVE",
"400 384 CURVE SMOOTH",
"482 384 OFFCURVE",
"540 330 OFFCURVE",
"569 259 CURVE",
"469 218 OFFCURVE",
"333 164 OFFCURVE",
"232 122 CURVE",
"258 55 OFFCURVE",
"323 8 OFFCURVE",
"400 8 CURVE SMOOTH",
"448 8 OFFCURVE",
"491 26 OFFCURVE",
"523 56 CURVE"
);
},
{
closed = 1;
nodes = (
"550 266 LINE",
"522 326 OFFCURVE",
"471 369 OFFCURVE",
"400 369 CURVE SMOOTH",
"300 369 OFFCURVE",
"220 288 OFFCURVE",
"220 188 CURVE SMOOTH",
"220 169 OFFCURVE",
"222 152 OFFCURVE",
"227 135 CURVE",
"325 176 OFFCURVE",
"451 225 OFFCURVE",
"550 266 CURVE"
);
}
);
width = 605;
},
{
hints = (
{
horizontal = 1;
place = "{-8, 230}";
},
{
horizontal = 1;
place = "{136, 249}";
},
{
horizontal = 1;
place = "{-8, 21}";
target = up;
type = BottomGhost;
}
);
layerId = UUID1;
paths = (
{
closed = 1;
nodes = (
"295 289 LINE",
"286 324 OFFCURVE",
"257 335 OFFCURVE",
"212 335 CURVE SMOOTH",
"164 335 OFFCURVE",
"119 322 OFFCURVE",
"88 306 CURVE",
"41 395 LINE",
"93 429 OFFCURVE",
"159 449 OFFCURVE",
"226 449 CURVE SMOOTH",
"288 449 OFFCURVE",
"342 427 OFFCURVE",
"367 390 CURVE"
);
},
{
closed = 1;
nodes = (
"390 131 LINE",
"374 49 OFFCURVE",
"285 -9 OFFCURVE",
"173 -9 CURVE SMOOTH",
"55 -9 OFFCURVE",
"19 54 OFFCURVE",
"19 119 CURVE SMOOTH",
"19 212 OFFCURVE",
"100 252 OFFCURVE",
"165 252 CURVE SMOOTH",
"302 252 LINE",
"302 169 LINE",
"226 169 LINE SMOOTH",
"148 169 OFFCURVE",
"124 155 OFFCURVE",
"124 130 CURVE SMOOTH",
"124 104 OFFCURVE",
"152 102 OFFCURVE",
"179 102 CURVE SMOOTH",
"232 102 OFFCURVE",
"283 110 OFFCURVE",
"288 150 CURVE"
);
},
{
closed = 1;
nodes = (
"681 50 LINE",
"639 12 OFFCURVE",
"572 -12 OFFCURVE",
"509 -12 CURVE SMOOTH",
"379 -12 OFFCURVE",
"274 93 OFFCURVE",
"274 218 CURVE SMOOTH",
"274 345 OFFCURVE",
"381 448 OFFCURVE",
"504 448 CURVE SMOOTH",
"603 448 OFFCURVE",
"686 383 OFFCURVE",
"716 282 CURVE",
"641 256 OFFCURVE",
"501 196 OFFCURVE",
"404 160 CURVE",
"425 125 OFFCURVE",
"463 102 OFFCURVE",
"506 102 CURVE SMOOTH",
"537 102 OFFCURVE",
"575 115 OFFCURVE",
"595 134 CURVE"
);
},
{
closed = 1;
nodes = (
"572 307 LINE",
"560 329 OFFCURVE",
"527 335 OFFCURVE",
"506 335 CURVE SMOOTH",
"440 335 OFFCURVE",
"390 278 OFFCURVE",
"390 224 CURVE SMOOTH",
"390 222 OFFCURVE",
"390 226 OFFCURVE",
"388 232 CURVE",
"446 255 OFFCURVE",
"529 292 OFFCURVE",
"572 307 CURVE"
);
}
);
width = 744;
}
);
unicode = 00E6;
},
{
glyphname = b;
lastChange = "2016-08-26 16:01:03 +0000";
layers = (
{
hints = (
{
horizontal = 1;
place = "{750, -20}";
target = down;
type = TopGhost;
},
{
horizontal = 1;
place = "{-6, 21}";
target = up;
type = BottomGhost;
}
);
layerId = UUID0;
paths = (
{
closed = 1;
nodes = (
"455 188 LINE",
"455 88 OFFCURVE",
"375 8 OFFCURVE",
"275 8 CURVE SMOOTH",
"175 8 OFFCURVE",
"94 88 OFFCURVE",
"94 188 CURVE SMOOTH",
"94 288 OFFCURVE",
"175 369 OFFCURVE",
"275 369 CURVE SMOOTH",
"375 369 OFFCURVE",
"455 288 OFFCURVE",
"455 188 CURVE"
);
},
{
closed = 1;
nodes = (
"469 188 LINE",
"469 296 OFFCURVE",
"383 383 OFFCURVE",
"275 383 CURVE SMOOTH",
"193 383 OFFCURVE",
"123 332 OFFCURVE",
"94 260 CURVE",
"94 298 OFFCURVE",
"94 750 OFFCURVE",
"94 750 CURVE",
"80 750 LINE",
"80 0 LINE",
"94 0 LINE",
"94 54 LINE SMOOTH",
"94 75 OFFCURVE",
"93 96 OFFCURVE",
"93 117 CURVE",
"121 45 OFFCURVE",
"192 -6 OFFCURVE",
"275 -6 CURVE SMOOTH",
"383 -6 OFFCURVE",
"469 80 OFFCURVE",
"469 188 CURVE"
);
}
);
width = 505;
},
{
hints = (
{
horizontal = 1;
place = "{750, -20}";
target = down;
type = TopGhost;
},
{
horizontal = 1;
place = "{-9, 21}";
target = up;
type = BottomGhost;
}
);
layerId = UUID1;
paths = (
{
closed = 1;
nodes = (
"425 219 LINE",
"425 154 OFFCURVE",
"388 102 OFFCURVE",
"316 102 CURVE SMOOTH",
"245 102 OFFCURVE",
"197 153 OFFCURVE",
"197 220 CURVE SMOOTH",
"197 287 OFFCURVE",
"245 335 OFFCURVE",
"316 335 CURVE SMOOTH",
"388 335 OFFCURVE",
"425 287 OFFCURVE",
"425 219 CURVE"
);
},
{
closed = 1;
nodes = (
"552 217 LINE",
"552 364 OFFCURVE",
"463 449 OFFCURVE",
"328 449 CURVE SMOOTH",
"257 449 OFFCURVE",
"215 414 OFFCURVE",
"197 399 CURVE",
"197 409 OFFCURVE",
"197 766 OFFCURVE",
"197 789 CURVE",
"80 789 LINE",
"80 0 LINE",
"197 0 LINE",
"197 25 LINE SMOOTH",
"197 27 OFFCURVE",
"196 28 OFFCURVE",
"196 29 CURVE",
"212 13 OFFCURVE",
"262 -12 OFFCURVE",
"322 -12 CURVE SMOOTH",
"460 -12 OFFCURVE",
"552 84 OFFCURVE",
"552 217 CURVE"
);
}
);
width = 566;
}
);
unicode = 0062;
},
{
glyphname = c;
lastChange = "2016-08-26 16:01:03 +0000";
layers = (
{
hints = (
{
horizontal = 1;
place = "{383, -20}";
target = down;
type = TopGhost;
},
{
horizontal = 1;
place = "{-6, 21}";
target = up;
type = BottomGhost;
}
);
layerId = UUID0;
paths = (
{
closed = 1;
nodes = (
"343 47 LINE",
"346 44 OFFCURVE",
"350 40 OFFCURVE",
"353 37 CURVE",
"319 10 OFFCURVE",
"277 -6 OFFCURVE",
"230 -6 CURVE SMOOTH",
"122 -6 OFFCURVE",
"36 80 OFFCURVE",
"36 188 CURVE SMOOTH",
"36 296 OFFCURVE",
"122 383 OFFCURVE",
"230 383 CURVE SMOOTH",
"277 383 OFFCURVE",
"320 367 OFFCURVE",
"353 340 CURVE",
"350 336 OFFCURVE",
"346 333 OFFCURVE",
"343 329 CURVE",
"312 354 OFFCURVE",
"273 369 OFFCURVE",
"230 369 CURVE SMOOTH",
"130 369 OFFCURVE",
"50 288 OFFCURVE",
"50 188 CURVE SMOOTH",
"50 88 OFFCURVE",
"130 8 OFFCURVE",
"230 8 CURVE SMOOTH",
"273 8 OFFCURVE",
"312 23 OFFCURVE",
"343 47 CURVE"
);
}
);
width = 379;
},
{
hints = (
{
horizontal = 1;
place = "{384, -20}";
target = down;
type = TopGhost;
},
{
horizontal = 1;
place = "{-9, 21}";
target = up;
type = BottomGhost;
}
);
layerId = UUID1;
paths = (
{
closed = 1;
nodes = (
"355 127 LINE",
"380 97 OFFCURVE",
"401 69 OFFCURVE",
"425 39 CURVE",
"386 8 OFFCURVE",
"335 -12 OFFCURVE",
"279 -12 CURVE SMOOTH",
"149 -12 OFFCURVE",
"44 93 OFFCURVE",
"44 219 CURVE SMOOTH",
"44 345 OFFCURVE",
"149 449 OFFCURVE",
"279 449 CURVE SMOOTH",
"337 449 OFFCURVE",
"388 429 OFFCURVE",
"429 398 CURVE",
"405 369 OFFCURVE",
"380 341 OFFCURVE",
"355 311 CURVE",
"336 326 OFFCURVE",
"309 335 OFFCURVE",
"279 335 CURVE SMOOTH",
"207 335 OFFCURVE",
"160 287 OFFCURVE",
"160 219 CURVE SMOOTH",
"160 154 OFFCURVE",
"207 102 OFFCURVE",
"279 102 CURVE SMOOTH",
"310 102 OFFCURVE",
"336 111 OFFCURVE",
"355 127 CURVE"
);
}
);
width = 468;
}
);
unicode = 0063;
},
{
glyphname = ccedilla;
lastChange = "2016-08-26 16:01:03 +0000";
layers = (
{
hints = (
{
horizontal = 1;
place = "{-223, 231}";
},
{
horizontal = 1;
place = "{383, -20}";
target = down;
type = TopGhost;
},
{
horizontal = 1;
place = "{383, -20}";
target = down;
type = TopGhost;
},
{
horizontal = 1;
place = "{-6, 21}";
target = up;
type = BottomGhost;
}
);
layerId = UUID0;
paths = (
{
closed = 1;
nodes = (
"343 47 LINE",
"346 44 OFFCURVE",
"350 40 OFFCURVE",
"353 37 CURVE",
"319 10 OFFCURVE",
"277 -6 OFFCURVE",
"230 -6 CURVE SMOOTH",
"122 -6 OFFCURVE",
"36 80 OFFCURVE",
"36 188 CURVE SMOOTH",
"36 296 OFFCURVE",
"122 383 OFFCURVE",
"230 383 CURVE SMOOTH",
"277 383 OFFCURVE",
"320 367 OFFCURVE",
"353 340 CURVE",
"350 336 OFFCURVE",
"346 333 OFFCURVE",
"343 329 CURVE",
"312 354 OFFCURVE",
"273 369 OFFCURVE",
"230 369 CURVE SMOOTH",
"130 369 OFFCURVE",
"50 288 OFFCURVE",
"50 188 CURVE SMOOTH",
"50 88 OFFCURVE",
"130 8 OFFCURVE",
"230 8 CURVE SMOOTH",
"273 8 OFFCURVE",
"312 23 OFFCURVE",
"343 47 CURVE"
);
},
{
closed = 1;
nodes = (
"213 0 LINE",
"227 0 LINE",
"227 -6 LINE SMOOTH",
"227 -41 OFFCURVE",
"251 -50 OFFCURVE",
"268 -61 CURVE SMOOTH",
"298 -81 OFFCURVE",
"310 -109 OFFCURVE",
"310 -127 CURVE SMOOTH",
"310 -195 OFFCURVE",
"270 -223 OFFCURVE",
"226 -223 CURVE SMOOTH",
"191 -223 OFFCURVE",
"158 -204 OFFCURVE",
"145 -165 CURVE",
"150 -164 OFFCURVE",
"155 -162 OFFCURVE",
"160 -161 CURVE",
"168 -189 OFFCURVE",
"193 -209 OFFCURVE",
"226 -209 CURVE SMOOTH",
"267 -209 OFFCURVE",
"296 -178 OFFCURVE",
"296 -137 CURVE SMOOTH",
"296 -63 OFFCURVE",
"213 -69 OFFCURVE",
"213 -16 CURVE SMOOTH"
);
}
);
width = 379;
},
{
hints = (
{
horizontal = 1;
place = "{-244, 316}";
},
{
horizontal = 1;
place = "{384, -20}";
target = down;
type = TopGhost;
},
{
horizontal = 1;
place = "{384, -20}";
target = down;
type = TopGhost;
},
{
horizontal = 1;
place = "{-9, 21}";
target = up;
type = BottomGhost;
}
);
layerId = UUID1;
paths = (
{
closed = 1;
nodes = (
"355 127 LINE",
"380 97 OFFCURVE",
"401 69 OFFCURVE",
"425 39 CURVE",
"386 8 OFFCURVE",
"335 -12 OFFCURVE",
"279 -12 CURVE SMOOTH",
"149 -12 OFFCURVE",
"44 93 OFFCURVE",
"44 219 CURVE SMOOTH",
"44 345 OFFCURVE",
"149 449 OFFCURVE",
"279 449 CURVE SMOOTH",
"337 449 OFFCURVE",
"388 429 OFFCURVE",
"429 398 CURVE",
"405 369 OFFCURVE",
"380 341 OFFCURVE",
"355 311 CURVE",
"336 326 OFFCURVE",
"309 335 OFFCURVE",
"279 335 CURVE SMOOTH",
"207 335 OFFCURVE",
"160 287 OFFCURVE",
"160 219 CURVE SMOOTH",
"160 154 OFFCURVE",
"207 102 OFFCURVE",
"279 102 CURVE SMOOTH",
"310 102 OFFCURVE",
"336 111 OFFCURVE",
"355 127 CURVE"
);
},
{
closed = 1;
nodes = (
"212 0 LINE",
"286 0 LINE",
"286 -8 LINE SMOOTH",
"286 -48 OFFCURVE",
"312 -48 OFFCURVE",
"329 -62 CURVE SMOOTH",
"356 -84 OFFCURVE",
"366 -111 OFFCURVE",
"366 -154 CURVE SMOOTH",
"366 -204 OFFCURVE",
"331 -271 OFFCURVE",
"246 -271 CURVE SMOOTH",
"195 -271 OFFCURVE",
"147 -243 OFFCURVE",
"127 -184 CURVE",
"148 -172 OFFCURVE",
"171 -160 OFFCURVE",
"192 -148 CURVE",
"198 -166 OFFCURVE",
"213 -180 OFFCURVE",
"235 -180 CURVE SMOOTH",
"263 -180 OFFCURVE",
"275 -159 OFFCURVE",
"275 -132 CURVE SMOOTH",
"275 -88 OFFCURVE",
"212 -98 OFFCURVE",
"212 -25 CURVE SMOOTH"
);
}
);
width = 468;
}
);
unicode = 00E7;
},
{
glyphname = d;
lastChange = "2016-08-26 16:01:03 +0000";
layers = (
{
hints = (
{
horizontal = 1;
place = "{-6, 21}";
target = up;
type = BottomGhost;
},
{
horizontal = 1;
place = "{750, -20}";
target = down;
type = TopGhost;
}
);
layerId = UUID0;
paths = (
{
closed = 1;
nodes = (
"50 188 LINE SMOOTH",
"50 88 OFFCURVE",
"130 8 OFFCURVE",
"230 8 CURVE SMOOTH",
"330 8 OFFCURVE",
"411 88 OFFCURVE",
"411 188 CURVE SMOOTH",
"411 288 OFFCURVE",
"330 369 OFFCURVE",
"230 369 CURVE SMOOTH",
"130 369 OFFCURVE",
"50 288 OFFCURVE",
"50 188 CURVE SMOOTH"
);
},
{
closed = 1;
nodes = (
"36 188 LINE SMOOTH",
"36 296 OFFCURVE",
"122 383 OFFCURVE",
"230 383 CURVE SMOOTH",
"312 383 OFFCURVE",
"382 332 OFFCURVE",
"411 260 CURVE",
"411 298 OFFCURVE",
"411 750 OFFCURVE",
"411 750 CURVE",
"425 750 LINE",
"425 0 LINE",
"411 0 LINE",
"411 54 LINE SMOOTH",
"411 75 OFFCURVE",
"412 96 OFFCURVE",
"412 117 CURVE",
"384 45 OFFCURVE",
"313 -6 OFFCURVE",
"230 -6 CURVE SMOOTH",
"122 -6 OFFCURVE",
"36 80 OFFCURVE",
"36 188 CURVE SMOOTH"
);
}
);
width = 505;
},
{
hints = (
{
horizontal = 1;
place = "{-9, 21}";
target = up;
type = BottomGhost;
},
{
horizontal = 1;
place = "{750, -20}";
target = down;
type = TopGhost;
}
);
layerId = UUID1;
paths = (
{
closed = 1;
nodes = (
"160 220 LINE SMOOTH",
"160 153 OFFCURVE",
"208 102 OFFCURVE",
"279 102 CURVE SMOOTH",
"351 102 OFFCURVE",
"398 154 OFFCURVE",
"398 220 CURVE SMOOTH",
"398 286 OFFCURVE",
"351 335 OFFCURVE",
"279 335 CURVE SMOOTH",
"208 335 OFFCURVE",
"160 287 OFFCURVE",
"160 220 CURVE SMOOTH"
);
},
{
closed = 1;
nodes = (
"43 218 LINE SMOOTH",
"43 357 OFFCURVE",
"140 449 OFFCURVE",
"268 449 CURVE SMOOTH",
"354 449 OFFCURVE",
"386 408 OFFCURVE",
"398 399 CURVE",
"398 409 OFFCURVE",
"398 766 OFFCURVE",
"398 789 CURVE",
"515 789 LINE",
"515 0 LINE",
"398 0 LINE",
"398 21 LINE SMOOTH",
"398 24 OFFCURVE",
"401 31 OFFCURVE",
"401 31 CURVE",
"376 18 OFFCURVE",
"341 -12 OFFCURVE",
"265 -12 CURVE SMOOTH",
"121 -12 OFFCURVE",
"43 93 OFFCURVE",
"43 218 CURVE SMOOTH"
);
}
);
width = 595;
}
);
unicode = 0064;
},
{
glyphname = eth;
lastChange = "2016-08-26 16:01:03 +0000";
layers = (
{
components = (
{
name = o;
transform = "{1, 0, 0, 1, 13, 0}";
}
);
hints = (
{
horizontal = 1;
place = "{-6, 21}";
target = up;
type = BottomGhost;
},
{
horizontal = 1;
place = "{726, -20}";
target = down;
type = TopGhost;
}
);
layerId = UUID0;
paths = (
{
closed = 1;
nodes = (
"146 547 LINE",
"171 574 OFFCURVE",
"197 602 OFFCURVE",
"222 629 CURVE",
"193 660 OFFCURVE",
"162 690 OFFCURVE",
"128 717 CURVE",
"130 720 OFFCURVE",
"132 723 OFFCURVE",
"134 726 CURVE",
"167 701 OFFCURVE",
"199 671 OFFCURVE",
"230 637 CURVE",
"253 663 OFFCURVE",
"277 688 OFFCURVE",
"300 714 CURVE",
"303 712 OFFCURVE",
"305 709 OFFCURVE",
"308 707 CURVE",
"284 681 OFFCURVE",
"261 655 OFFCURVE",
"237 629 CURVE",
"347 500 OFFCURVE",
"441 333 OFFCURVE",
"441 188 CURVE SMOOTH",
"441 115 OFFCURVE",
"427 210 OFFCURVE",
"409 295 CURVE",
"392 370 OFFCURVE",
"340 492 OFFCURVE",
"229 620 CURVE",
"204 593 OFFCURVE",
"179 566 OFFCURVE",
"154 539 CURVE",
"151 542 OFFCURVE",
"149 544 OFFCURVE",
"146 547 CURVE"
);
}
);
width = 493;
},
{
components = (
{
name = o;
}
);
hints = (
{
horizontal = 1;
place = "{-6, 21}";
target = up;
type = BottomGhost;
},
{
horizontal = 1;
place = "{738, -20}";
target = down;
type = TopGhost;
}
);
layerId = UUID1;
paths = (
{
closed = 1;
nodes = (
"138 610 LINE",
"159 633 OFFCURVE",
"180 656 OFFCURVE",
"202 679 CURVE",
"168 718 OFFCURVE",
"133 754 OFFCURVE",
"96 785 CURVE",
"119 806 OFFCURVE",
"144 828 OFFCURVE",
"167 849 CURVE",
"203 821 OFFCURVE",
"237 789 OFFCURVE",
"270 754 CURVE",
"288 773 OFFCURVE",
"305 791 OFFCURVE",
"322 811 CURVE",
"344 791 OFFCURVE",
"367 771 OFFCURVE",
"389 751 CURVE",
"369 728 OFFCURVE",
"348 707 OFFCURVE",
"328 684 CURVE",
"421 559 OFFCURVE",
"508 375 OFFCURVE",
"508 227 CURVE SMOOTH",
"508 168 OFFCURVE",
"394 292 OFFCURVE",
"343 436 CURVE",
"324 497 OFFCURVE",
"293 553 OFFCURVE",
"258 606 CURVE",
"241 586 OFFCURVE",
"222 568 OFFCURVE",
"205 549 CURVE",
"183 570 OFFCURVE",
"160 589 OFFCURVE",
"138 610 CURVE"
);
}
);
width = 568;
}
);
unicode = 00F0;
},
{
glyphname = dcroat;
lastChange = "2016-08-26 16:01:03 +0000";
layers = (
{
components = (
{
name = d;
}
);
layerId = UUID0;
paths = (
{
closed = 1;
nodes = (
"211 616 LINE",
"492 616 LINE",
"492 630 LINE",
"211 630 LINE"
);
}
);
width = 505;
},
{
components = (
{
name = d;
}
);
layerId = UUID1;
paths = (
{
closed = 1;
nodes = (
"261 601 LINE",
"569 601 LINE",
"569 700 LINE",
"261 700 LINE"
);
}
);
width = 595;
}
);
unicode = 0111;
},
{
glyphname = e;
lastChange = "2016-08-26 16:01:03 +0000";
layers = (
{
hints = (
{
horizontal = 1;
place = "{384, -20}";
target = down;
type = TopGhost;
},
{
horizontal = 1;
place = "{-9, 21}";
target = up;
type = BottomGhost;
}
);
layerId = UUID0;
paths = (
{
closed = 1;
nodes = (
"364 46 LINE",
"329 14 OFFCURVE",
"282 -6 OFFCURVE",
"230 -6 CURVE SMOOTH",
"122 -6 OFFCURVE",
"36 80 OFFCURVE",
"36 188 CURVE SMOOTH",
"36 296 OFFCURVE",
"122 384 OFFCURVE",
"230 384 CURVE SMOOTH",
"312 384 OFFCURVE",
"370 330 OFFCURVE",
"399 259 CURVE",
"299 218 OFFCURVE",
"163 164 OFFCURVE",
"62 122 CURVE",
"88 55 OFFCURVE",
"153 8 OFFCURVE",
"230 8 CURVE SMOOTH",
"278 8 OFFCURVE",
"321 26 OFFCURVE",
"353 56 CURVE"
);
},
{
closed = 1;
nodes = (
"380 266 LINE",
"352 326 OFFCURVE",
"301 369 OFFCURVE",
"230 369 CURVE SMOOTH",
"130 369 OFFCURVE",
"50 288 OFFCURVE",
"50 188 CURVE SMOOTH",
"50 169 OFFCURVE",
"52 152 OFFCURVE",
"57 135 CURVE",
"155 176 OFFCURVE",
"281 225 OFFCURVE",
"380 266 CURVE"
);
}
);
width = 448;
},
{
hints = (
{
horizontal = 1;
place = "{384, -20}";
target = down;
type = TopGhost;
},
{
horizontal = 1;
place = "{-9, 21}";
target = up;
type = BottomGhost;
}
);
layerId = UUID1;
paths = (
{
closed = 1;
nodes = (
"451 50 LINE",
"409 12 OFFCURVE",
"342 -12 OFFCURVE",
"279 -12 CURVE SMOOTH",
"149 -12 OFFCURVE",
"44 93 OFFCURVE",
"44 218 CURVE SMOOTH",
"44 345 OFFCURVE",
"151 448 OFFCURVE",
"274 448 CURVE SMOOTH",
"373 448 OFFCURVE",
"456 383 OFFCURVE",
"486 282 CURVE",
"411 256 OFFCURVE",
"271 196 OFFCURVE",
"174 160 CURVE",
"195 125 OFFCURVE",
"233 102 OFFCURVE",
"276 102 CURVE SMOOTH",
"307 102 OFFCURVE",
"345 115 OFFCURVE",
"365 134 CURVE"
);
},
{
closed = 1;
nodes = (
"342 307 LINE",
"330 329 OFFCURVE",
"297 335 OFFCURVE",
"276 335 CURVE SMOOTH",
"210 335 OFFCURVE",
"160 278 OFFCURVE",
"160 224 CURVE SMOOTH",
"160 222 OFFCURVE",
"160 226 OFFCURVE",
"158 232 CURVE",
"216 255 OFFCURVE",
"299 292 OFFCURVE",
"342 307 CURVE"
);
}
);
width = 509;
}
);
unicode = 0065;
},
{
glyphname = f;
lastChange = "2016-08-26 16:01:03 +0000";
layers = (
{
hints = (
{
horizontal = 1;
place = "{0, 21}";
target = up;
type = BottomGhost;
},
{
horizontal = 1;
place = "{750, -20}";
target = down;
type = TopGhost;
}
);
layerId = UUID0;
paths = (
{
closed = 1;
nodes = (
"30 358 LINE",
"30 372 LINE",
"95 372 LINE",
"95 518 LINE SMOOTH",
"95 666 OFFCURVE",
"179 746 OFFCURVE",
"280 750 CURVE",
"280 736 LINE",
"189 736 OFFCURVE",
"109 653 OFFCURVE",
"109 522 CURVE SMOOTH",
"109 372 LINE",
"239 372 LINE",
"239 358 LINE",
"109 358 LINE",
"109 0 LINE",
"95 0 LINE",
"95 358 LINE"
);
}
);
width = 280;
},
{
hints = (
{
horizontal = 1;
place = "{0, 21}";
target = up;
type = BottomGhost;
},
{
horizontal = 1;
place = "{751, -20}";
target = down;
type = TopGhost;
}
);
layerId = UUID1;
paths = (
{
closed = 1;
nodes = (
"23 325 LINE",
"23 439 LINE",
"97 439 LINE",
"97 515 LINE SMOOTH",
"97 701 OFFCURVE",
"184 784 OFFCURVE",
"354 789 CURVE",
"354 678 LINE",
"246 670 OFFCURVE",
"214 614 OFFCURVE",
"214 510 CURVE SMOOTH",
"214 439 LINE",
"346 439 LINE",
"346 325 LINE",
"214 325 LINE",
"214 0 LINE",
"97 0 LINE",
"97 325 LINE"
);
}
);
width = 366;
}
);
unicode = 0066;
},
{
glyphname = g;
lastChange = "2016-08-26 16:01:03 +0000";
layers = (
{
hints = (
{
horizontal = 1;
place = "{382, -20}";
target = down;
type = TopGhost;
},
{
horizontal = 1;
place = "{-251, 21}";
target = up;
type = BottomGhost;
}
);
layerId = UUID0;
paths = (
{
closed = 1;
nodes = (
"36 188 LINE SMOOTH",
"36 296 OFFCURVE",
"122 383 OFFCURVE",
"230 383 CURVE SMOOTH",
"312 383 OFFCURVE",
"382 332 OFFCURVE",
"411 260 CURVE",
"411 298 OFFCURVE",
"413 337 OFFCURVE",
"415 375 CURVE",
"425 375 LINE",
"425 -8 LINE SMOOTH",
"425 -94 OFFCURVE",
"385 -180 OFFCURVE",
"231 -180 CURVE SMOOTH",
"184 -180 OFFCURVE",
"131 -170 OFFCURVE",
"63 -103 CURVE",
"72 -93 LINE",
"139 -158 OFFCURVE",
"189 -166 OFFCURVE",
"230 -166 CURVE SMOOTH",
"372 -166 OFFCURVE",
"407 -93 OFFCURVE",
"410 6 CURVE SMOOTH",
"410 19 OFFCURVE",
"410 16 OFFCURVE",
"411 54 CURVE SMOOTH",
"411 58 OFFCURVE",
"412 111 OFFCURVE",
"412 117 CURVE",
"384 45 OFFCURVE",
"313 -6 OFFCURVE",
"230 -6 CURVE SMOOTH",
"122 -6 OFFCURVE",
"36 80 OFFCURVE",
"36 188 CURVE SMOOTH"
);
},
{
closed = 1;
nodes = (
"50 188 LINE SMOOTH",
"50 88 OFFCURVE",
"130 8 OFFCURVE",
"230 8 CURVE SMOOTH",
"330 8 OFFCURVE",
"411 88 OFFCURVE",
"411 188 CURVE SMOOTH",
"411 288 OFFCURVE",
"330 369 OFFCURVE",
"230 369 CURVE SMOOTH",
"130 369 OFFCURVE",
"50 288 OFFCURVE",
"50 188 CURVE SMOOTH"
);
}
);
width = 505;
},
{
hints = (
{
horizontal = 1;
place = "{382, -20}";
target = down;
type = TopGhost;
},
{
horizontal = 1;
place = "{-251, 21}";
target = up;
type = BottomGhost;
}
);
layerId = UUID1;
paths = (
{
closed = 1;
nodes = (
"43 216 LINE SMOOTH",
"43 350 OFFCURVE",
"144 449 OFFCURVE",
"266 449 CURVE SMOOTH",
"360 449 OFFCURVE",
"401 391 OFFCURVE",
"398 402 CURVE",
"398 412 OFFCURVE",
"403 425 OFFCURVE",
"402 437 CURVE",
"515 437 LINE",
"515 30 LINE SMOOTH",
"515 -130 OFFCURVE",
"406 -210 OFFCURVE",
"275 -210 CURVE SMOOTH",
"157 -210 OFFCURVE",
"108 -153 OFFCURVE",
"64 -117 CURVE",
"139 -38 LINE",
"169 -66 OFFCURVE",
"206 -98 OFFCURVE",
"273 -98 CURVE SMOOTH",
"339 -98 OFFCURVE",
"398 -64 OFFCURVE",
"398 2 CURVE SMOOTH",
"398 8 OFFCURVE",
"398 20 OFFCURVE",
"398 22 CURVE SMOOTH",
"398 35 OFFCURVE",
"403 35 OFFCURVE",
"403 41 CURVE",
"381 25 OFFCURVE",
"346 -12 OFFCURVE",
"267 -12 CURVE SMOOTH",
"136 -12 OFFCURVE",
"43 88 OFFCURVE",
"43 216 CURVE SMOOTH"
);
},
{
closed = 1;
nodes = (
"160 220 LINE SMOOTH",
"160 153 OFFCURVE",
"208 102 OFFCURVE",
"279 102 CURVE SMOOTH",
"351 102 OFFCURVE",
"398 154 OFFCURVE",
"398 220 CURVE SMOOTH",
"398 286 OFFCURVE",
"351 335 OFFCURVE",
"279 335 CURVE SMOOTH",
"208 335 OFFCURVE",
"160 287 OFFCURVE",
"160 220 CURVE SMOOTH"
);
}
);
width = 598;
}
);
unicode = 0067;
},
{
glyphname = h;
lastChange = "2016-08-26 16:01:03 +0000";
layers = (
{
hints = (
{
horizontal = 1;
place = "{0, 21}";
target = up;
type = BottomGhost;
},
{
horizontal = 1;
place = "{750, -20}";
target = down;
type = TopGhost;
}
);
layerId = UUID0;
paths = (
{
closed = 1;
nodes = (
"80 750 LINE",
"94 750 LINE",
"94 283 LINE",
"118 339 OFFCURVE",
"181 382 OFFCURVE",
"256 382 CURVE SMOOTH",
"326 382 OFFCURVE",
"370 336 OFFCURVE",
"372 270 CURVE",
"372 0 LINE",
"358 0 LINE",
"358 277 LINE",
"356 325 OFFCURVE",
"321 365 OFFCURVE",
"263 368 CURVE",
"173 368 OFFCURVE",
"94 306 OFFCURVE",
"94 220 CURVE SMOOTH",
"94 0 LINE",
"80 0 LINE"
);
}
);
width = 453;
},
{
hints = (
{
horizontal = 1;
place = "{0, 21}";
target = up;
type = BottomGhost;
},
{
horizontal = 1;
place = "{750, -20}";
target = down;
type = TopGhost;
}
);
layerId = UUID1;
paths = (
{
closed = 1;
nodes = (
"80 789 LINE",
"196 789 LINE",
"196 332 LINE",
"227 402 OFFCURVE",
"276 448 OFFCURVE",
"362 449 CURVE SMOOTH",
"453 450 OFFCURVE",
"514 397 OFFCURVE",
"516 318 CURVE",
"516 0 LINE",
"400 0 LINE",
"400 260 LINE",
"398 299 OFFCURVE",
"375 331 OFFCURVE",
"319 334 CURVE",
"244 334 OFFCURVE",
"196 277 OFFCURVE",
"196 201 CURVE SMOOTH",
"196 0 LINE",
"80 0 LINE"
);
}
);
width = 606;
}
);
unicode = 0068;
},
{
glyphname = hbar;
lastChange = "2016-08-26 16:01:03 +0000";
layers = (
{
components = (
{
name = h;
}
);
hints = (
{
horizontal = 1;
place = "{492, 21}";
target = up;
type = BottomGhost;
},
{
horizontal = 1;
place = "{506, -20}";
target = down;
type = TopGhost;
}
);
layerId = UUID0;
paths = (
{
closed = 1;
nodes = (
"25 571 LINE",
"25 585 LINE",
"255 585 LINE",
"255 571 LINE"
);
}
);
width = 453;
},
{
components = (
{
name = h;
}
);
hints = (
{
horizontal = 1;
place = "{478, 21}";
target = up;
type = BottomGhost;
},
{
horizontal = 1;
place = "{531, -20}";
target = down;
type = TopGhost;
}
);
layerId = UUID1;
paths = (
{
closed = 1;
nodes = (
"15 539 LINE",
"15 616 LINE",
"340 616 LINE",
"340 539 LINE"
);
}
);
width = 606;
}
);
unicode = 0127;
},
{
glyphname = i;
lastChange = "2016-08-26 16:01:03 +0000";
layers = (
{
hints = (
{
horizontal = 1;
place = "{0, 21}";
target = up;
type = BottomGhost;
},
{
horizontal = 1;
place = "{520, -20}";
target = down;
type = TopGhost;
}
);
layerId = UUID0;
paths = (
{
closed = 1;
nodes = (
"67 500 LINE SMOOTH",
"67 511 OFFCURVE",
"76 520 OFFCURVE",
"87 520 CURVE SMOOTH",
"98 520 OFFCURVE",
"107 511 OFFCURVE",
"107 500 CURVE SMOOTH",
"107 489 OFFCURVE",
"98 480 OFFCURVE",
"87 480 CURVE SMOOTH",
"76 480 OFFCURVE",
"67 489 OFFCURVE",
"67 500 CURVE SMOOTH"
);
},
{
closed = 1;
nodes = (
"94 0 LINE",
"80 0 LINE",
"80 375 LINE",
"94 375 LINE"
);
}
);
width = 174;
},
{
hints = (
{
horizontal = 1;
place = "{0, 21}";
target = up;
type = BottomGhost;
},
{
horizontal = 1;
place = "{573, -20}";
target = down;
type = TopGhost;
}
);
layerId = UUID1;
paths = (
{
closed = 1;
nodes = (
"70 612 LINE SMOOTH",
"70 653 OFFCURVE",
"106 683 OFFCURVE",
"140 683 CURVE SMOOTH",
"173 683 OFFCURVE",
"208 653 OFFCURVE",
"208 612 CURVE SMOOTH",
"208 570 OFFCURVE",
"173 542 OFFCURVE",
"140 542 CURVE SMOOTH",
"106 542 OFFCURVE",
"70 570 OFFCURVE",
"70 612 CURVE SMOOTH"
);
},
{
closed = 1;
nodes = (
"196 0 LINE",
"80 0 LINE",
"80 437 LINE",
"196 437 LINE"
);
}
);
width = 276;
}
);
unicode = 0069;
},
{
glyphname = dotlessi;
lastChange = "2016-08-26 16:01:03 +0000";
layers = (
{
hints = (
{
horizontal = 1;
place = "{0, 21}";
target = up;
type = BottomGhost;
},
{
horizontal = 1;
place = "{520, -20}";
target = down;
type = TopGhost;
}
);
layerId = UUID0;
paths = (
{
closed = 1;
nodes = (
"94 0 LINE",
"80 0 LINE",
"80 375 LINE",
"94 375 LINE"
);
}
);
width = 174;
},
{
hints = (
{
horizontal = 1;
place = "{0, 21}";
target = up;
type = BottomGhost;
},
{
horizontal = 1;
place = "{573, -20}";
target = down;
type = TopGhost;
}
);
layerId = UUID1;
paths = (
{
closed = 1;
nodes = (
"196 0 LINE",
"80 0 LINE",
"80 437 LINE",
"196 437 LINE"
);
}
);
width = 276;
}
);
unicode = 0131;
},
{
glyphname = iacute;
lastChange = "2016-08-26 16:01:03 +0000";
layers = (
{
components = (
{
name = acute;
transform = "{1, 0, 0, 1, -20, 0}";
}
);
hints = (
{
horizontal = 1;
place = "{375, -20}";
target = down;
type = TopGhost;
},
{
horizontal = 1;
place = "{0, 21}";
target = up;
type = BottomGhost;
}
);
layerId = UUID0;
paths = (
{
closed = 1;
nodes = (
"94 0 LINE",
"80 0 LINE",
"80 375 LINE",
"94 375 LINE"
);
}
);
width = 256;
},
{
components = (
{
name = acute;
transform = "{1, 0, 0, 1, -20, 0}";
}
);
hints = (
{
horizontal = 1;
place = "{375, -20}";
target = down;
type = TopGhost;
},
{
horizontal = 1;
place = "{0, 21}";
target = up;
type = BottomGhost;
}
);
layerId = UUID1;
paths = (
{
closed = 1;
nodes = (
"196 0 LINE",
"80 0 LINE",
"80 437 LINE",
"196 437 LINE"
);
}
);
width = 194;
}
);
unicode = 00ED;
},
{
glyphname = icircumflex;
lastChange = "2016-08-26 16:01:03 +0000";
layers = (
{
components = (
{
name = asciicircum;
transform = "{1, 0, 0, 1, -144, 0}";
}
);
hints = (
{
horizontal = 1;
place = "{375, -20}";
target = down;
type = TopGhost;
},
{
horizontal = 1;
place = "{0, 21}";
target = up;
type = BottomGhost;
}
);
layerId = UUID0;
paths = (
{
closed = 1;
nodes = (
"94 0 LINE",
"80 0 LINE",
"80 375 LINE",
"94 375 LINE"
);
}
);
width = 174;
},
{
components = (
{
name = asciicircum;
transform = "{1, 0, 0, 1, -97, 0}";
}
);
hints = (
{
horizontal = 1;
place = "{375, -20}";
target = down;
type = TopGhost;
},
{
horizontal = 1;
place = "{0, 21}";
target = up;
type = BottomGhost;
}
);
layerId = UUID1;
paths = (
{
closed = 1;
nodes = (
"196 0 LINE",
"80 0 LINE",
"80 437 LINE",
"196 437 LINE"
);
}
);
width = 271;
}
);
unicode = 00EE;
},
{
glyphname = idieresis;
lastChange = "2016-08-26 16:01:03 +0000";
layers = (
{
components = (
{
name = dieresis;
transform = "{1, 0, 0, 1, -97, 0}";
}
);
hints = (
{
horizontal = 1;
place = "{375, -20}";
target = down;
type = TopGhost;
},
{
horizontal = 1;
place = "{0, 21}";
target = up;
type = BottomGhost;
}
);
layerId = UUID0;
paths = (
{
closed = 1;
nodes = (
"94 0 LINE",
"80 0 LINE",
"80 375 LINE",
"94 375 LINE"
);
}
);
width = 179;
},
{
components = (
{
name = dieresis;
transform = "{1, 0, 0, 1, -59, 0}";
}
);
hints = (
{
horizontal = 1;
place = "{375, -20}";
target = down;
type = TopGhost;
},
{
horizontal = 1;
place = "{0, 21}";
target = up;
type = BottomGhost;
}
);
layerId = UUID1;
paths = (
{
closed = 1;
nodes = (
"196 0 LINE",
"80 0 LINE",
"80 437 LINE",
"196 437 LINE"
);
}
);
width = 271;
}
);
unicode = 00EF;
},
{
glyphname = igrave;
lastChange = "2016-08-26 16:01:03 +0000";
layers = (
{
components = (
{
name = grave;
transform = "{1, 0, 0, 1, 14, 0}";
}
);
hints = (
{
horizontal = 1;
place = "{375, -20}";
target = down;
type = TopGhost;
},
{
horizontal = 1;
place = "{0, 21}";
target = up;
type = BottomGhost;
}
);
layerId = UUID0;
paths = (
{
closed = 1;
nodes = (
"94 0 LINE",
"80 0 LINE",
"80 375 LINE",
"94 375 LINE"
);
}
);
width = 170;
},
{
components = (
{
name = grave;
transform = "{1, 0, 0, 1, 44, 0}";
}
);
hints = (
{
horizontal = 1;
place = "{375, -20}";
target = down;
type = TopGhost;
},
{
horizontal = 1;
place = "{0, 21}";
target = up;
type = BottomGhost;
}
);
layerId = UUID1;
paths = (
{
closed = 1;
nodes = (
"196 0 LINE",
"80 0 LINE",
"80 437 LINE",
"196 437 LINE"
);
}
);
width = 265;
}
);
unicode = 00EC;
},
{
glyphname = j;
lastChange = "2016-08-26 16:01:03 +0000";
layers = (
{
hints = (
{
horizontal = 1;
place = "{-180, 21}";
target = up;
type = BottomGhost;
},
{
horizontal = 1;
place = "{520, -20}";
target = down;
type = TopGhost;
}
);
layerId = UUID0;
paths = (
{
closed = 1;
nodes = (
"67 500 LINE SMOOTH",
"67 511 OFFCURVE",
"76 520 OFFCURVE",
"87 520 CURVE SMOOTH",
"98 520 OFFCURVE",
"107 511 OFFCURVE",
"107 500 CURVE SMOOTH",
"107 489 OFFCURVE",
"98 480 OFFCURVE",
"87 480 CURVE SMOOTH",
"76 480 OFFCURVE",
"67 489 OFFCURVE",
"67 500 CURVE SMOOTH"
);
},
{
closed = 1;
nodes = (
"37 -180 LINE",
"33 -177 OFFCURVE",
"29 -174 OFFCURVE",
"25 -171 CURVE",
"58 -134 OFFCURVE",
"80 -79 OFFCURVE",
"80 -11 CURVE SMOOTH",
"80 375 LINE",
"85 375 OFFCURVE",
"89 375 OFFCURVE",
"94 375 CURVE",
"94 -7 LINE SMOOTH",
"94 -83 OFFCURVE",
"72 -141 OFFCURVE",
"37 -180 CURVE"
);
}
);
width = 174;
},
{
hints = (
{
horizontal = 1;
place = "{-181, 21}";
target = up;
type = BottomGhost;
},
{
horizontal = 1;
place = "{573, -20}";
target = down;
type = TopGhost;
}
);
layerId = UUID1;
paths = (
{
closed = 1;
nodes = (
"73 612 LINE SMOOTH",
"73 653 OFFCURVE",
"108 683 OFFCURVE",
"143 683 CURVE SMOOTH",
"177 683 OFFCURVE",
"211 653 OFFCURVE",
"211 612 CURVE SMOOTH",
"211 570 OFFCURVE",
"177 542 OFFCURVE",
"143 542 CURVE SMOOTH",
"108 542 OFFCURVE",
"73 570 OFFCURVE",
"73 612 CURVE SMOOTH"
);
},
{
closed = 1;
nodes = (
"97 -211 LINE",
"69 -181 OFFCURVE",
"43 -154 OFFCURVE",
"17 -124 CURVE",
"57 -95 OFFCURVE",
"80 -53 OFFCURVE",
"80 8 CURVE SMOOTH",
"80 437 LINE",
"119 437 OFFCURVE",
"157 437 OFFCURVE",
"196 437 CURVE",
"196 2 LINE SMOOTH",
"196 -94 OFFCURVE",
"158 -165 OFFCURVE",
"97 -211 CURVE"
);
}
);
width = 276;
}
);
unicode = 006A;
},
{
glyphname = jcircumflex;
lastChange = "2016-08-26 16:01:03 +0000";
layers = (
{
components = (
{
name = asciicircum;
transform = "{1, 0, 0, 1, -144, -1}";
}
);
hints = (
{
horizontal = 1;
place = "{-180, 21}";
target = up;
type = BottomGhost;
},
{
horizontal = 1;
place = "{520, -20}";
target = down;
type = TopGhost;
}
);
layerId = UUID0;
paths = (
{
closed = 1;
nodes = (
"37 -180 LINE",
"33 -177 OFFCURVE",
"29 -174 OFFCURVE",
"25 -171 CURVE",
"58 -134 OFFCURVE",
"80 -79 OFFCURVE",
"80 -11 CURVE SMOOTH",
"80 375 LINE",
"85 375 OFFCURVE",
"89 375 OFFCURVE",
"94 375 CURVE",
"94 -7 LINE SMOOTH",
"94 -83 OFFCURVE",
"72 -141 OFFCURVE",
"37 -180 CURVE"
);
}
);
width = 174;
},
{
components = (
{
name = asciicircum;
transform = "{1, 0, 0, 1, -101, -1}";
}
);
hints = (
{
horizontal = 1;
place = "{-181, 21}";
target = up;
type = BottomGhost;
},
{
horizontal = 1;
place = "{573, -20}";
target = down;
type = TopGhost;
}
);
layerId = UUID1;
paths = (
{
closed = 1;
nodes = (
"97 -211 LINE",
"69 -181 OFFCURVE",
"43 -154 OFFCURVE",
"17 -124 CURVE",
"57 -95 OFFCURVE",
"80 -53 OFFCURVE",
"80 8 CURVE SMOOTH",
"80 437 LINE",
"119 437 OFFCURVE",
"157 437 OFFCURVE",
"196 437 CURVE",
"196 2 LINE SMOOTH",
"196 -94 OFFCURVE",
"158 -165 OFFCURVE",
"97 -211 CURVE"
);
}
);
width = 276;
}
);
unicode = 0135;
},
{
glyphname = k;
lastChange = "2016-08-26 16:01:03 +0000";
layers = (
{
hints = (
{
horizontal = 1;
place = "{750, -20}";
target = down;
type = TopGhost;
},
{
horizontal = 1;
place = "{0, 21}";
target = up;
type = BottomGhost;
}
);
layerId = UUID0;
paths = (
{
closed = 1;
nodes = (
"317 384 LINE",
"320 381 OFFCURVE",
"323 377 OFFCURVE",
"326 374 CURVE",
"275 326 OFFCURVE",
"231 283 OFFCURVE",
"180 235 CURVE",
"237 157 OFFCURVE",
"295 78 OFFCURVE",
"352 0 CURVE",
"334 0 LINE",
"279 75 OFFCURVE",
"223 150 OFFCURVE",
"168 225 CURVE",
"143 202 OFFCURVE",
"119 178 OFFCURVE",
"94 155 CURVE",
"94 0 LINE",
"80 0 LINE",
"80 750 LINE",
"94 750 LINE",
"94 176 LINE",
"170 247 OFFCURVE",
"241 313 OFFCURVE",
"317 384 CURVE"
);
}
);
width = 388;
},
{
hints = (
{
horizontal = 1;
place = "{750, -20}";
target = down;
type = TopGhost;
},
{
horizontal = 1;
place = "{0, 21}";
target = up;
type = BottomGhost;
}
);
layerId = UUID1;
paths = (
{
closed = 1;
nodes = (
"403 448 LINE",
"426 425 OFFCURVE",
"449 403 OFFCURVE",
"472 380 CURVE",
"421 333 OFFCURVE",
"378 291 OFFCURVE",
"327 244 CURVE",
"387 163 OFFCURVE",
"445 81 OFFCURVE",
"504 0 CURVE",
"371 0 LINE",
"330 56 OFFCURVE",
"287 112 OFFCURVE",
"247 168 CURVE",
"231 153 OFFCURVE",
"212 137 OFFCURVE",
"196 122 CURVE",
"196 0 LINE",
"80 0 LINE",
"80 789 LINE",
"196 789 LINE",
"196 256 LINE",
"268 323 OFFCURVE",
"332 381 OFFCURVE",
"403 448 CURVE"
);
}
);
width = 513;
}
);
unicode = 006B;
},
{
glyphname = l;
lastChange = "2016-08-26 16:01:03 +0000";
layers = (
{
hints = (
{
horizontal = 1;
place = "{750, -20}";
target = down;
type = TopGhost;
},
{
horizontal = 1;
place = "{0, 21}";
target = up;
type = BottomGhost;
}
);
layerId = UUID0;
paths = (
{
closed = 1;
nodes = (
"94 0 LINE",
"80 0 LINE",
"80 750 LINE",
"94 750 LINE"
);
}
);
width = 174;
},
{
hints = (
{
horizontal = 1;
place = "{750, -20}";
target = down;
type = TopGhost;
},
{
horizontal = 1;
place = "{0, 21}";
target = up;
type = BottomGhost;
}
);
layerId = UUID1;
paths = (
{
closed = 1;
nodes = (
"177 0 LINE",
"61 0 LINE",
"61 789 LINE",
"177 789 LINE"
);
}
);
width = 240;
}
);
unicode = 006C;
},
{
glyphname = lslash;
lastChange = "2016-08-26 16:01:03 +0000";
layers = (
{
components = (
{
name = l;
}
);
layerId = UUID0;
paths = (
{
closed = 1;
nodes = (
"23 279 LINE",
"23 293 LINE",
"174 349 LINE",
"174 335 LINE"
);
}
);
width = 174;
},
{
components = (
{
name = l;
}
);
layerId = UUID1;
paths = (
{
closed = 1;
nodes = (
"15 225 LINE",
"15 346 LINE",
"240 413 LINE",
"240 292 LINE"
);
}
);
width = 240;
}
);
unicode = 0142;
},
{
glyphname = m;
lastChange = "2016-08-26 16:01:03 +0000";
layers = (
{
hints = (
{
horizontal = 1;
place = "{0, 21}";
target = up;
type = BottomGhost;
},
{
horizontal = 1;
place = "{382, -20}";
target = down;
type = TopGhost;
}
);
layerId = UUID0;
paths = (
{
closed = 1;
nodes = (
"80 375 LINE",
"90 375 LINE",
"90 375 OFFCURVE",
"91 277 OFFCURVE",
"91 277 CURVE",
"118 339 OFFCURVE",
"181 382 OFFCURVE",
"256 382 CURVE SMOOTH",
"321 382 OFFCURVE",
"364 341 OFFCURVE",
"371 282 CURVE",
"399 341 OFFCURVE",
"461 382 OFFCURVE",
"534 382 CURVE SMOOTH",
"604 382 OFFCURVE",
"648 336 OFFCURVE",
"650 270 CURVE",
"650 0 LINE",
"636 0 LINE",
"636 277 LINE",
"634 325 OFFCURVE",
"599 365 OFFCURVE",
"541 368 CURVE",
"453 368 OFFCURVE",
"376 309 OFFCURVE",
"372 226 CURVE",
"372 0 LINE",
"358 0 LINE",
"358 277 LINE",
"356 325 OFFCURVE",
"321 365 OFFCURVE",
"263 368 CURVE",
"173 368 OFFCURVE",
"94 306 OFFCURVE",
"94 220 CURVE SMOOTH",
"94 0 LINE",
"80 0 LINE"
);
}
);
width = 731;
},
{
hints = (
{
horizontal = 1;
place = "{0, 21}";
target = up;
type = BottomGhost;
},
{
horizontal = 1;
place = "{384, -20}";
target = down;
type = TopGhost;
}
);
layerId = UUID1;
paths = (
{
closed = 1;
nodes = (
"98 437 LINE",
"201 437 LINE",
"204 378 OFFCURVE",
"208 373 OFFCURVE",
"211 326 CURVE",
"244 400 OFFCURVE",
"283 448 OFFCURVE",
"371 449 CURVE SMOOTH",
"458 449 OFFCURVE",
"514 401 OFFCURVE",
"523 332 CURVE",
"558 402 OFFCURVE",
"595 448 OFFCURVE",
"681 449 CURVE SMOOTH",
"774 449 OFFCURVE",
"833 395 OFFCURVE",
"835 318 CURVE",
"835 0 LINE",
"718 0 LINE",
"718 260 LINE",
"716 299 OFFCURVE",
"695 331 OFFCURVE",
"637 334 CURVE",
"562 334 OFFCURVE",
"524 277 OFFCURVE",
"524 199 CURVE",
"524 0 LINE",
"408 0 LINE",
"408 260 LINE",
"406 299 OFFCURVE",
"383 331 OFFCURVE",
"327 334 CURVE",
"252 334 OFFCURVE",
"214 277 OFFCURVE",
"214 201 CURVE SMOOTH",
"214 0 LINE",
"98 0 LINE"
);
}
);
width = 925;
}
);
unicode = 006D;
},
{
glyphname = n;
lastChange = "2016-08-26 16:01:03 +0000";
layers = (
{
hints = (
{
horizontal = 1;
place = "{0, 21}";
target = up;
type = BottomGhost;
},
{
horizontal = 1;
place = "{382, -20}";
target = down;
type = TopGhost;
}
);
layerId = UUID0;
paths = (
{
closed = 1;
nodes = (
"80 375 LINE",
"90 375 LINE",
"90 375 OFFCURVE",
"91 277 OFFCURVE",
"91 277 CURVE",
"118 339 OFFCURVE",
"181 382 OFFCURVE",
"256 382 CURVE SMOOTH",
"326 382 OFFCURVE",
"370 336 OFFCURVE",
"372 270 CURVE",
"372 0 LINE",
"358 0 LINE",
"358 277 LINE",
"356 325 OFFCURVE",
"321 365 OFFCURVE",
"263 368 CURVE",
"173 368 OFFCURVE",
"94 306 OFFCURVE",
"94 220 CURVE SMOOTH",
"94 0 LINE",
"80 0 LINE"
);
}
);
width = 453;
},
{
hints = (
{
horizontal = 1;
place = "{0, 21}";
target = up;
type = BottomGhost;
},
{
horizontal = 1;
place = "{384, -20}";
target = down;
type = TopGhost;
}
);
layerId = UUID1;
paths = (
{
closed = 1;
nodes = (
"80 437 LINE",
"183 437 LINE",
"186 378 OFFCURVE",
"190 373 OFFCURVE",
"193 326 CURVE",
"225 400 OFFCURVE",
"279 449 OFFCURVE",
"365 449 CURVE SMOOTH",
"455 449 OFFCURVE",
"514 395 OFFCURVE",
"516 318 CURVE",
"516 0 LINE",
"400 0 LINE",
"400 260 LINE",
"398 299 OFFCURVE",
"375 331 OFFCURVE",
"319 334 CURVE",
"244 334 OFFCURVE",
"196 277 OFFCURVE",
"196 201 CURVE SMOOTH",
"196 0 LINE",
"80 0 LINE"
);
}
);
width = 616;
}
);
unicode = 006E;
},
{
glyphname = o;
lastChange = "2016-08-26 16:01:03 +0000";
layers = (
{
hints = (
{
horizontal = 1;
place = "{-6, 21}";
target = up;
type = BottomGhost;
},
{
horizontal = 1;
place = "{384, -20}";
target = down;
type = TopGhost;
}
);
layerId = UUID0;
paths = (
{
closed = 1;
nodes = (
"36 188 LINE",
"36 296 OFFCURVE",
"122 384 OFFCURVE",
"230 384 CURVE SMOOTH",
"338 384 OFFCURVE",
"426 296 OFFCURVE",
"426 188 CURVE SMOOTH",
"426 80 OFFCURVE",
"338 -6 OFFCURVE",
"230 -6 CURVE SMOOTH",
"122 -6 OFFCURVE",
"36 80 OFFCURVE",
"36 188 CURVE"
);
},
{
closed = 1;
nodes = (
"50 188 LINE",
"50 88 OFFCURVE",
"130 8 OFFCURVE",
"230 8 CURVE SMOOTH",
"330 8 OFFCURVE",
"411 88 OFFCURVE",
"411 188 CURVE SMOOTH",
"411 288 OFFCURVE",
"330 369 OFFCURVE",
"230 369 CURVE SMOOTH",
"130 369 OFFCURVE",
"50 288 OFFCURVE",
"50 188 CURVE"
);
}
);
width = 462;
},
{
hints = (
{
horizontal = 1;
place = "{-9, 21}";
target = up;
type = BottomGhost;
},
{
horizontal = 1;
place = "{384, -20}";
target = down;
type = TopGhost;
}
);
layerId = UUID1;
paths = (
{
closed = 1;
nodes = (
"43 219 LINE",
"43 345 OFFCURVE",
"148 448 OFFCURVE",
"279 448 CURVE SMOOTH",
"412 448 OFFCURVE",
"509 345 OFFCURVE",
"509 219 CURVE SMOOTH",
"509 93 OFFCURVE",
"413 -12 OFFCURVE",
"277 -12 CURVE SMOOTH",
"149 -12 OFFCURVE",
"43 79 OFFCURVE",
"43 219 CURVE"
);
},
{
closed = 1;
nodes = (
"159 218 LINE",
"159 154 OFFCURVE",
"210 102 OFFCURVE",
"275 102 CURVE SMOOTH",
"339 102 OFFCURVE",
"392 154 OFFCURVE",
"392 218 CURVE SMOOTH",
"392 282 OFFCURVE",
"339 335 OFFCURVE",
"275 335 CURVE SMOOTH",
"210 335 OFFCURVE",
"159 282 OFFCURVE",
"159 218 CURVE"
);
}
);
width = 553;
}
);
unicode = 006F;
},
{
glyphname = oslash;
lastChange = "2016-08-26 16:01:03 +0000";
layers = (
{
components = (
{
name = o;
}
);
hints = (
{
horizontal = 1;
place = "{-8, 21}";
target = up;
type = BottomGhost;
},
{
horizontal = 1;
place = "{383, -20}";
target = down;
type = TopGhost;
}
);
layerId = UUID0;
paths = (
{
closed = 1;
nodes = (
"63 10 LINE",
"132 92 OFFCURVE",
"300 293 OFFCURVE",
"369 375 CURVE",
"378 366 LINE",
"309 283 OFFCURVE",
"140 83 OFFCURVE",
"71 0 CURVE"
);
}
);
width = 468;
},
{
components = (
{
name = o;
}
);
hints = (
{
horizontal = 1;
place = "{-26, 21}";
target = up;
type = BottomGhost;
},
{
horizontal = 1;
place = "{401, -20}";
target = down;
type = TopGhost;
}
);
layerId = UUID1;
paths = (
{
closed = 1;
nodes = (
"36 14 LINE",
"80 65 OFFCURVE",
"398 423 OFFCURVE",
"442 474 CURVE",
"502 426 LINE",
"457 374 OFFCURVE",
"138 15 OFFCURVE",
"93 -37 CURVE"
);
}
);
width = 546;
}
);
unicode = 00F8;
},
{
glyphname = oe;
lastChange = "2016-08-26 16:01:03 +0000";
layers = (
{
hints = (
{
horizontal = 1;
place = "{384, -20}";
target = down;
type = TopGhost;
},
{
horizontal = 1;
place = "{-9, 21}";
target = up;
type = BottomGhost;
},
{
horizontal = 1;
place = "{-6, 21}";
target = up;
type = BottomGhost;
},
{
horizontal = 1;
place = "{384, -20}";
target = down;
type = TopGhost;
}
);
layerId = UUID0;
paths = (
{
closed = 1;
nodes = (
"347 32 LINE",
"314 8 OFFCURVE",
"274 -6 OFFCURVE",
"230 -6 CURVE SMOOTH",
"122 -6 OFFCURVE",
"36 80 OFFCURVE",
"36 188 CURVE SMOOTH",
"36 296 OFFCURVE",
"122 384 OFFCURVE",
"230 384 CURVE SMOOTH",
"273 384 OFFCURVE",
"313 370 OFFCURVE",
"345 347 CURVE",
"333 337 LINE",
"304 357 OFFCURVE",
"268 369 OFFCURVE",
"230 369 CURVE SMOOTH",
"130 369 OFFCURVE",
"50 288 OFFCURVE",
"50 188 CURVE SMOOTH",
"50 88 OFFCURVE",
"130 8 OFFCURVE",
"230 8 CURVE SMOOTH",
"268 8 OFFCURVE",
"304 20 OFFCURVE",
"333 40 CURVE"
);
},
{
closed = 1;
nodes = (
"584 46 LINE",
"549 14 OFFCURVE",
"502 -6 OFFCURVE",
"450 -6 CURVE SMOOTH",
"342 -6 OFFCURVE",
"256 80 OFFCURVE",
"256 188 CURVE SMOOTH",
"256 296 OFFCURVE",
"342 384 OFFCURVE",
"450 384 CURVE SMOOTH",
"532 384 OFFCURVE",
"590 330 OFFCURVE",
"619 259 CURVE",
"519 218 OFFCURVE",
"383 164 OFFCURVE",
"282 122 CURVE",
"308 55 OFFCURVE",
"373 8 OFFCURVE",
"450 8 CURVE SMOOTH",
"498 8 OFFCURVE",
"541 26 OFFCURVE",
"573 56 CURVE"
);
},
{
closed = 1;
nodes = (
"600 266 LINE",
"572 326 OFFCURVE",
"521 369 OFFCURVE",
"450 369 CURVE SMOOTH",
"350 369 OFFCURVE",
"270 288 OFFCURVE",
"270 188 CURVE SMOOTH",
"270 169 OFFCURVE",
"272 152 OFFCURVE",
"277 135 CURVE",
"375 176 OFFCURVE",
"501 225 OFFCURVE",
"600 266 CURVE"
);
}
);
width = 653;
},
{
hints = (
{
horizontal = 1;
place = "{384, -20}";
target = down;
type = TopGhost;
},
{
horizontal = 1;
place = "{-9, 21}";
target = up;
type = BottomGhost;
},
{
horizontal = 1;
place = "{-9, 21}";
target = up;
type = BottomGhost;
},
{
horizontal = 1;
place = "{384, -20}";
target = down;
type = TopGhost;
}
);
layerId = UUID1;
paths = (
{
closed = 1;
nodes = (
"419 34 LINE",
"381 5 OFFCURVE",
"332 -12 OFFCURVE",
"277 -12 CURVE SMOOTH",
"149 -12 OFFCURVE",
"43 79 OFFCURVE",
"43 219 CURVE SMOOTH",
"43 345 OFFCURVE",
"148 448 OFFCURVE",
"279 448 CURVE SMOOTH",
"332 448 OFFCURVE",
"379 431 OFFCURVE",
"417 404 CURVE",
"341 314 LINE",
"322 327 OFFCURVE",
"299 335 OFFCURVE",
"275 335 CURVE SMOOTH",
"210 335 OFFCURVE",
"159 282 OFFCURVE",
"159 218 CURVE SMOOTH",
"159 154 OFFCURVE",
"210 102 OFFCURVE",
"275 102 CURVE SMOOTH",
"299 102 OFFCURVE",
"322 109 OFFCURVE",
"341 122 CURVE"
);
},
{
closed = 1;
nodes = (
"711 50 LINE",
"669 12 OFFCURVE",
"602 -12 OFFCURVE",
"539 -12 CURVE SMOOTH",
"409 -12 OFFCURVE",
"304 93 OFFCURVE",
"304 218 CURVE SMOOTH",
"304 345 OFFCURVE",
"411 448 OFFCURVE",
"534 448 CURVE SMOOTH",
"633 448 OFFCURVE",
"716 383 OFFCURVE",
"746 282 CURVE",
"671 256 OFFCURVE",
"531 196 OFFCURVE",
"434 160 CURVE",
"455 125 OFFCURVE",
"493 102 OFFCURVE",
"536 102 CURVE SMOOTH",
"567 102 OFFCURVE",
"605 115 OFFCURVE",
"625 134 CURVE"
);
},
{
closed = 1;
nodes = (
"602 307 LINE",
"590 329 OFFCURVE",
"557 335 OFFCURVE",
"536 335 CURVE SMOOTH",
"470 335 OFFCURVE",
"420 278 OFFCURVE",
"420 224 CURVE SMOOTH",
"420 222 OFFCURVE",
"420 226 OFFCURVE",
"418 232 CURVE",
"476 255 OFFCURVE",
"559 292 OFFCURVE",
"602 307 CURVE"
);
}
);
width = 779;
}
);
unicode = 0153;
},
{
glyphname = p;
lastChange = "2016-08-26 16:01:03 +0000";
layers = (
{
hints = (
{
horizontal = 1;
place = "{381, -20}";
target = down;
type = TopGhost;
},
{
horizontal = 1;
place = "{-250, 21}";
target = up;
type = BottomGhost;
}
);
layerId = UUID0;
paths = (
{
closed = 1;
nodes = (
"455 188 LINE SMOOTH",
"455 88 OFFCURVE",
"375 8 OFFCURVE",
"275 8 CURVE SMOOTH",
"175 8 OFFCURVE",
"94 88 OFFCURVE",
"94 188 CURVE SMOOTH",
"94 288 OFFCURVE",
"175 369 OFFCURVE",
"275 369 CURVE SMOOTH",
"375 369 OFFCURVE",
"455 288 OFFCURVE",
"455 188 CURVE SMOOTH"
);
},
{
closed = 1;
nodes = (
"469 188 LINE SMOOTH",
"469 296 OFFCURVE",
"383 383 OFFCURVE",
"275 383 CURVE SMOOTH",
"193 383 OFFCURVE",
"123 332 OFFCURVE",
"94 260 CURVE",
"94 298 OFFCURVE",
"94 375 OFFCURVE",
"94 375 CURVE",
"80 375 LINE",
"80 -180 LINE",
"94 -180 LINE",
"94 54 LINE SMOOTH",
"94 75 OFFCURVE",
"93 96 OFFCURVE",
"93 117 CURVE",
"121 45 OFFCURVE",
"192 -6 OFFCURVE",
"275 -6 CURVE SMOOTH",
"383 -6 OFFCURVE",
"469 80 OFFCURVE",
"469 188 CURVE SMOOTH"
);
}
);
width = 505;
},
{
hints = (
{
horizontal = 1;
place = "{382, -20}";
target = down;
type = TopGhost;
},
{
horizontal = 1;
place = "{-250, 21}";
target = up;
type = BottomGhost;
}
);
layerId = UUID1;
paths = (
{
closed = 1;
nodes = (
"425 219 LINE SMOOTH",
"425 154 OFFCURVE",
"388 102 OFFCURVE",
"316 102 CURVE SMOOTH",
"245 102 OFFCURVE",
"197 153 OFFCURVE",
"197 220 CURVE SMOOTH",
"197 287 OFFCURVE",
"245 335 OFFCURVE",
"316 335 CURVE SMOOTH",
"388 335 OFFCURVE",
"425 287 OFFCURVE",
"425 219 CURVE SMOOTH"
);
},
{
closed = 1;
nodes = (
"552 217 LINE SMOOTH",
"552 364 OFFCURVE",
"463 449 OFFCURVE",
"328 449 CURVE SMOOTH",
"257 449 OFFCURVE",
"215 414 OFFCURVE",
"197 399 CURVE",
"197 409 OFFCURVE",
"192 414 OFFCURVE",
"192 437 CURVE",
"80 437 LINE",
"80 -210 LINE",
"197 -210 LINE",
"197 25 LINE SMOOTH",
"197 27 OFFCURVE",
"196 28 OFFCURVE",
"196 29 CURVE",
"212 13 OFFCURVE",
"262 -12 OFFCURVE",
"322 -12 CURVE SMOOTH",
"460 -12 OFFCURVE",
"552 84 OFFCURVE",
"552 217 CURVE SMOOTH"
);
}
);
width = 625;
}
);
unicode = 0070;
},
{
glyphname = thorn;
lastChange = "2016-08-26 16:01:03 +0000";
layers = (
{
hints = (
{
horizontal = 1;
place = "{750, -20}";
target = down;
type = TopGhost;
},
{
horizontal = 1;
place = "{-250, 21}";
target = up;
type = BottomGhost;
},
{
horizontal = 1;
place = "{381, -20}";
target = down;
type = TopGhost;
},
{
horizontal = 1;
place = "{-250, 21}";
target = up;
type = BottomGhost;
}
);
layerId = UUID0;
paths = (
{
closed = 1;
nodes = (
"455 188 LINE SMOOTH",
"455 88 OFFCURVE",
"375 8 OFFCURVE",
"275 8 CURVE SMOOTH",
"175 8 OFFCURVE",
"94 88 OFFCURVE",
"94 188 CURVE SMOOTH",
"94 288 OFFCURVE",
"175 369 OFFCURVE",
"275 369 CURVE SMOOTH",
"375 369 OFFCURVE",
"455 288 OFFCURVE",
"455 188 CURVE SMOOTH"
);
},
{
closed = 1;
nodes = (
"469 188 LINE SMOOTH",
"469 296 OFFCURVE",
"383 383 OFFCURVE",
"275 383 CURVE SMOOTH",
"193 383 OFFCURVE",
"123 332 OFFCURVE",
"94 260 CURVE",
"94 298 OFFCURVE",
"94 750 OFFCURVE",
"94 750 CURVE",
"80 750 LINE",
"80 -180 LINE",
"94 -180 LINE",
"94 54 LINE SMOOTH",
"94 75 OFFCURVE",
"93 96 OFFCURVE",
"93 117 CURVE",
"121 45 OFFCURVE",
"192 -6 OFFCURVE",
"275 -6 CURVE SMOOTH",
"383 -6 OFFCURVE",
"469 80 OFFCURVE",
"469 188 CURVE SMOOTH"
);
}
);
width = 505;
},
{
hints = (
{
horizontal = 1;
place = "{750, -20}";
target = down;
type = TopGhost;
},
{
horizontal = 1;
place = "{-250, 21}";
target = up;
type = BottomGhost;
},
{
horizontal = 1;
place = "{382, -20}";
target = down;
type = TopGhost;
},
{
horizontal = 1;
place = "{-250, 21}";
target = up;
type = BottomGhost;
}
);
layerId = UUID1;
paths = (
{
closed = 1;
nodes = (
"425 219 LINE SMOOTH",
"425 154 OFFCURVE",
"388 102 OFFCURVE",
"316 102 CURVE SMOOTH",
"245 102 OFFCURVE",
"197 153 OFFCURVE",
"197 220 CURVE SMOOTH",
"197 287 OFFCURVE",
"245 335 OFFCURVE",
"316 335 CURVE SMOOTH",
"388 335 OFFCURVE",
"425 287 OFFCURVE",
"425 219 CURVE SMOOTH"
);
},
{
closed = 1;
nodes = (
"552 217 LINE SMOOTH",
"552 364 OFFCURVE",
"463 449 OFFCURVE",
"328 449 CURVE SMOOTH",
"257 449 OFFCURVE",
"215 414 OFFCURVE",
"197 399 CURVE",
"197 409 OFFCURVE",
"197 766 OFFCURVE",
"197 789 CURVE",
"80 789 LINE",
"80 -210 LINE",
"197 -210 LINE",
"197 25 LINE SMOOTH",
"197 27 OFFCURVE",
"196 28 OFFCURVE",
"196 29 CURVE",
"212 13 OFFCURVE",
"262 -12 OFFCURVE",
"322 -12 CURVE SMOOTH",
"460 -12 OFFCURVE",
"552 84 OFFCURVE",
"552 217 CURVE SMOOTH"
);
}
);
width = 625;
}
);
unicode = 00FE;
},
{
glyphname = q;
lastChange = "2016-08-26 16:01:03 +0000";
layers = (
{
hints = (
{
horizontal = 1;
place = "{-250, 21}";
target = up;
type = BottomGhost;
},
{
horizontal = 1;
place = "{381, -20}";
target = down;
type = TopGhost;
}
);
layerId = UUID0;
paths = (
{
closed = 1;
nodes = (
"50 188 LINE SMOOTH",
"50 88 OFFCURVE",
"130 8 OFFCURVE",
"230 8 CURVE SMOOTH",
"330 8 OFFCURVE",
"411 88 OFFCURVE",
"411 188 CURVE SMOOTH",
"411 288 OFFCURVE",
"330 369 OFFCURVE",
"230 369 CURVE SMOOTH",
"130 369 OFFCURVE",
"50 288 OFFCURVE",
"50 188 CURVE SMOOTH"
);
},
{
closed = 1;
nodes = (
"36 188 LINE SMOOTH",
"36 296 OFFCURVE",
"122 383 OFFCURVE",
"230 383 CURVE SMOOTH",
"312 383 OFFCURVE",
"382 332 OFFCURVE",
"411 260 CURVE",
"411 298 OFFCURVE",
"411 375 OFFCURVE",
"411 375 CURVE",
"425 375 LINE",
"425 -180 LINE",
"411 -180 LINE",
"411 54 LINE SMOOTH",
"411 75 OFFCURVE",
"412 96 OFFCURVE",
"412 117 CURVE",
"384 45 OFFCURVE",
"313 -6 OFFCURVE",
"230 -6 CURVE SMOOTH",
"122 -6 OFFCURVE",
"36 80 OFFCURVE",
"36 188 CURVE SMOOTH"
);
}
);
width = 505;
},
{
hints = (
{
horizontal = 1;
place = "{-250, 21}";
target = up;
type = BottomGhost;
},
{
horizontal = 1;
place = "{382, -20}";
target = down;
type = TopGhost;
}
);
layerId = UUID1;
paths = (
{
closed = 1;
nodes = (
"160 220 LINE SMOOTH",
"160 153 OFFCURVE",
"208 102 OFFCURVE",
"279 102 CURVE SMOOTH",
"351 102 OFFCURVE",
"398 154 OFFCURVE",
"398 220 CURVE SMOOTH",
"398 286 OFFCURVE",
"351 335 OFFCURVE",
"279 335 CURVE SMOOTH",
"208 335 OFFCURVE",
"160 287 OFFCURVE",
"160 220 CURVE SMOOTH"
);
},
{
closed = 1;
nodes = (
"43 218 LINE SMOOTH",
"43 357 OFFCURVE",
"140 449 OFFCURVE",
"268 449 CURVE SMOOTH",
"354 449 OFFCURVE",
"386 408 OFFCURVE",
"398 399 CURVE",
"398 409 OFFCURVE",
"403 414 OFFCURVE",
"403 437 CURVE",
"515 437 LINE",
"515 -210 LINE",
"398 -210 LINE",
"398 21 LINE SMOOTH",
"398 24 OFFCURVE",
"401 31 OFFCURVE",
"401 31 CURVE",
"376 18 OFFCURVE",
"341 -12 OFFCURVE",
"265 -12 CURVE SMOOTH",
"121 -12 OFFCURVE",
"43 93 OFFCURVE",
"43 218 CURVE SMOOTH"
);
}
);
width = 600;
}
);
unicode = 0071;
},
{
glyphname = r;
lastChange = "2016-08-26 16:01:03 +0000";
layers = (
{
hints = (
{
horizontal = 1;
place = "{382, -20}";
target = down;
type = TopGhost;
},
{
horizontal = 1;
place = "{0, 21}";
target = up;
type = BottomGhost;
}
);
layerId = UUID0;
paths = (
{
closed = 1;
nodes = (
"257 368 LINE",
"170 365 OFFCURVE",
"94 304 OFFCURVE",
"94 220 CURVE SMOOTH",
"94 0 LINE",
"80 0 LINE",
"80 375 LINE",
"90 375 LINE",
"90 375 OFFCURVE",
"91 277 OFFCURVE",
"91 277 CURVE",
"119 341 OFFCURVE",
"182 380 OFFCURVE",
"257 382 CURVE"
);
}
);
width = 290;
},
{
hints = (
{
horizontal = 1;
place = "{383, -20}";
target = down;
type = TopGhost;
},
{
horizontal = 1;
place = "{0, 21}";
target = up;
type = BottomGhost;
}
);
layerId = UUID1;
paths = (
{
closed = 1;
nodes = (
"333 298 LINE",
"263 299 OFFCURVE",
"196 267 OFFCURVE",
"196 191 CURVE SMOOTH",
"196 0 LINE",
"80 0 LINE",
"80 437 LINE",
"183 437 LINE",
"186 378 OFFCURVE",
"190 373 OFFCURVE",
"193 326 CURVE",
"231 403 OFFCURVE",
"325 449 OFFCURVE",
"360 449 CURVE"
);
}
);
width = 376;
}
);
unicode = 0072;
},
{
glyphname = s;
lastChange = "2016-08-26 16:01:03 +0000";
layers = (
{
hints = (
{
place = "{99, 215}";
},
{
horizontal = 1;
place = "{379, -20}";
target = down;
type = TopGhost;
},
{
horizontal = 1;
place = "{-8, 21}";
target = up;
type = BottomGhost;
}
);
layerId = UUID0;
paths = (
{
closed = 1;
nodes = (
"244 336 LINE",
"241 333 OFFCURVE",
"237 329 OFFCURVE",
"234 326 CURVE",
"212 353 OFFCURVE",
"171 365 OFFCURVE",
"144 365 CURVE SMOOTH",
"109 365 OFFCURVE",
"58 343 OFFCURVE",
"58 287 CURVE SMOOTH",
"58 176 OFFCURVE",
"259 224 OFFCURVE",
"259 100 CURVE SMOOTH",
"259 44 OFFCURVE",
"219 -8 OFFCURVE",
"144 -8 CURVE SMOOTH",
"108 -8 OFFCURVE",
"58 4 OFFCURVE",
"30 39 CURVE",
"34 42 OFFCURVE",
"37 45 OFFCURVE",
"41 48 CURVE",
"58 23 OFFCURVE",
"114 6 OFFCURVE",
"145 6 CURVE SMOOTH",
"178 6 OFFCURVE",
"245 27 OFFCURVE",
"245 96 CURVE SMOOTH",
"245 215 OFFCURVE",
"44 162 OFFCURVE",
"44 286 CURVE SMOOTH",
"44 349 OFFCURVE",
"95 379 OFFCURVE",
"144 379 CURVE SMOOTH",
"173 379 OFFCURVE",
"216 368 OFFCURVE",
"244 336 CURVE"
);
}
);
width = 289;
},
{
hints = (
{
place = "{62, 243}";
},
{
horizontal = 1;
place = "{384, -20}";
target = down;
type = TopGhost;
},
{
horizontal = 1;
place = "{-8, 21}";
target = up;
type = BottomGhost;
}
);
layerId = UUID1;
paths = (
{
closed = 1;
nodes = (
"338 400 LINE",
"317 371 OFFCURVE",
"278 319 OFFCURVE",
"278 319 CURVE",
"285 312 OFFCURVE",
"255 336 OFFCURVE",
"217 336 CURVE SMOOTH",
"201 336 OFFCURVE",
"182 333 OFFCURVE",
"182 315 CURVE SMOOTH",
"182 256 OFFCURVE",
"355 264 OFFCURVE",
"355 128 CURVE SMOOTH",
"355 47 OFFCURVE",
"293 -9 OFFCURVE",
"199 -9 CURVE SMOOTH",
"140 -9 OFFCURVE",
"82 13 OFFCURVE",
"52 46 CURVE",
"76 73 OFFCURVE",
"122 133 OFFCURVE",
"122 131 CURVE",
"117 139 OFFCURVE",
"152 104 OFFCURVE",
"198 104 CURVE SMOOTH",
"230 104 OFFCURVE",
"238 120 OFFCURVE",
"238 129 CURVE SMOOTH",
"238 179 OFFCURVE",
"64 164 OFFCURVE",
"64 314 CURVE SMOOTH",
"64 416 OFFCURVE",
"149 449 OFFCURVE",
"212 449 CURVE SMOOTH",
"256 449 OFFCURVE",
"307 431 OFFCURVE",
"338 400 CURVE"
);
}
);
width = 414;
}
);
unicode = 0073;
},
{
glyphname = germandbls;
lastChange = "2016-08-26 16:01:03 +0000";
layers = (
{
hints = (
{
place = "{407, 78}";
},
{
horizontal = 1;
place = "{-8, 21}";
target = up;
type = BottomGhost;
},
{
horizontal = 1;
place = "{658, -20}";
target = down;
type = TopGhost;
}
);
layerId = UUID0;
paths = (
{
closed = 1;
nodes = (
"174 22 LINE",
"176 26 OFFCURVE",
"178 29 OFFCURVE",
"180 33 CURVE",
"208 15 OFFCURVE",
"242 5 OFFCURVE",
"278 5 CURVE SMOOTH",
"384 5 OFFCURVE",
"471 93 OFFCURVE",
"471 195 CURVE SMOOTH",
"471 296 OFFCURVE",
"386 381 OFFCURVE",
"281 381 CURVE",
"281 381 LINE",
"281 383 OFFCURVE",
"281 385 OFFCURVE",
"281 388 CURVE SMOOTH",
"281 396 LINE",
"350 396 OFFCURVE",
"407 442 OFFCURVE",
"407 515 CURVE SMOOTH",
"407 580 OFFCURVE",
"363 644 OFFCURVE",
"271 644 CURVE SMOOTH",
"165 644 OFFCURVE",
"110 559 OFFCURVE",
"110 430 CURVE SMOOTH",
"110 0 LINE",
"96 0 LINE",
"96 370 LINE",
"31 370 LINE",
"31 384 LINE",
"96 384 LINE",
"96 426 LINE SMOOTH",
"96 574 OFFCURVE",
"160 654 OFFCURVE",
"261 658 CURVE",
"386 656 OFFCURVE",
"421 587 OFFCURVE",
"421 520 CURVE SMOOTH",
"421 453 OFFCURVE",
"385 410 OFFCURVE",
"329 389 CURVE",
"418 368 OFFCURVE",
"485 290 OFFCURVE",
"485 195 CURVE SMOOTH",
"485 83 OFFCURVE",
"392 -8 OFFCURVE",
"280 -8 CURVE SMOOTH",
"241 -8 OFFCURVE",
"205 3 OFFCURVE",
"174 22 CURVE"
);
}
);
width = 530;
},
{
hints = (
{
place = "{360, 142}";
},
{
horizontal = 1;
place = "{-9, 21}";
target = up;
type = BottomGhost;
},
{
horizontal = 1;
place = "{657, -20}";
target = down;
type = TopGhost;
}
);
layerId = UUID1;
paths = (
{
closed = 1;
nodes = (
"214 2 LINE",
"230 39 OFFCURVE",
"248 76 OFFCURVE",
"265 114 CURVE",
"274 113 OFFCURVE",
"282 112 OFFCURVE",
"291 112 CURVE SMOOTH",
"348 112 OFFCURVE",
"397 160 OFFCURVE",
"397 219 CURVE SMOOTH",
"397 280 OFFCURVE",
"345 328 OFFCURVE",
"288 326 CURVE",
"286 326 LINE",
"286 346 OFFCURVE",
"285 366 OFFCURVE",
"285 386 CURVE SMOOTH",
"285 447 LINE",
"319 447 OFFCURVE",
"340 467 OFFCURVE",
"340 496 CURVE SMOOTH",
"340 528 OFFCURVE",
"314 548 OFFCURVE",
"270 548 CURVE SMOOTH",
"203 548 OFFCURVE",
"185 500 OFFCURVE",
"185 419 CURVE SMOOTH",
"185 0 LINE",
"61 0 LINE",
"61 320 LINE",
"-4 320 LINE",
"-4 441 LINE",
"61 441 LINE",
"61 430 LINE SMOOTH",
"61 576 OFFCURVE",
"152 672 OFFCURVE",
"269 670 CURVE",
"385 672 OFFCURVE",
"464 592 OFFCURVE",
"464 501 CURVE SMOOTH",
"464 465 OFFCURVE",
"452 416 OFFCURVE",
"417 398 CURVE",
"451 389 OFFCURVE",
"521 316 OFFCURVE",
"521 217 CURVE SMOOTH",
"521 95 OFFCURVE",
"415 -10 OFFCURVE",
"288 -10 CURVE SMOOTH",
"266 -10 OFFCURVE",
"237 -7 OFFCURVE",
"214 2 CURVE"
);
}
);
width = 549;
}
);
unicode = 00DF;
},
{
glyphname = t;
lastChange = "2016-08-26 16:01:03 +0000";
layers = (
{
hints = (
{
horizontal = 1;
place = "{0, 21}";
target = up;
type = BottomGhost;
},
{
horizontal = 1;
place = "{619, -20}";
target = down;
type = TopGhost;
}
);
layerId = UUID0;
paths = (
{
closed = 1;
nodes = (
"95 539 LINE",
"109 539 LINE",
"109 367 LINE",
"236 367 LINE",
"236 353 LINE",
"109 353 LINE",
"109 0 LINE",
"95 0 LINE",
"95 353 LINE",
"6 353 LINE",
"6 367 LINE",
"95 367 LINE"
);
}
);
width = 248;
},
{
hints = (
{
horizontal = 1;
place = "{0, 21}";
target = up;
type = BottomGhost;
},
{
horizontal = 1;
place = "{619, -20}";
target = down;
type = TopGhost;
}
);
layerId = UUID1;
paths = (
{
closed = 1;
nodes = (
"126 629 LINE",
"242 629 LINE",
"242 439 LINE",
"348 439 LINE",
"348 336 LINE",
"242 336 LINE",
"242 0 LINE",
"126 0 LINE",
"126 336 LINE",
"58 336 LINE",
"58 439 LINE",
"126 439 LINE"
);
}
);
width = 391;
}
);
unicode = 0074;
},
{
glyphname = u;
lastChange = "2016-08-26 16:01:03 +0000";
layers = (
{
hints = (
{
horizontal = 1;
place = "{375, -20}";
target = down;
type = TopGhost;
},
{
horizontal = 1;
place = "{-7, 21}";
target = up;
type = BottomGhost;
}
);
layerId = UUID0;
paths = (
{
closed = 1;
nodes = (
"372 0 LINE",
"362 0 LINE",
"361 98 LINE",
"334 35 OFFCURVE",
"270 -7 OFFCURVE",
"196 -7 CURVE SMOOTH",
"126 -7 OFFCURVE",
"82 39 OFFCURVE",
"80 105 CURVE",
"80 375 LINE",
"94 375 LINE",
"94 98 LINE",
"96 50 OFFCURVE",
"131 10 OFFCURVE",
"189 7 CURVE",
"279 7 OFFCURVE",
"358 69 OFFCURVE",
"358 155 CURVE SMOOTH",
"358 375 LINE",
"372 375 LINE"
);
}
);
width = 452;
},
{
hints = (
{
horizontal = 1;
place = "{375, -20}";
target = down;
type = TopGhost;
},
{
horizontal = 1;
place = "{-9, 21}";
target = up;
type = BottomGhost;
}
);
layerId = UUID1;
paths = (
{
closed = 1;
nodes = (
"516 -13 LINE",
"418 -13 LINE",
"404 111 LINE",
"373 41 OFFCURVE",
"322 -11 OFFCURVE",
"232 -11 CURVE SMOOTH",
"141 -11 OFFCURVE",
"82 42 OFFCURVE",
"80 119 CURVE",
"80 437 LINE",
"196 437 LINE",
"196 177 LINE",
"198 138 OFFCURVE",
"221 108 OFFCURVE",
"278 104 CURVE",
"352 104 OFFCURVE",
"400 160 OFFCURVE",
"400 236 CURVE SMOOTH",
"400 437 LINE",
"516 437 LINE"
);
}
);
width = 596;
}
);
unicode = 0075;
},
{
glyphname = uring;
lastChange = "2016-08-26 16:01:03 +0000";
layers = (
{
components = (
{
name = u;
}
);
layerId = UUID0;
paths = (
{
closed = 1;
nodes = (
"182 469 LINE SMOOTH",
"182 495 OFFCURVE",
"205 518 OFFCURVE",
"231 518 CURVE SMOOTH",
"257 518 OFFCURVE",
"280 495 OFFCURVE",
"280 469 CURVE SMOOTH",
"280 443 OFFCURVE",
"257 420 OFFCURVE",
"231 420 CURVE SMOOTH",
"205 420 OFFCURVE",
"182 443 OFFCURVE",
"182 469 CURVE SMOOTH"
);
},
{
closed = 1;
nodes = (
"168 469 LINE SMOOTH",
"168 433 OFFCURVE",
"195 406 OFFCURVE",
"231 406 CURVE SMOOTH",
"267 406 OFFCURVE",
"294 433 OFFCURVE",
"294 469 CURVE SMOOTH",
"294 505 OFFCURVE",
"267 532 OFFCURVE",
"231 532 CURVE SMOOTH",
"195 532 OFFCURVE",
"168 505 OFFCURVE",
"168 469 CURVE SMOOTH"
);
}
);
width = 452;
},
{
components = (
{
name = u;
}
);
layerId = UUID1;
paths = (
{
closed = 1;
nodes = (
"270 574 LINE SMOOTH",
"270 592 OFFCURVE",
"282 604 OFFCURVE",
"299 604 CURVE SMOOTH",
"316 604 OFFCURVE",
"328 592 OFFCURVE",
"328 574 CURVE SMOOTH",
"328 558 OFFCURVE",
"316 546 OFFCURVE",
"299 546 CURVE SMOOTH",
"282 546 OFFCURVE",
"270 558 OFFCURVE",
"270 574 CURVE SMOOTH"
);
},
{
closed = 1;
nodes = (
"204 576 LINE SMOOTH",
"204 525 OFFCURVE",
"248 481 OFFCURVE",
"299 481 CURVE SMOOTH",
"349 481 OFFCURVE",
"393 525 OFFCURVE",
"393 576 CURVE SMOOTH",
"393 626 OFFCURVE",
"349 670 OFFCURVE",
"299 670 CURVE SMOOTH",
"248 670 OFFCURVE",
"204 626 OFFCURVE",
"204 576 CURVE SMOOTH"
);
}
);
width = 596;
}
);
unicode = 016F;
},
{
glyphname = v;
lastChange = "2016-08-26 16:01:03 +0000";
layers = (
{
hints = (
{
horizontal = 1;
place = "{-23, 21}";
target = up;
type = BottomGhost;
},
{
horizontal = 1;
place = "{375, -20}";
target = down;
type = TopGhost;
}
);
layerId = UUID0;
paths = (
{
closed = 1;
nodes = (
"208 -23 LINE",
"142 110 OFFCURVE",
"96 242 OFFCURVE",
"30 375 CURVE",
"45 375 LINE",
"106 254 OFFCURVE",
"147 130 OFFCURVE",
"208 8 CURVE",
"269 130 OFFCURVE",
"310 253 OFFCURVE",
"371 375 CURVE",
"386 375 LINE",
"320 242 OFFCURVE",
"274 110 OFFCURVE",
"208 -23 CURVE"
);
}
);
width = 416;
},
{
hints = (
{
horizontal = 1;
place = "{-23, 21}";
target = up;
type = BottomGhost;
},
{
horizontal = 1;
place = "{375, -20}";
target = down;
type = TopGhost;
}
);
layerId = UUID1;
paths = (
{
closed = 1;
nodes = (
"247 -26 LINE",
"163 129 OFFCURVE",
"89 282 OFFCURVE",
"10 437 CURVE",
"136 437 LINE",
"247 220 OFFCURVE",
"245 219 OFFCURVE",
"247 190 CURVE",
"250 219 OFFCURVE",
"247 220 OFFCURVE",
"358 437 CURVE",
"484 437 LINE",
"405 282 OFFCURVE",
"327 129 OFFCURVE",
"247 -26 CURVE"
);
}
);
width = 494;
}
);
unicode = 0076;
},
{
glyphname = w;
lastChange = "2016-08-26 16:01:03 +0000";
layers = (
{
hints = (
{
horizontal = 1;
place = "{375, -20}";
target = down;
type = TopGhost;
},
{
horizontal = 1;
place = "{-23, 21}";
target = up;
type = BottomGhost;
}
);
layerId = UUID0;
paths = (
{
closed = 1;
nodes = (
"311 266 LINE",
"295 302 OFFCURVE",
"278 339 OFFCURVE",
"262 375 CURVE",
"277 375 LINE",
"331 253 OFFCURVE",
"387 129 OFFCURVE",
"440 8 CURVE SMOOTH",
"494 130 OFFCURVE",
"549 253 OFFCURVE",
"603 375 CURVE",
"618 375 LINE",
"558 242 OFFCURVE",
"499 110 OFFCURVE",
"440 -23 CURVE",
"400 68 OFFCURVE",
"359 160 OFFCURVE",
"319 251 CURVE",
"282 160 OFFCURVE",
"245 68 OFFCURVE",
"208 -23 CURVE",
"148 110 OFFCURVE",
"89 242 OFFCURVE",
"30 375 CURVE",
"45 375 LINE",
"99 253 OFFCURVE",
"153 129 OFFCURVE",
"208 8 CURVE",
"243 94 OFFCURVE",
"277 180 OFFCURVE",
"311 266 CURVE"
);
}
);
width = 648;
},
{
hints = (
{
horizontal = 1;
place = "{375, -20}";
target = down;
type = TopGhost;
},
{
horizontal = 1;
place = "{-23, 21}";
target = up;
type = BottomGhost;
}
);
layerId = UUID1;
paths = (
{
closed = 1;
nodes = (
"298 387 LINE",
"292 400 OFFCURVE",
"281 425 OFFCURVE",
"275 437 CURVE",
"374 437 LINE",
"461 250 OFFCURVE",
"477 200 OFFCURVE",
"477 190 CURVE SMOOTH",
"477 250 OFFCURVE",
"490 255 OFFCURVE",
"568 437 CURVE",
"684 437 LINE",
"615 282 OFFCURVE",
"538 109 OFFCURVE",
"477 -26 CURVE",
"425 78 OFFCURVE",
"400 170 OFFCURVE",
"347 274 CURVE",
"300 170 OFFCURVE",
"260 78 OFFCURVE",
"214 -26 CURVE",
"149 129 OFFCURVE",
"85 282 OFFCURVE",
"20 437 CURVE",
"136 437 LINE",
"214 253 OFFCURVE",
"214 250 OFFCURVE",
"214 190 CURVE",
"215 200 OFFCURVE",
"220 215 OFFCURVE",
"298 387 CURVE"
);
}
);
width = 698;
}
);
unicode = 0077;
},
{
glyphname = x;
lastChange = "2016-08-26 16:01:03 +0000";
layers = (
{
hints = (
{
horizontal = 1;
place = "{0, 21}";
target = up;
type = BottomGhost;
},
{
horizontal = 1;
place = "{374, -20}";
target = down;
type = TopGhost;
},
{
horizontal = 1;
place = "{375, -20}";
target = down;
type = TopGhost;
}
);
layerId = UUID0;
paths = (
{
closed = 1;
nodes = (
"168 187 LINE",
"122 250 OFFCURVE",
"76 312 OFFCURVE",
"30 375 CURVE",
"48 375 LINE",
"91 316 OFFCURVE",
"134 257 OFFCURVE",
"177 198 CURVE",
"219 257 OFFCURVE",
"261 315 OFFCURVE",
"303 374 CURVE",
"320 374 LINE",
"275 311 OFFCURVE",
"230 249 OFFCURVE",
"185 186 CURVE",
"231 124 OFFCURVE",
"276 62 OFFCURVE",
"322 0 CURVE",
"306 0 LINE",
"263 58 OFFCURVE",
"220 117 OFFCURVE",
"177 175 CURVE",
"135 117 OFFCURVE",
"94 58 OFFCURVE",
"52 0 CURVE",
"34 0 LINE",
"79 62 OFFCURVE",
"123 125 OFFCURVE",
"168 187 CURVE"
);
}
);
width = 352;
},
{
hints = (
{
horizontal = 1;
place = "{0, 21}";
target = up;
type = BottomGhost;
},
{
horizontal = 1;
place = "{375, -20}";
target = down;
type = TopGhost;
},
{
horizontal = 1;
place = "{375, -20}";
target = down;
type = TopGhost;
}
);
layerId = UUID1;
paths = (
{
closed = 1;
nodes = (
"179 236 LINE",
"134 303 OFFCURVE",
"78 371 OFFCURVE",
"33 437 CURVE",
"175 437 LINE",
"204 388 OFFCURVE",
"224 370 OFFCURVE",
"254 324 CURVE",
"283 370 OFFCURVE",
"306 390 OFFCURVE",
"336 437 CURVE",
"465 437 LINE",
"414 357 OFFCURVE",
"377 317 OFFCURVE",
"322 231 CURVE",
"369 164 OFFCURVE",
"445 67 OFFCURVE",
"489 0 CURVE",
"340 0 LINE",
"306 49 OFFCURVE",
"273 82 OFFCURVE",
"239 129 CURVE",
"208 81 OFFCURVE",
"179 50 OFFCURVE",
"147 0 CURVE",
"18 0 LINE",
"70 80 OFFCURVE",
"129 158 OFFCURVE",
"179 236 CURVE"
);
}
);
width = 517;
}
);
unicode = 0078;
},
{
glyphname = y;
lastChange = "2016-08-26 16:01:03 +0000";
layers = (
{
hints = (
{
horizontal = 1;
place = "{-250, 21}";
target = up;
type = BottomGhost;
},
{
horizontal = 1;
place = "{375, -20}";
target = down;
type = TopGhost;
}
);
layerId = UUID0;
paths = (
{
closed = 1;
nodes = (
"145 -180 LINE",
"126 -180 LINE",
"155 -116 OFFCURVE",
"162 -86 OFFCURVE",
"197 -1 CURVE",
"136 124 OFFCURVE",
"92 249 OFFCURVE",
"30 375 CURVE",
"45 375 LINE",
"106 254 OFFCURVE",
"147 130 OFFCURVE",
"208 8 CURVE",
"269 130 OFFCURVE",
"310 253 OFFCURVE",
"371 375 CURVE",
"386 375 LINE"
);
}
);
width = 416;
},
{
hints = (
{
horizontal = 1;
place = "{-250, 21}";
target = up;
type = BottomGhost;
},
{
horizontal = 1;
place = "{375, -20}";
target = down;
type = TopGhost;
}
);
layerId = UUID1;
paths = (
{
closed = 1;
nodes = (
"202 -210 LINE",
"87 -210 LINE",
"129 -127 OFFCURVE",
"163 -52 OFFCURVE",
"209 42 CURVE",
"148 160 OFFCURVE",
"70 318 OFFCURVE",
"10 437 CURVE",
"136 437 LINE",
"247 220 OFFCURVE",
"265 179 OFFCURVE",
"267 150 CURVE",
"270 179 OFFCURVE",
"287 220 OFFCURVE",
"398 437 CURVE",
"524 437 LINE"
);
}
);
width = 540;
}
);
unicode = 0079;
},
{
glyphname = z;
lastChange = "2016-08-26 16:01:03 +0000";
layers = (
{
hints = (
{
horizontal = 1;
place = "{405, -20}";
target = down;
type = TopGhost;
},
{
horizontal = 1;
place = "{0, 21}";
target = up;
type = BottomGhost;
}
);
layerId = UUID0;
paths = (
{
closed = 1;
nodes = (
"359 0 LINE",
"80 0 LINE",
"340 361 LINE",
"133 361 LINE SMOOTH",
"92 361 OFFCURVE",
"73 368 OFFCURVE",
"73 406 CURVE SMOOTH",
"73 410 LINE",
"86 410 LINE",
"86 398 LINE SMOOTH",
"86 386 OFFCURVE",
"97 375 OFFCURVE",
"119 375 CURVE SMOOTH",
"364 375 LINE",
"104 14 LINE",
"359 14 LINE"
);
}
);
width = 414;
},
{
hints = (
{
horizontal = 1;
place = "{405, -20}";
target = down;
type = TopGhost;
},
{
horizontal = 1;
place = "{0, 21}";
target = up;
type = BottomGhost;
}
);
layerId = UUID1;
paths = (
{
closed = 1;
nodes = (
"463 0 LINE",
"20 0 LINE",
"252 338 LINE",
"140 338 LINE SMOOTH",
"92 338 OFFCURVE",
"50 375 OFFCURVE",
"50 419 CURVE SMOOTH",
"50 479 LINE",
"155 479 LINE",
"155 465 LINE SMOOTH",
"155 437 OFFCURVE",
"164 437 OFFCURVE",
"189 437 CURVE SMOOTH",
"466 437 LINE",
"244 114 LINE",
"463 114 LINE"
);
}
);
width = 522;
}
);
unicode = 007A;
},
{
glyphname = fi;
lastChange = "2016-08-26 16:01:03 +0000";
layers = (
{
hints = (
{
horizontal = 1;
place = "{0, 21}";
target = up;
type = BottomGhost;
},
{
horizontal = 1;
place = "{520, -20}";
target = down;
type = TopGhost;
},
{
horizontal = 1;
place = "{0, 21}";
target = up;
type = BottomGhost;
},
{
horizontal = 1;
place = "{750, -20}";
target = down;
type = TopGhost;
}
);
layerId = UUID0;
paths = (
{
closed = 1;
nodes = (
"374 0 LINE",
"360 0 LINE",
"360 375 LINE",
"374 375 LINE"
);
},
{
closed = 1;
nodes = (
"30 361 LINE",
"30 375 LINE",
"95 375 LINE",
"95 518 LINE SMOOTH",
"95 666 OFFCURVE",
"179 746 OFFCURVE",
"280 750 CURVE",
"280 736 LINE",
"189 736 OFFCURVE",
"109 653 OFFCURVE",
"109 522 CURVE SMOOTH",
"109 375 LINE",
"369 375 LINE",
"369 361 LINE",
"109 361 LINE",
"109 0 LINE",
"95 0 LINE",
"95 361 LINE"
);
}
);
width = 454;
},
{
hints = (
{
horizontal = 1;
place = "{0, 21}";
target = up;
type = BottomGhost;
},
{
horizontal = 1;
place = "{573, -20}";
target = down;
type = TopGhost;
},
{
horizontal = 1;
place = "{0, 21}";
target = up;
type = BottomGhost;
},
{
horizontal = 1;
place = "{751, -20}";
target = down;
type = TopGhost;
}
);
layerId = UUID1;
paths = (
{
closed = 1;
nodes = (
"562 0 LINE",
"446 0 LINE",
"446 437 LINE",
"562 437 LINE"
);
},
{
closed = 1;
nodes = (
"23 323 LINE",
"23 437 LINE",
"97 437 LINE",
"97 515 LINE SMOOTH",
"97 701 OFFCURVE",
"184 784 OFFCURVE",
"354 789 CURVE",
"354 678 LINE",
"246 670 OFFCURVE",
"214 614 OFFCURVE",
"214 510 CURVE SMOOTH",
"214 437 LINE",
"446 437 LINE",
"446 323 LINE",
"214 323 LINE",
"214 0 LINE",
"97 0 LINE",
"97 323 LINE"
);
}
);
width = 642;
}
);
unicode = FB01;
},
{
glyphname = fl;
lastChange = "2016-08-26 16:01:03 +0000";
layers = (
{
hints = (
{
horizontal = 1;
place = "{750, -20}";
target = down;
type = TopGhost;
},
{
horizontal = 1;
place = "{0, 21}";
target = up;
type = BottomGhost;
},
{
horizontal = 1;
place = "{0, 21}";
target = up;
type = BottomGhost;
},
{
horizontal = 1;
place = "{750, -20}";
target = down;
type = TopGhost;
}
);
layerId = UUID0;
paths = (
{
closed = 1;
nodes = (
"374 0 LINE",
"360 0 LINE",
"360 750 LINE",
"374 750 LINE"
);
},
{
closed = 1;
nodes = (
"30 358 LINE",
"30 372 LINE",
"95 372 LINE",
"95 518 LINE SMOOTH",
"95 666 OFFCURVE",
"179 746 OFFCURVE",
"280 750 CURVE",
"280 736 LINE",
"189 736 OFFCURVE",
"109 653 OFFCURVE",
"109 522 CURVE SMOOTH",
"109 372 LINE",
"239 372 LINE",
"239 358 LINE",
"109 358 LINE",
"109 0 LINE",
"95 0 LINE",
"95 358 LINE"
);
},
{
closed = 1;
nodes = (
"280 750 LINE",
"367 750 LINE",
"367 736 LINE",
"280 736 LINE"
);
}
);
width = 454;
},
{
hints = (
{
horizontal = 1;
place = "{750, -20}";
target = down;
type = TopGhost;
},
{
horizontal = 1;
place = "{0, 21}";
target = up;
type = BottomGhost;
},
{
horizontal = 1;
place = "{0, 21}";
target = up;
type = BottomGhost;
},
{
horizontal = 1;
place = "{751, -20}";
target = down;
type = TopGhost;
}
);
layerId = UUID1;
paths = (
{
closed = 1;
nodes = (
"543 0 LINE",
"427 0 LINE",
"427 789 LINE",
"543 789 LINE"
);
},
{
closed = 1;
nodes = (
"23 325 LINE",
"23 439 LINE",
"97 439 LINE",
"97 515 LINE SMOOTH",
"97 701 OFFCURVE",
"184 784 OFFCURVE",
"354 789 CURVE",
"354 678 LINE",
"246 670 OFFCURVE",
"214 614 OFFCURVE",
"214 510 CURVE SMOOTH",
"214 439 LINE",
"346 439 LINE",
"346 325 LINE",
"214 325 LINE",
"214 0 LINE",
"97 0 LINE",
"97 325 LINE"
);
},
{
closed = 1;
nodes = (
"354 789 LINE",
"432 789 LINE",
"432 678 LINE",
"354 678 LINE"
);
}
);
width = 606;
}
);
unicode = FB02;
},
{
glyphname = pi;
lastChange = "2016-08-26 16:01:03 +0000";
layers = (
{
hints = (
{
horizontal = 1;
place = "{0, 21}";
target = up;
type = BottomGhost;
},
{
horizontal = 1;
place = "{573, -20}";
target = down;
type = TopGhost;
},
{
horizontal = 1;
place = "{478, 21}";
target = up;
type = BottomGhost;
},
{
horizontal = 1;
place = "{531, -20}";
target = down;
type = TopGhost;
},
{
horizontal = 1;
place = "{0, 21}";
target = up;
type = BottomGhost;
},
{
horizontal = 1;
place = "{573, -20}";
target = down;
type = TopGhost;
}
);
layerId = UUID0;
paths = (
{
closed = 1;
nodes = (
"65 306 LINE",
"65 0 LINE",
"51 0 LINE",
"51 306 LINE",
"0 306 LINE",
"0 320 LINE",
"266 320 LINE",
"266 306 LINE",
"228 306 LINE",
"228 0 LINE",
"214 0 LINE",
"214 306 LINE"
);
}
);
width = 266;
},
{
hints = (
{
horizontal = 1;
place = "{0, 21}";
target = up;
type = BottomGhost;
},
{
horizontal = 1;
place = "{573, -20}";
target = down;
type = TopGhost;
},
{
horizontal = 1;
place = "{478, 21}";
target = up;
type = BottomGhost;
},
{
horizontal = 1;
place = "{531, -20}";
target = down;
type = TopGhost;
},
{
horizontal = 1;
place = "{0, 21}";
target = up;
type = BottomGhost;
},
{
horizontal = 1;
place = "{573, -20}";
target = down;
type = TopGhost;
}
);
layerId = UUID1;
paths = (
{
closed = 1;
nodes = (
"192 247 LINE",
"192 0 LINE",
"67 0 LINE",
"67 247 LINE",
"9 247 LINE",
"9 368 LINE",
"431 368 LINE",
"431 247 LINE",
"368 247 LINE",
"368 0 LINE",
"244 0 LINE",
"244 247 LINE"
);
}
);
width = 444;
}
);
unicode = 03C0;
},
{
glyphname = zero;
lastChange = "2016-08-26 16:01:03 +0000";
layers = (
{
layerId = UUID0;
paths = (
{
closed = 1;
nodes = (
"36 327 LINE",
"35 141 OFFCURVE",
"155 -6 OFFCURVE",
"301 -7 CURVE SMOOTH",
"448 -8 OFFCURVE",
"572 139 OFFCURVE",
"573 324 CURVE SMOOTH",
"574 452 OFFCURVE",
"506 657 OFFCURVE",
"308 658 CURVE SMOOTH",
"107 659 OFFCURVE",
"37 454 OFFCURVE",
"36 327 CURVE SMOOTH"
);
},
{
closed = 1;
nodes = (
"51 328 LINE",
"52 523 OFFCURVE",
"164 645 OFFCURVE",
"307 644 CURVE SMOOTH",
"450 643 OFFCURVE",
"560 519 OFFCURVE",
"559 323 CURVE SMOOTH",
"558 130 OFFCURVE",
"431 6 OFFCURVE",
"303 7 CURVE SMOOTH",
"174 8 OFFCURVE",
"50 134 OFFCURVE",
"51 328 CURVE SMOOTH"
);
}
);
width = 616;
},
{
layerId = UUID1;
paths = (
{
closed = 1;
nodes = (
"38 335 LINE",
"38 104 OFFCURVE",
"159 -8 OFFCURVE",
"310 -9 CURVE SMOOTH",
"467 -10 OFFCURVE",
"582 108 OFFCURVE",
"584 329 CURVE SMOOTH",
"587 562 OFFCURVE",
"461 670 OFFCURVE",
"312 671 CURVE SMOOTH",
"179 672 OFFCURVE",
"38 584 OFFCURVE",
"38 335 CURVE SMOOTH"
);
},
{
closed = 1;
nodes = (
"164 331 LINE",
"165 375 OFFCURVE",
"177 550 OFFCURVE",
"313 550 CURVE SMOOTH",
"442 550 OFFCURVE",
"458 389 OFFCURVE",
"458 332 CURVE SMOOTH",
"458 219 OFFCURVE",
"395 112 OFFCURVE",
"309 113 CURVE SMOOTH",
"224 114 OFFCURVE",
"162 220 OFFCURVE",
"164 331 CURVE SMOOTH"
);
}
);
width = 628;
}
);
unicode = 0030;
},
{
glyphname = one;
lastChange = "2016-08-26 16:01:03 +0000";
layers = (
{
hints = (
{
horizontal = 1;
place = "{0, 21}";
target = up;
type = BottomGhost;
},
{
horizontal = 1;
place = "{650, -20}";
target = down;
type = TopGhost;
}
);
layerId = UUID0;
paths = (
{
closed = 1;
nodes = (
"34 636 LINE",
"34 650 LINE",
"161 650 LINE",
"161 0 LINE",
"147 0 LINE",
"147 636 LINE"
);
}
);
width = 249;
},
{
hints = (
{
horizontal = 1;
place = "{0, 21}";
target = up;
type = BottomGhost;
},
{
horizontal = 1;
place = "{650, -20}";
target = down;
type = TopGhost;
}
);
layerId = UUID1;
paths = (
{
closed = 1;
nodes = (
"35 542 LINE",
"35 663 LINE",
"205 663 LINE",
"205 0 LINE",
"78 0 LINE",
"78 542 LINE"
);
}
);
width = 293;
}
);
unicode = 0031;
},
{
glyphname = two;
lastChange = "2016-08-26 16:01:03 +0000";
layers = (
{
hints = (
{
horizontal = 1;
place = "{658, -20}";
target = down;
type = TopGhost;
},
{
horizontal = 1;
place = "{0, 21}";
target = up;
type = BottomGhost;
}
);
layerId = UUID0;
paths = (
{
closed = 1;
nodes = (
"89 14 LINE",
"449 14 LINE",
"449 0 LINE",
"53 0 LINE",
"225 165 OFFCURVE",
"389 326 OFFCURVE",
"389 452 CURVE SMOOTH",
"389 602 OFFCURVE",
"294 644 OFFCURVE",
"228 644 CURVE SMOOTH",
"96 644 OFFCURVE",
"64 538 OFFCURVE",
"64 469 CURVE SMOOTH",
"64 421 OFFCURVE",
"78 383 OFFCURVE",
"104 355 CURVE",
"101 352 OFFCURVE",
"98 350 OFFCURVE",
"95 347 CURVE",
"67 379 OFFCURVE",
"50 415 OFFCURVE",
"50 469 CURVE SMOOTH",
"50 576 OFFCURVE",
"113 658 OFFCURVE",
"228 658 CURVE SMOOTH",
"332 658 OFFCURVE",
"403 576 OFFCURVE",
"403 464 CURVE SMOOTH",
"403 309 OFFCURVE",
"228 158 OFFCURVE",
"89 14 CURVE"
);
}
);
width = 495;
},
{
hints = (
{
horizontal = 1;
place = "{658, -20}";
target = down;
type = TopGhost;
},
{
horizontal = 1;
place = "{0, 21}";
target = up;
type = BottomGhost;
}
);
layerId = UUID1;
paths = (
{
closed = 1;
nodes = (
"353 121 LINE",
"533 121 LINE",
"533 0 LINE",
"54 0 LINE",
"218 168 OFFCURVE",
"374 310 OFFCURVE",
"374 439 CURVE SMOOTH",
"374 508 OFFCURVE",
"312 550 OFFCURVE",
"272 550 CURVE SMOOTH",
"189 550 OFFCURVE",
"167 483 OFFCURVE",
"167 456 CURVE SMOOTH",
"167 413 OFFCURVE",
"182 381 OFFCURVE",
"206 356 CURVE",
"181 330 OFFCURVE",
"157 304 OFFCURVE",
"132 279 CURVE",
"74 307 OFFCURVE",
"41 407 OFFCURVE",
"41 456 CURVE SMOOTH",
"41 565 OFFCURVE",
"123 671 OFFCURVE",
"272 671 CURVE SMOOTH",
"409 671 OFFCURVE",
"500 565 OFFCURVE",
"500 451 CURVE SMOOTH",
"500 330 OFFCURVE",
"442 230 OFFCURVE",
"353 121 CURVE"
);
}
);
width = 543;
}
);
unicode = 0032;
},
{
glyphname = three;
lastChange = "2016-08-26 16:01:03 +0000";
layers = (
{
hints = (
{
horizontal = 1;
place = "{-8, 21}";
target = up;
type = BottomGhost;
},
{
horizontal = 1;
place = "{650, -20}";
target = down;
type = TopGhost;
}
);
layerId = UUID0;
paths = (
{
closed = 1;
nodes = (
"178 361 LINE",
"249 453 OFFCURVE",
"319 544 OFFCURVE",
"390 636 CURVE",
"103 636 LINE",
"103 650 LINE",
"422 650 LINE",
"356 566 OFFCURVE",
"289 482 OFFCURVE",
"223 398 CURVE",
"344 404 OFFCURVE",
"446 316 OFFCURVE",
"446 195 CURVE SMOOTH",
"446 83 OFFCURVE",
"354 -8 OFFCURVE",
"242 -8 CURVE SMOOTH",
"182 -8 OFFCURVE",
"130 18 OFFCURVE",
"93 58 CURVE",
"96 62 OFFCURVE",
"100 67 OFFCURVE",
"103 71 CURVE",
"135 33 OFFCURVE",
"184 6 OFFCURVE",
"239 6 CURVE SMOOTH",
"344 6 OFFCURVE",
"432 93 OFFCURVE",
"432 195 CURVE SMOOTH",
"432 300 OFFCURVE",
"344 384 OFFCURVE",
"239 384 CURVE SMOOTH",
"218 384 OFFCURVE",
"196 375 OFFCURVE",
"178 361 CURVE"
);
}
);
width = 515;
},
{
hints = (
{
horizontal = 1;
place = "{-8, 21}";
target = up;
type = BottomGhost;
},
{
horizontal = 1;
place = "{650, -20}";
target = down;
type = TopGhost;
}
);
layerId = UUID1;
paths = (
{
closed = 1;
nodes = (
"143 312 LINE",
"175 388 OFFCURVE",
"230 464 OFFCURVE",
"262 540 CURVE",
"95 540 LINE",
"95 663 LINE",
"456 663 LINE",
"417 585 OFFCURVE",
"371 506 OFFCURVE",
"333 428 CURVE",
"402 375 OFFCURVE",
"442 305 OFFCURVE",
"442 221 CURVE SMOOTH",
"442 96 OFFCURVE",
"335 -8 OFFCURVE",
"210 -8 CURVE SMOOTH",
"144 -8 OFFCURVE",
"83 22 OFFCURVE",
"40 67 CURVE",
"70 95 OFFCURVE",
"102 123 OFFCURVE",
"132 151 CURVE",
"152 126 OFFCURVE",
"179 113 OFFCURVE",
"211 113 CURVE SMOOTH",
"269 113 OFFCURVE",
"317 162 OFFCURVE",
"317 221 CURVE SMOOTH",
"317 279 OFFCURVE",
"269 326 OFFCURVE",
"211 326 CURVE SMOOTH",
"184 326 OFFCURVE",
"163 322 OFFCURVE",
"143 312 CURVE"
);
}
);
width = 525;
}
);
unicode = 0033;
},
{
glyphname = four;
lastChange = "2016-08-26 16:01:03 +0000";
layers = (
{
hints = (
{
horizontal = 1;
place = "{0, 21}";
target = up;
type = BottomGhost;
},
{
horizontal = 1;
place = "{658, -20}";
target = down;
type = TopGhost;
}
);
layerId = UUID0;
paths = (
{
closed = 1;
nodes = (
"389 617 LINE",
"282 477 OFFCURVE",
"174 337 OFFCURVE",
"67 197 CURVE",
"389 197 LINE"
);
},
{
closed = 1;
nodes = (
"37 183 LINE",
"159 341 OFFCURVE",
"281 500 OFFCURVE",
"403 658 CURVE",
"403 197 LINE",
"500 197 LINE",
"500 183 LINE",
"403 183 LINE",
"403 0 LINE",
"389 0 LINE",
"389 183 LINE"
);
}
);
width = 505;
},
{
hints = (
{
horizontal = 1;
place = "{0, 21}";
target = up;
type = BottomGhost;
},
{
horizontal = 1;
place = "{658, -20}";
target = down;
type = TopGhost;
}
);
layerId = UUID1;
paths = (
{
closed = 1;
nodes = (
"285 333 LINE",
"286 334 OFFCURVE",
"247 284 OFFCURVE",
"248 285 CURVE",
"285 285 LINE"
);
},
{
closed = 1;
nodes = (
"7 164 LINE",
"131 325 OFFCURVE",
"287 510 OFFCURVE",
"411 671 CURVE",
"411 285 LINE",
"510 285 LINE",
"510 164 LINE",
"411 164 LINE",
"411 0 LINE",
"285 0 LINE",
"285 164 LINE"
);
}
);
width = 522;
}
);
unicode = 0034;
},
{
glyphname = five;
lastChange = "2016-08-26 16:01:03 +0000";
layers = (
{
hints = (
{
horizontal = 1;
place = "{-8, 21}";
target = up;
type = BottomGhost;
},
{
horizontal = 1;
place = "{650, -20}";
target = down;
type = TopGhost;
}
);
layerId = UUID0;
paths = (
{
closed = 1;
nodes = (
"143 341 LINE",
"143 650 LINE",
"430 650 LINE",
"430 636 LINE",
"157 636 LINE",
"157 372 LINE",
"187 386 OFFCURVE",
"220 395 OFFCURVE",
"255 395 CURVE SMOOTH",
"367 395 OFFCURVE",
"460 307 OFFCURVE",
"460 195 CURVE SMOOTH",
"460 83 OFFCURVE",
"367 -8 OFFCURVE",
"255 -8 CURVE SMOOTH",
"201 -8 OFFCURVE",
"152 13 OFFCURVE",
"115 48 CURVE",
"119 51 OFFCURVE",
"122 55 OFFCURVE",
"126 58 CURVE",
"158 25 OFFCURVE",
"203 6 OFFCURVE",
"253 6 CURVE SMOOTH",
"359 6 OFFCURVE",
"446 93 OFFCURVE",
"446 195 CURVE SMOOTH",
"446 298 OFFCURVE",
"359 381 OFFCURVE",
"253 381 CURVE SMOOTH",
"207 381 OFFCURVE",
"166 363 OFFCURVE",
"143 341 CURVE"
);
}
);
width = 543;
},
{
hints = (
{
horizontal = 1;
place = "{-8, 21}";
target = up;
type = BottomGhost;
},
{
horizontal = 1;
place = "{650, -20}";
target = down;
type = TopGhost;
}
);
layerId = UUID1;
paths = (
{
closed = 1;
nodes = (
"146 289 LINE",
"146 663 LINE",
"439 663 LINE",
"439 542 LINE",
"253 542 LINE",
"253 449 LINE",
"255 449 OFFCURVE",
"251 449 OFFCURVE",
"257 449 CURVE SMOOTH",
"401 449 OFFCURVE",
"488 346 OFFCURVE",
"488 226 CURVE SMOOTH",
"488 93 OFFCURVE",
"382 -8 OFFCURVE",
"256 -8 CURVE SMOOTH",
"195 -8 OFFCURVE",
"139 16 OFFCURVE",
"98 57 CURVE",
"128 86 OFFCURVE",
"160 112 OFFCURVE",
"189 141 CURVE",
"207 125 OFFCURVE",
"231 113 OFFCURVE",
"259 113 CURVE SMOOTH",
"315 113 OFFCURVE",
"364 162 OFFCURVE",
"364 221 CURVE SMOOTH",
"364 280 OFFCURVE",
"315 328 OFFCURVE",
"258 328 CURVE SMOOTH",
"226 328 OFFCURVE",
"183 328 OFFCURVE",
"146 289 CURVE"
);
}
);
width = 553;
}
);
unicode = 0035;
},
{
glyphname = six;
lastChange = "2016-08-26 16:01:03 +0000";
layers = (
{
hints = (
{
horizontal = 1;
place = "{-8, 21}";
target = up;
type = BottomGhost;
},
{
horizontal = 1;
place = "{633, -20}";
target = down;
type = TopGhost;
}
);
layerId = UUID0;
paths = (
{
closed = 1;
nodes = (
"63 193 LINE SMOOTH",
"63 89 OFFCURVE",
"148 6 OFFCURVE",
"253 6 CURVE SMOOTH",
"358 6 OFFCURVE",
"444 89 OFFCURVE",
"444 193 CURVE SMOOTH",
"444 297 OFFCURVE",
"358 381 OFFCURVE",
"253 381 CURVE SMOOTH",
"148 381 OFFCURVE",
"63 297 OFFCURVE",
"63 193 CURVE SMOOTH"
);
},
{
closed = 1;
nodes = (
"50 193 LINE SMOOTH",
"50 387 OFFCURVE",
"233 524 OFFCURVE",
"382 633 CURVE",
"385 629 OFFCURVE",
"389 624 OFFCURVE",
"392 620 CURVE",
"214 502 OFFCURVE",
"122 388 OFFCURVE",
"91 314 CURVE",
"128 363 OFFCURVE",
"187 395 OFFCURVE",
"254 395 CURVE SMOOTH",
"367 395 OFFCURVE",
"458 304 OFFCURVE",
"458 193 CURVE SMOOTH",
"458 82 OFFCURVE",
"367 -8 OFFCURVE",
"254 -8 CURVE SMOOTH",
"141 -8 OFFCURVE",
"50 82 OFFCURVE",
"50 193 CURVE SMOOTH"
);
}
);
width = 520;
},
{
hints = (
{
horizontal = 1;
place = "{-8, 21}";
target = up;
type = BottomGhost;
},
{
horizontal = 1;
place = "{637, -20}";
target = down;
type = TopGhost;
}
);
layerId = UUID1;
paths = (
{
closed = 1;
nodes = (
"178 222 LINE SMOOTH",
"178 164 OFFCURVE",
"221 113 OFFCURVE",
"278 113 CURVE SMOOTH",
"335 113 OFFCURVE",
"384 164 OFFCURVE",
"384 222 CURVE SMOOTH",
"384 281 OFFCURVE",
"334 328 OFFCURVE",
"278 328 CURVE SMOOTH",
"222 328 OFFCURVE",
"178 281 OFFCURVE",
"178 222 CURVE SMOOTH"
);
},
{
closed = 1;
nodes = (
"48 222 LINE SMOOTH",
"48 444 OFFCURVE",
"280 583 OFFCURVE",
"375 652 CURVE",
"401 621 OFFCURVE",
"427 588 OFFCURVE",
"452 557 CURVE",
"418 534 OFFCURVE",
"300 471 OFFCURVE",
"273 449 CURVE",
"275 449 OFFCURVE",
"276 449 OFFCURVE",
"277 449 CURVE SMOOTH",
"402 449 OFFCURVE",
"509 350 OFFCURVE",
"509 223 CURVE SMOOTH",
"509 96 OFFCURVE",
"402 -8 OFFCURVE",
"278 -8 CURVE SMOOTH",
"184 -8 OFFCURVE",
"48 52 OFFCURVE",
"48 222 CURVE SMOOTH"
);
}
);
width = 531;
}
);
unicode = 0036;
},
{
glyphname = seven;
lastChange = "2016-08-26 16:01:03 +0000";
layers = (
{
hints = (
{
horizontal = 1;
place = "{0, 21}";
target = up;
type = BottomGhost;
},
{
horizontal = 1;
place = "{650, -20}";
target = down;
type = TopGhost;
}
);
layerId = UUID0;
paths = (
{
closed = 1;
nodes = (
"14 636 LINE",
"14 650 LINE",
"415 650 LINE",
"318 433 OFFCURVE",
"220 217 OFFCURVE",
"123 0 CURVE",
"105 0 LINE",
"201 212 OFFCURVE",
"296 424 OFFCURVE",
"392 636 CURVE"
);
}
);
width = 469;
},
{
hints = (
{
horizontal = 1;
place = "{0, 21}";
target = up;
type = BottomGhost;
},
{
horizontal = 1;
place = "{650, -20}";
target = down;
type = TopGhost;
}
);
layerId = UUID1;
paths = (
{
closed = 1;
nodes = (
"14 540 LINE",
"14 663 LINE",
"442 663 LINE",
"353 427 OFFCURVE",
"276 221 OFFCURVE",
"195 0 CURVE",
"53 0 LINE",
"109 158 OFFCURVE",
"181 357 OFFCURVE",
"248 540 CURVE"
);
}
);
width = 478;
}
);
unicode = 0037;
},
{
glyphname = eight;
lastChange = "2016-08-26 16:01:03 +0000";
layers = (
{
hints = (
{
place = "{53, 69}";
},
{
place = "{382, 78}";
},
{
horizontal = 1;
place = "{-8, 21}";
target = up;
type = BottomGhost;
},
{
horizontal = 1;
place = "{658, -20}";
target = down;
type = TopGhost;
}
);
layerId = UUID0;
paths = (
{
closed = 1;
nodes = (
"122 511 LINE SMOOTH",
"122 445 OFFCURVE",
"180 396 OFFCURVE",
"254 396 CURVE SMOOTH",
"327 396 OFFCURVE",
"382 445 OFFCURVE",
"382 511 CURVE SMOOTH",
"382 582 OFFCURVE",
"327 644 OFFCURVE",
"254 644 CURVE SMOOTH",
"180 644 OFFCURVE",
"122 582 OFFCURVE",
"122 511 CURVE SMOOTH"
);
},
{
closed = 1;
nodes = (
"67 195 LINE SMOOTH",
"67 93 OFFCURVE",
"149 5 OFFCURVE",
"253 5 CURVE SMOOTH",
"359 5 OFFCURVE",
"446 93 OFFCURVE",
"446 195 CURVE SMOOTH",
"446 298 OFFCURVE",
"359 381 OFFCURVE",
"253 381 CURVE SMOOTH",
"149 381 OFFCURVE",
"67 298 OFFCURVE",
"67 195 CURVE SMOOTH"
);
},
{
closed = 1;
nodes = (
"53 195 LINE SMOOTH",
"53 289 OFFCURVE",
"117 367 OFFCURVE",
"204 389 CURVE",
"148 407 OFFCURVE",
"108 457 OFFCURVE",
"108 518 CURVE SMOOTH",
"108 595 OFFCURVE",
"173 658 OFFCURVE",
"252 658 CURVE SMOOTH",
"332 658 OFFCURVE",
"396 593 OFFCURVE",
"396 514 CURVE SMOOTH",
"396 456 OFFCURVE",
"358 408 OFFCURVE",
"304 389 CURVE",
"393 368 OFFCURVE",
"460 290 OFFCURVE",
"460 195 CURVE SMOOTH",
"460 83 OFFCURVE",
"367 -8 OFFCURVE",
"255 -8 CURVE SMOOTH",
"144 -8 OFFCURVE",
"53 83 OFFCURVE",
"53 195 CURVE SMOOTH"
);
}
);
width = 510;
},
{
hints = (
{
place = "{36, 144}";
},
{
place = "{330, 142}";
},
{
horizontal = 1;
place = "{-8, 21}";
target = up;
type = BottomGhost;
},
{
horizontal = 1;
place = "{658, -20}";
target = down;
type = TopGhost;
}
);
layerId = UUID1;
paths = (
{
closed = 1;
nodes = (
"211 499 LINE SMOOTH",
"211 472 OFFCURVE",
"238 449 OFFCURVE",
"262 449 CURVE SMOOTH",
"286 449 OFFCURVE",
"312 472 OFFCURVE",
"312 499 CURVE SMOOTH",
"312 526 OFFCURVE",
"287 550 OFFCURVE",
"262 550 CURVE SMOOTH",
"237 550 OFFCURVE",
"211 526 OFFCURVE",
"211 499 CURVE SMOOTH"
);
},
{
closed = 1;
nodes = (
"156 221 LINE SMOOTH",
"156 162 OFFCURVE",
"202 114 OFFCURVE",
"258 114 CURVE SMOOTH",
"315 114 OFFCURVE",
"364 162 OFFCURVE",
"364 221 CURVE SMOOTH",
"364 278 OFFCURVE",
"320 326 OFFCURVE",
"264 328 CURVE SMOOTH",
"208 330 OFFCURVE",
"156 283 OFFCURVE",
"156 221 CURVE SMOOTH"
);
},
{
closed = 1;
nodes = (
"27 215 LINE SMOOTH",
"27 315 OFFCURVE",
"76 372 OFFCURVE",
"123 400 CURVE",
"93 431 OFFCURVE",
"90 467 OFFCURVE",
"90 489 CURVE SMOOTH",
"90 597 OFFCURVE",
"165 671 OFFCURVE",
"259 671 CURVE SMOOTH",
"353 671 OFFCURVE",
"431 597 OFFCURVE",
"431 493 CURVE SMOOTH",
"431 467 OFFCURVE",
"426 432 OFFCURVE",
"394 400 CURVE",
"441 369 OFFCURVE",
"489 313 OFFCURVE",
"489 215 CURVE SMOOTH",
"489 99 OFFCURVE",
"402 -8 OFFCURVE",
"257 -8 CURVE SMOOTH",
"111 -8 OFFCURVE",
"27 99 OFFCURVE",
"27 215 CURVE SMOOTH"
);
}
);
width = 521;
}
);
unicode = 0038;
},
{
glyphname = nine;
lastChange = "2016-08-26 16:01:03 +0000";
layers = (
{
hints = (
{
horizontal = 1;
place = "{633, -20}";
target = down;
type = TopGhost;
},
{
horizontal = 1;
place = "{-8, 21}";
target = up;
type = BottomGhost;
}
);
layerId = UUID0;
paths = (
{
closed = 1;
nodes = (
"445 432 LINE",
"445 536 OFFCURVE",
"360 619 OFFCURVE",
"255 619 CURVE SMOOTH",
"150 619 OFFCURVE",
"64 536 OFFCURVE",
"64 432 CURVE SMOOTH",
"64 328 OFFCURVE",
"150 244 OFFCURVE",
"255 244 CURVE SMOOTH",
"360 244 OFFCURVE",
"445 328 OFFCURVE",
"445 432 CURVE"
);
},
{
closed = 1;
nodes = (
"458 432 LINE",
"458 238 OFFCURVE",
"275 101 OFFCURVE",
"126 -8 CURVE",
"123 -4 OFFCURVE",
"119 1 OFFCURVE",
"116 5 CURVE",
"294 123 OFFCURVE",
"386 237 OFFCURVE",
"417 311 CURVE",
"380 262 OFFCURVE",
"321 230 OFFCURVE",
"254 230 CURVE SMOOTH",
"141 230 OFFCURVE",
"50 321 OFFCURVE",
"50 432 CURVE SMOOTH",
"50 543 OFFCURVE",
"141 633 OFFCURVE",
"254 633 CURVE SMOOTH",
"367 633 OFFCURVE",
"458 543 OFFCURVE",
"458 432 CURVE"
);
}
);
width = 525;
},
{
hints = (
{
horizontal = 1;
place = "{636, -20}";
target = down;
type = TopGhost;
},
{
horizontal = 1;
place = "{-9, 21}";
target = up;
type = BottomGhost;
}
);
layerId = UUID1;
paths = (
{
closed = 1;
nodes = (
"379 422 LINE",
"379 480 OFFCURVE",
"336 531 OFFCURVE",
"279 531 CURVE SMOOTH",
"222 531 OFFCURVE",
"173 480 OFFCURVE",
"173 422 CURVE SMOOTH",
"173 363 OFFCURVE",
"223 316 OFFCURVE",
"279 316 CURVE SMOOTH",
"335 316 OFFCURVE",
"379 363 OFFCURVE",
"379 422 CURVE"
);
},
{
closed = 1;
nodes = (
"509 422 LINE",
"509 200 OFFCURVE",
"277 61 OFFCURVE",
"182 -8 CURVE",
"156 23 OFFCURVE",
"130 56 OFFCURVE",
"105 87 CURVE",
"139 110 OFFCURVE",
"257 173 OFFCURVE",
"284 195 CURVE",
"282 195 OFFCURVE",
"281 195 OFFCURVE",
"280 195 CURVE SMOOTH",
"155 195 OFFCURVE",
"48 294 OFFCURVE",
"48 421 CURVE SMOOTH",
"48 548 OFFCURVE",
"155 652 OFFCURVE",
"279 652 CURVE SMOOTH",
"373 652 OFFCURVE",
"509 592 OFFCURVE",
"509 422 CURVE"
);
}
);
width = 536;
}
);
unicode = 0039;
},
{
glyphname = fraction;
lastChange = "2016-08-26 16:01:03 +0000";
layers = (
{
hints = (
{
horizontal = 1;
place = "{306, 21}";
target = up;
type = BottomGhost;
},
{
horizontal = 1;
place = "{1061, -20}";
target = down;
type = TopGhost;
}
);
layerId = UUID0;
paths = (
{
closed = 1;
nodes = (
"4 0 LINE",
"97 252 OFFCURVE",
"189 503 OFFCURVE",
"282 755 CURVE",
"296 755 LINE",
"203 503 OFFCURVE",
"111 252 OFFCURVE",
"18 0 CURVE"
);
}
);
width = 300;
},
{
hints = (
{
horizontal = 1;
place = "{181, 21}";
target = up;
type = BottomGhost;
},
{
horizontal = 1;
place = "{936, -20}";
target = down;
type = TopGhost;
}
);
layerId = UUID1;
paths = (
{
closed = 1;
nodes = (
"-55 0 LINE",
"40 257 OFFCURVE",
"134 513 OFFCURVE",
"229 770 CURVE",
"355 770 LINE",
"260 513 OFFCURVE",
"166 257 OFFCURVE",
"71 0 CURVE"
);
}
);
width = 300;
}
);
unicode = 2044;
},
{
glyphname = asterisk;
lastChange = "2016-08-26 16:01:03 +0000";
layers = (
{
hints = (
{
horizontal = 1;
place = "{720, -20}";
target = down;
type = TopGhost;
},
{
horizontal = 1;
place = "{434, 21}";
target = up;
type = BottomGhost;
}
);
layerId = UUID0;
paths = (
{
closed = 1;
nodes = (
"182 575 LINE",
"219 554 OFFCURVE",
"257 532 OFFCURVE",
"294 511 CURVE",
"291 506 OFFCURVE",
"288 501 OFFCURVE",
"285 496 CURVE",
"248 518 OFFCURVE",
"211 540 OFFCURVE",
"174 562 CURVE",
"173 519 OFFCURVE",
"173 477 OFFCURVE",
"172 434 CURVE",
"158 434 LINE",
"158 561 LINE",
"121 540 OFFCURVE",
"85 519 OFFCURVE",
"48 498 CURVE",
"45 503 OFFCURVE",
"42 508 OFFCURVE",
"39 513 CURVE",
"76 534 OFFCURVE",
"113 555 OFFCURVE",
"150 576 CURVE",
"113 598 OFFCURVE",
"76 620 OFFCURVE",
"39 642 CURVE",
"41 646 OFFCURVE",
"44 650 OFFCURVE",
"46 654 CURVE",
"83 632 OFFCURVE",
"121 611 OFFCURVE",
"158 589 CURVE",
"158 720 LINE",
"176 720 LINE",
"175 676 OFFCURVE",
"175 633 OFFCURVE",
"174 589 CURVE",
"212 610 OFFCURVE",
"250 632 OFFCURVE",
"288 653 CURVE",
"290 649 OFFCURVE",
"293 645 OFFCURVE",
"295 641 CURVE",
"257 619 OFFCURVE",
"220 597 OFFCURVE",
"182 575 CURVE"
);
}
);
width = 335;
},
{
hints = (
{
horizontal = 1;
place = "{720, -20}";
target = down;
type = TopGhost;
},
{
horizontal = 1;
place = "{434, 21}";
target = up;
type = BottomGhost;
}
);
layerId = UUID1;
paths = (
{
closed = 1;
nodes = (
"250 575 LINE",
"271 563 OFFCURVE",
"292 551 OFFCURVE",
"313 539 CURVE",
"299 515 OFFCURVE",
"285 490 OFFCURVE",
"271 466 CURVE",
"250 478 OFFCURVE",
"230 491 OFFCURVE",
"209 503 CURVE",
"209 480 OFFCURVE",
"208 457 OFFCURVE",
"208 434 CURVE",
"128 434 LINE",
"128 504 LINE",
"108 492 OFFCURVE",
"87 481 OFFCURVE",
"67 469 CURVE",
"53 493 OFFCURVE",
"39 518 OFFCURVE",
"25 542 CURVE",
"46 553 OFFCURVE",
"66 565 OFFCURVE",
"87 576 CURVE",
"67 588 OFFCURVE",
"46 601 OFFCURVE",
"26 613 CURVE",
"39 636 OFFCURVE",
"52 659 OFFCURVE",
"65 682 CURVE",
"86 670 OFFCURVE",
"107 657 OFFCURVE",
"128 645 CURVE",
"128 720 LINE",
"212 720 LINE",
"212 695 OFFCURVE",
"211 670 OFFCURVE",
"211 645 CURVE",
"232 657 OFFCURVE",
"254 669 OFFCURVE",
"275 681 CURVE",
"288 658 OFFCURVE",
"302 635 OFFCURVE",
"315 612 CURVE",
"293 600 OFFCURVE",
"272 587 OFFCURVE",
"250 575 CURVE"
);
}
);
width = 335;
}
);
unicode = 002A;
},
{
glyphname = backslash;
lastChange = "2016-08-26 16:01:03 +0000";
layers = (
{
hints = (
{
horizontal = 1;
place = "{736, -20}";
target = down;
type = TopGhost;
},
{
horizontal = 1;
place = "{-19, 21}";
target = up;
type = BottomGhost;
}
);
layerId = UUID0;
paths = (
{
closed = 1;
nodes = (
"31 736 LINE",
"124 484 OFFCURVE",
"216 233 OFFCURVE",
"309 -19 CURVE",
"295 -19 LINE",
"202 233 OFFCURVE",
"110 484 OFFCURVE",
"17 736 CURVE"
);
}
);
width = 320;
},
{
hints = (
{
horizontal = 1;
place = "{736, -20}";
target = down;
type = TopGhost;
},
{
horizontal = 1;
place = "{-19, 21}";
target = up;
type = BottomGhost;
}
);
layerId = UUID1;
paths = (
{
closed = 1;
nodes = (
"132 751 LINE",
"227 494 OFFCURVE",
"321 238 OFFCURVE",
"416 -19 CURVE",
"274 -19 LINE",
"179 238 OFFCURVE",
"85 494 OFFCURVE",
"-10 751 CURVE"
);
}
);
width = 430;
}
);
unicode = 005C;
},
{
glyphname = bullet;
lastChange = "2016-08-26 16:01:03 +0000";
layers = (
{
hints = (
{
place = "{174, 131}";
},
{
horizontal = 1;
place = "{235, 131}";
}
);
layerId = UUID0;
paths = (
{
closed = 1;
nodes = (
"174 300 LINE SMOOTH",
"174 337 OFFCURVE",
"203 366 OFFCURVE",
"239 366 CURVE SMOOTH",
"276 366 OFFCURVE",
"305 337 OFFCURVE",
"305 300 CURVE SMOOTH",
"305 264 OFFCURVE",
"276 235 OFFCURVE",
"239 235 CURVE SMOOTH",
"203 235 OFFCURVE",
"174 264 OFFCURVE",
"174 300 CURVE SMOOTH"
);
}
);
width = 479;
},
{
hints = (
{
place = "{113, 254}";
},
{
horizontal = 1;
place = "{174, 254}";
}
);
layerId = UUID1;
paths = (
{
closed = 1;
nodes = (
"80 306 LINE SMOOTH",
"80 398 OFFCURVE",
"153 473 OFFCURVE",
"244 473 CURVE SMOOTH",
"336 473 OFFCURVE",
"410 398 OFFCURVE",
"410 306 CURVE SMOOTH",
"410 213 OFFCURVE",
"336 142 OFFCURVE",
"244 142 CURVE SMOOTH",
"153 142 OFFCURVE",
"80 213 OFFCURVE",
"80 306 CURVE SMOOTH"
);
}
);
width = 488;
}
);
unicode = 2022;
},
{
glyphname = colon;
lastChange = "2016-08-26 16:01:03 +0000";
layers = (
{
hints = (
{
place = "{65, 40}";
},
{
horizontal = 1;
place = "{0, 21}";
target = up;
type = BottomGhost;
},
{
horizontal = 1;
place = "{290, -20}";
target = down;
type = TopGhost;
}
);
layerId = UUID0;
paths = (
{
closed = 1;
nodes = (
"65 270 LINE SMOOTH",
"65 281 OFFCURVE",
"74 290 OFFCURVE",
"85 290 CURVE SMOOTH",
"96 290 OFFCURVE",
"105 281 OFFCURVE",
"105 270 CURVE SMOOTH",
"105 259 OFFCURVE",
"96 250 OFFCURVE",
"85 250 CURVE SMOOTH",
"74 250 OFFCURVE",
"65 259 OFFCURVE",
"65 270 CURVE SMOOTH"
);
},
{
closed = 1;
nodes = (
"65 20 LINE SMOOTH",
"65 31 OFFCURVE",
"74 40 OFFCURVE",
"85 40 CURVE SMOOTH",
"96 40 OFFCURVE",
"105 31 OFFCURVE",
"105 20 CURVE SMOOTH",
"105 9 OFFCURVE",
"96 0 OFFCURVE",
"85 0 CURVE SMOOTH",
"74 0 OFFCURVE",
"65 9 OFFCURVE",
"65 20 CURVE SMOOTH"
);
}
);
width = 175;
},
{
hints = (
{
place = "{33, 103}";
},
{
horizontal = 1;
place = "{0, 21}";
target = up;
type = BottomGhost;
},
{
horizontal = 1;
place = "{355, -20}";
target = down;
type = TopGhost;
}
);
layerId = UUID1;
paths = (
{
closed = 1;
nodes = (
"15 357 LINE SMOOTH",
"15 398 OFFCURVE",
"51 430 OFFCURVE",
"87 430 CURVE SMOOTH",
"120 430 OFFCURVE",
"157 398 OFFCURVE",
"157 357 CURVE SMOOTH",
"157 313 OFFCURVE",
"120 285 OFFCURVE",
"87 285 CURVE SMOOTH",
"51 285 OFFCURVE",
"15 313 OFFCURVE",
"15 357 CURVE SMOOTH"
);
},
{
closed = 1;
nodes = (
"15 72 LINE SMOOTH",
"15 113 OFFCURVE",
"51 145 OFFCURVE",
"87 145 CURVE SMOOTH",
"120 145 OFFCURVE",
"157 113 OFFCURVE",
"157 72 CURVE SMOOTH",
"157 28 OFFCURVE",
"120 0 OFFCURVE",
"87 0 CURVE SMOOTH",
"51 0 OFFCURVE",
"15 28 OFFCURVE",
"15 72 CURVE SMOOTH"
);
}
);
width = 179;
}
);
unicode = 003A;
},
{
glyphname = comma;
lastChange = "2016-08-26 16:01:03 +0000";
layers = (
{
hints = (
{
horizontal = 1;
place = "{86, -20}";
target = down;
type = TopGhost;
},
{
horizontal = 1;
place = "{-120, 21}";
target = up;
type = BottomGhost;
}
);
layerId = UUID0;
paths = (
{
closed = 1;
nodes = (
"127 86 LINE",
"98 17 OFFCURVE",
"70 -51 OFFCURVE",
"41 -120 CURVE",
"27 -120 LINE",
"53 -51 OFFCURVE",
"78 17 OFFCURVE",
"104 86 CURVE"
);
}
);
width = 200;
},
{
hints = (
{
horizontal = 1;
place = "{86, -20}";
target = down;
type = TopGhost;
},
{
horizontal = 1;
place = "{-120, 21}";
target = up;
type = BottomGhost;
}
);
layerId = UUID1;
paths = (
{
closed = 1;
nodes = (
"188 88 LINE",
"158 17 OFFCURVE",
"129 -52 OFFCURVE",
"100 -122 CURVE",
"-12 -122 LINE",
"15 -52 OFFCURVE",
"40 17 OFFCURVE",
"67 88 CURVE"
);
}
);
width = 205;
}
);
unicode = 002C;
},
{
glyphname = ellipsis;
lastChange = "2016-08-26 16:01:03 +0000";
layers = (
{
hints = (
{
horizontal = 1;
place = "{0, 21}";
target = up;
type = BottomGhost;
},
{
horizontal = 1;
place = "{40, -20}";
target = down;
type = TopGhost;
},
{
horizontal = 1;
place = "{0, 21}";
target = up;
type = BottomGhost;
},
{
horizontal = 1;
place = "{40, -20}";
target = down;
type = TopGhost;
},
{
horizontal = 1;
place = "{0, 21}";
target = up;
type = BottomGhost;
},
{
horizontal = 1;
place = "{40, -20}";
target = down;
type = TopGhost;
}
);
layerId = UUID0;
paths = (
{
closed = 1;
nodes = (
"66 20 LINE SMOOTH",
"66 31 OFFCURVE",
"75 40 OFFCURVE",
"86 40 CURVE SMOOTH",
"97 40 OFFCURVE",
"106 31 OFFCURVE",
"106 20 CURVE SMOOTH",
"106 9 OFFCURVE",
"97 0 OFFCURVE",
"86 0 CURVE SMOOTH",
"75 0 OFFCURVE",
"66 9 OFFCURVE",
"66 20 CURVE SMOOTH"
);
},
{
closed = 1;
nodes = (
"229 20 LINE SMOOTH",
"229 31 OFFCURVE",
"238 40 OFFCURVE",
"249 40 CURVE SMOOTH",
"260 40 OFFCURVE",
"269 31 OFFCURVE",
"269 20 CURVE SMOOTH",
"269 9 OFFCURVE",
"260 0 OFFCURVE",
"249 0 CURVE SMOOTH",
"238 0 OFFCURVE",
"229 9 OFFCURVE",
"229 20 CURVE SMOOTH"
);
},
{
closed = 1;
nodes = (
"392 20 LINE SMOOTH",
"392 31 OFFCURVE",
"401 40 OFFCURVE",
"412 40 CURVE SMOOTH",
"423 40 OFFCURVE",
"432 31 OFFCURVE",
"432 20 CURVE SMOOTH",
"432 9 OFFCURVE",
"423 0 OFFCURVE",
"412 0 CURVE SMOOTH",
"401 0 OFFCURVE",
"392 9 OFFCURVE",
"392 20 CURVE SMOOTH"
);
}
);
width = 489;
},
{
hints = (
{
horizontal = 1;
place = "{0, 21}";
target = up;
type = BottomGhost;
},
{
horizontal = 1;
place = "{105, -20}";
target = down;
type = TopGhost;
},
{
horizontal = 1;
place = "{0, 21}";
target = up;
type = BottomGhost;
},
{
horizontal = 1;
place = "{105, -20}";
target = down;
type = TopGhost;
},
{
horizontal = 1;
place = "{0, 21}";
target = up;
type = BottomGhost;
},
{
horizontal = 1;
place = "{105, -20}";
target = down;
type = TopGhost;
}
);
layerId = UUID1;
paths = (
{
closed = 1;
nodes = (
"15 72 LINE SMOOTH",
"15 113 OFFCURVE",
"51 145 OFFCURVE",
"87 145 CURVE SMOOTH",
"120 145 OFFCURVE",
"157 113 OFFCURVE",
"157 72 CURVE SMOOTH",
"157 28 OFFCURVE",
"120 0 OFFCURVE",
"87 0 CURVE SMOOTH",
"51 0 OFFCURVE",
"15 28 OFFCURVE",
"15 72 CURVE SMOOTH"
);
},
{
closed = 1;
nodes = (
"182 72 LINE SMOOTH",
"182 113 OFFCURVE",
"218 145 OFFCURVE",
"254 145 CURVE SMOOTH",
"287 145 OFFCURVE",
"324 113 OFFCURVE",
"324 72 CURVE SMOOTH",
"324 28 OFFCURVE",
"287 0 OFFCURVE",
"254 0 CURVE SMOOTH",
"218 0 OFFCURVE",
"182 28 OFFCURVE",
"182 72 CURVE SMOOTH"
);
},
{
closed = 1;
nodes = (
"349 72 LINE SMOOTH",
"349 113 OFFCURVE",
"385 145 OFFCURVE",
"421 145 CURVE SMOOTH",
"454 145 OFFCURVE",
"491 113 OFFCURVE",
"491 72 CURVE SMOOTH",
"491 28 OFFCURVE",
"454 0 OFFCURVE",
"421 0 CURVE SMOOTH",
"385 0 OFFCURVE",
"349 28 OFFCURVE",
"349 72 CURVE SMOOTH"
);
}
);
width = 501;
}
);
unicode = 2026;
},
{
glyphname = exclam;
lastChange = "2016-08-26 16:01:03 +0000";
layers = (
{
hints = (
{
horizontal = 1;
place = "{750, -20}";
target = down;
type = TopGhost;
},
{
horizontal = 1;
place = "{36, 21}";
target = up;
type = BottomGhost;
}
);
layerId = UUID0;
paths = (
{
closed = 1;
nodes = (
"100 36 LINE",
"93 36 LINE",
"81 48 LINE",
"81 56 LINE",
"81 65 LINE",
"93 76 LINE",
"100 76 LINE",
"108 76 LINE",
"120 65 LINE",
"120 56 LINE",
"120 48 LINE",
"108 36 LINE",
"100 36 LINE"
);
},
{
closed = 1;
nodes = (
"93 750 LINE",
"107 750 LINE",
"107 166 LINE",
"93 166 LINE"
);
}
);
width = 201;
},
{
hints = (
{
horizontal = 1;
place = "{750, -20}";
target = down;
type = TopGhost;
},
{
horizontal = 1;
place = "{0, 21}";
target = up;
type = BottomGhost;
}
);
layerId = UUID1;
paths = (
{
closed = 1;
nodes = (
"102 -21 LINE",
"74 -21 LINE",
"30 20 LINE",
"30 52 LINE",
"30 84 LINE",
"74 124 LINE",
"102 124 LINE",
"128 124 LINE",
"172 84 LINE",
"172 52 LINE",
"172 20 LINE",
"128 -21 LINE",
"102 -21 LINE"
);
},
{
closed = 1;
nodes = (
"39 765 LINE",
"164 765 LINE",
"164 169 LINE",
"39 169 LINE"
);
}
);
width = 205;
}
);
unicode = 0021;
},
{
glyphname = numbersign;
lastChange = "2016-08-26 16:01:03 +0000";
layers = (
{
hints = (
{
horizontal = 1;
place = "{225, 196}";
},
{
horizontal = 1;
place = "{0, 21}";
target = up;
type = BottomGhost;
},
{
horizontal = 1;
place = "{643, -20}";
target = down;
type = TopGhost;
}
);
layerId = UUID0;
paths = (
{
closed = 1;
nodes = (
"182 407 LINE",
"175 351 OFFCURVE",
"169 295 OFFCURVE",
"162 239 CURVE",
"332 239 LINE",
"339 295 OFFCURVE",
"345 351 OFFCURVE",
"352 407 CURVE"
);
},
{
closed = 1;
nodes = (
"304 0 LINE",
"313 75 OFFCURVE",
"321 150 OFFCURVE",
"330 225 CURVE",
"160 225 LINE",
"151 150 OFFCURVE",
"143 75 OFFCURVE",
"134 0 CURVE",
"120 0 LINE",
"129 75 OFFCURVE",
"137 150 OFFCURVE",
"146 225 CURVE",
"29 225 LINE",
"29 230 OFFCURVE",
"30 234 OFFCURVE",
"30 239 CURVE",
"148 239 LINE",
"155 295 OFFCURVE",
"161 351 OFFCURVE",
"168 407 CURVE",
"52 407 LINE",
"52 412 OFFCURVE",
"53 416 OFFCURVE",
"53 421 CURVE",
"170 421 LINE",
"179 495 OFFCURVE",
"188 569 OFFCURVE",
"197 643 CURVE",
"211 643 LINE",
"202 569 OFFCURVE",
"193 495 OFFCURVE",
"184 421 CURVE",
"354 421 LINE",
"363 495 OFFCURVE",
"372 569 OFFCURVE",
"381 643 CURVE",
"395 643 LINE",
"386 569 OFFCURVE",
"377 495 OFFCURVE",
"368 421 CURVE",
"504 421 LINE",
"504 416 OFFCURVE",
"503 412 OFFCURVE",
"503 407 CURVE",
"366 407 LINE",
"359 351 OFFCURVE",
"353 295 OFFCURVE",
"346 239 CURVE",
"481 239 LINE",
"481 234 OFFCURVE",
"480 230 OFFCURVE",
"480 225 CURVE",
"344 225 LINE",
"335 150 OFFCURVE",
"327 75 OFFCURVE",
"318 0 CURVE"
);
}
);
width = 571;
},
{
hints = (
{
horizontal = 1;
place = "{188, 264}";
},
{
horizontal = 1;
place = "{0, 21}";
target = up;
type = BottomGhost;
},
{
horizontal = 1;
place = "{643, -20}";
target = down;
type = TopGhost;
}
);
layerId = UUID1;
paths = (
{
closed = 1;
nodes = (
"251 358 LINE",
"249 336 OFFCURVE",
"246 314 OFFCURVE",
"243 292 CURVE",
"305 292 LINE",
"307 314 OFFCURVE",
"310 336 OFFCURVE",
"312 358 CURVE"
);
},
{
closed = 1;
nodes = (
"270 0 LINE",
"276 57 OFFCURVE",
"284 113 OFFCURVE",
"290 170 CURVE",
"229 170 LINE",
"223 113 OFFCURVE",
"214 57 OFFCURVE",
"209 0 CURVE",
"82 0 LINE",
"88 57 OFFCURVE",
"96 113 OFFCURVE",
"102 170 CURVE",
"23 170 LINE",
"28 211 OFFCURVE",
"34 251 OFFCURVE",
"38 292 CURVE",
"117 292 LINE",
"120 314 OFFCURVE",
"122 336 OFFCURVE",
"125 358 CURVE",
"46 358 LINE",
"51 398 OFFCURVE",
"54 439 OFFCURVE",
"59 479 CURVE",
"138 479 LINE",
"146 539 OFFCURVE",
"153 596 OFFCURVE",
"161 656 CURVE",
"287 656 LINE",
"279 596 OFFCURVE",
"272 539 OFFCURVE",
"264 479 CURVE",
"326 479 LINE",
"333 539 OFFCURVE",
"341 596 OFFCURVE",
"348 656 CURVE",
"475 656 LINE",
"467 596 OFFCURVE",
"460 539 OFFCURVE",
"452 479 CURVE",
"536 479 LINE",
"532 439 OFFCURVE",
"529 398 OFFCURVE",
"524 358 CURVE",
"439 358 LINE",
"436 336 OFFCURVE",
"433 314 OFFCURVE",
"431 292 CURVE",
"516 292 LINE",
"511 251 OFFCURVE",
"505 211 OFFCURVE",
"501 170 CURVE",
"416 170 LINE",
"410 113 OFFCURVE",
"402 57 OFFCURVE",
"396 0 CURVE"
);
}
);
width = 582;
}
);
unicode = 0023;
},
{
glyphname = period;
lastChange = "2016-08-26 16:01:03 +0000";
layers = (
{
hints = (
{
horizontal = 1;
place = "{0, 21}";
target = up;
type = BottomGhost;
},
{
horizontal = 1;
place = "{40, -20}";
target = down;
type = TopGhost;
}
);
layerId = UUID0;
paths = (
{
closed = 1;
nodes = (
"66 20 LINE SMOOTH",
"66 31 OFFCURVE",
"75 40 OFFCURVE",
"86 40 CURVE SMOOTH",
"97 40 OFFCURVE",
"106 31 OFFCURVE",
"106 20 CURVE SMOOTH",
"106 9 OFFCURVE",
"97 0 OFFCURVE",
"86 0 CURVE SMOOTH",
"75 0 OFFCURVE",
"66 9 OFFCURVE",
"66 20 CURVE SMOOTH"
);
}
);
width = 163;
},
{
hints = (
{
horizontal = 1;
place = "{0, 21}";
target = up;
type = BottomGhost;
},
{
horizontal = 1;
place = "{105, -20}";
target = down;
type = TopGhost;
}
);
layerId = UUID1;
paths = (
{
closed = 1;
nodes = (
"15 72 LINE SMOOTH",
"15 113 OFFCURVE",
"51 145 OFFCURVE",
"87 145 CURVE SMOOTH",
"120 145 OFFCURVE",
"157 113 OFFCURVE",
"157 72 CURVE SMOOTH",
"157 28 OFFCURVE",
"120 0 OFFCURVE",
"87 0 CURVE SMOOTH",
"51 0 OFFCURVE",
"15 28 OFFCURVE",
"15 72 CURVE SMOOTH"
);
}
);
width = 167;
}
);
unicode = 002E;
},
{
glyphname = question;
lastChange = "2016-08-26 16:01:03 +0000";
layers = (
{
hints = (
{
horizontal = 1;
place = "{25, 21}";
target = up;
type = BottomGhost;
},
{
horizontal = 1;
place = "{732, -20}";
target = down;
type = TopGhost;
}
);
layerId = UUID0;
paths = (
{
closed = 1;
nodes = (
"44 596 LINE",
"40 597 OFFCURVE",
"35 598 OFFCURVE",
"31 599 CURVE",
"57 676 OFFCURVE",
"130 732 OFFCURVE",
"216 732 CURVE SMOOTH",
"326 732 OFFCURVE",
"412 644 OFFCURVE",
"412 537 CURVE SMOOTH",
"412 466 OFFCURVE",
"374 413 OFFCURVE",
"314 370 CURVE SMOOTH",
"262 332 OFFCURVE",
"222 330 OFFCURVE",
"222 242 CURVE SMOOTH",
"222 164 LINE",
"208 164 LINE",
"208 261 LINE SMOOTH",
"208 343 OFFCURVE",
"274 351 OFFCURVE",
"339 408 CURVE SMOOTH",
"380 444 OFFCURVE",
"398 488 OFFCURVE",
"398 537 CURVE SMOOTH",
"398 641 OFFCURVE",
"318 718 OFFCURVE",
"216 718 CURVE SMOOTH",
"137 718 OFFCURVE",
"67 669 OFFCURVE",
"44 596 CURVE"
);
},
{
closed = 1;
nodes = (
"215 25 LINE SMOOTH",
"206 25 OFFCURVE",
"196 34 OFFCURVE",
"196 45 CURVE SMOOTH",
"196 57 OFFCURVE",
"206 65 OFFCURVE",
"215 65 CURVE SMOOTH",
"225 65 OFFCURVE",
"235 57 OFFCURVE",
"235 45 CURVE SMOOTH",
"235 34 OFFCURVE",
"225 25 OFFCURVE",
"215 25 CURVE SMOOTH"
);
}
);
width = 452;
},
{
hints = (
{
horizontal = 1;
place = "{0, 21}";
target = up;
type = BottomGhost;
},
{
horizontal = 1;
place = "{732, -20}";
target = down;
type = TopGhost;
}
);
layerId = UUID1;
paths = (
{
closed = 1;
nodes = (
"157 538 LINE",
"121 551 OFFCURVE",
"84 565 OFFCURVE",
"48 579 CURVE",
"63 627 OFFCURVE",
"93 747 OFFCURVE",
"261 747 CURVE SMOOTH",
"373 747 OFFCURVE",
"461 657 OFFCURVE",
"461 548 CURVE SMOOTH",
"461 471 OFFCURVE",
"423 415 OFFCURVE",
"361 368 CURVE SMOOTH",
"332 346 OFFCURVE",
"267 309 OFFCURVE",
"267 247 CURVE SMOOTH",
"267 167 LINE",
"141 167 LINE",
"141 266 LINE SMOOTH",
"141 355 OFFCURVE",
"196 373 OFFCURVE",
"255 417 CURVE SMOOTH",
"307 455 OFFCURVE",
"333 498 OFFCURVE",
"333 548 CURVE SMOOTH",
"333 591 OFFCURVE",
"307 625 OFFCURVE",
"261 625 CURVE SMOOTH",
"188 625 OFFCURVE",
"176 599 OFFCURVE",
"157 538 CURVE"
);
},
{
closed = 1;
nodes = (
"202 -14 LINE SMOOTH",
"166 -14 OFFCURVE",
"130 14 OFFCURVE",
"130 57 CURVE SMOOTH",
"130 98 OFFCURVE",
"166 130 OFFCURVE",
"202 130 CURVE SMOOTH",
"236 130 OFFCURVE",
"272 98 OFFCURVE",
"272 57 CURVE SMOOTH",
"272 14 OFFCURVE",
"236 -14 OFFCURVE",
"202 -14 CURVE SMOOTH"
);
}
);
width = 462;
}
);
unicode = 003F;
},
{
glyphname = quotedbl;
lastChange = "2016-08-26 16:01:03 +0000";
layers = (
{
hints = (
{
place = "{63, 151}";
},
{
horizontal = 1;
place = "{472, 21}";
target = up;
type = BottomGhost;
},
{
horizontal = 1;
place = "{720, -20}";
target = down;
type = TopGhost;
}
);
layerId = UUID0;
paths = (
{
closed = 1;
nodes = (
"196 472 LINE",
"196 720 LINE",
"214 720 LINE",
"213 637 OFFCURVE",
"211 555 OFFCURVE",
"210 472 CURVE"
);
},
{
closed = 1;
nodes = (
"63 472 LINE",
"63 720 LINE",
"81 720 LINE",
"80 637 OFFCURVE",
"78 555 OFFCURVE",
"77 472 CURVE"
);
}
);
width = 293;
},
{
hints = (
{
place = "{63, 216}";
},
{
horizontal = 1;
place = "{472, 21}";
target = up;
type = BottomGhost;
},
{
horizontal = 1;
place = "{720, -20}";
target = down;
type = TopGhost;
}
);
layerId = UUID1;
paths = (
{
closed = 1;
nodes = (
"200 481 LINE",
"200 734 LINE",
"322 734 LINE",
"321 650 OFFCURVE",
"319 566 OFFCURVE",
"318 481 CURVE"
);
},
{
closed = 1;
nodes = (
"64 481 LINE",
"64 734 LINE",
"186 734 LINE",
"185 650 OFFCURVE",
"183 566 OFFCURVE",
"182 481 CURVE"
);
}
);
width = 366;
}
);
unicode = 0022;
},
{
glyphname = quotesingle;
lastChange = "2016-08-26 16:01:03 +0000";
layers = (
{
hints = (
{
horizontal = 1;
place = "{472, 21}";
target = up;
type = BottomGhost;
},
{
horizontal = 1;
place = "{720, -20}";
target = down;
type = TopGhost;
}
);
layerId = UUID0;
paths = (
{
closed = 1;
nodes = (
"67 472 LINE",
"67 720 LINE",
"85 720 LINE",
"84 637 OFFCURVE",
"82 555 OFFCURVE",
"81 472 CURVE"
);
}
);
width = 147;
},
{
hints = (
{
horizontal = 1;
place = "{472, 21}";
target = up;
type = BottomGhost;
},
{
horizontal = 1;
place = "{720, -20}";
target = down;
type = TopGhost;
}
);
layerId = UUID1;
paths = (
{
closed = 1;
nodes = (
"28 481 LINE",
"28 734 LINE",
"152 734 LINE",
"151 650 OFFCURVE",
"149 566 OFFCURVE",
"148 481 CURVE"
);
}
);
width = 175;
}
);
unicode = 0027;
},
{
glyphname = semicolon;
lastChange = "2016-08-26 16:01:03 +0000";
layers = (
{
hints = (
{
horizontal = 1;
place = "{-120, 21}";
target = up;
type = BottomGhost;
},
{
horizontal = 1;
place = "{290, -20}";
target = down;
type = TopGhost;
}
);
layerId = UUID0;
paths = (
{
closed = 1;
nodes = (
"88 270 LINE SMOOTH",
"88 281 OFFCURVE",
"97 290 OFFCURVE",
"108 290 CURVE SMOOTH",
"119 290 OFFCURVE",
"128 281 OFFCURVE",
"128 270 CURVE SMOOTH",
"128 259 OFFCURVE",
"119 250 OFFCURVE",
"108 250 CURVE SMOOTH",
"97 250 OFFCURVE",
"88 259 OFFCURVE",
"88 270 CURVE SMOOTH"
);
},
{
closed = 1;
nodes = (
"112 86 LINE",
"83 17 OFFCURVE",
"55 -51 OFFCURVE",
"26 -120 CURVE",
"12 -120 LINE",
"38 -51 OFFCURVE",
"63 17 OFFCURVE",
"89 86 CURVE"
);
}
);
width = 201;
},
{
hints = (
{
horizontal = 1;
place = "{-120, 21}";
target = up;
type = BottomGhost;
},
{
horizontal = 1;
place = "{355, -20}";
target = down;
type = TopGhost;
}
);
layerId = UUID1;
paths = (
{
closed = 1;
nodes = (
"52 327 LINE SMOOTH",
"52 368 OFFCURVE",
"88 400 OFFCURVE",
"123 400 CURVE SMOOTH",
"157 400 OFFCURVE",
"193 368 OFFCURVE",
"193 327 CURVE SMOOTH",
"193 283 OFFCURVE",
"157 255 OFFCURVE",
"123 255 CURVE SMOOTH",
"88 255 OFFCURVE",
"52 283 OFFCURVE",
"52 327 CURVE SMOOTH"
);
},
{
closed = 1;
nodes = (
"174 88 LINE",
"144 17 OFFCURVE",
"115 -52 OFFCURVE",
"86 -122 CURVE",
"-26 -122 LINE",
"1 -52 OFFCURVE",
"26 17 OFFCURVE",
"53 88 CURVE"
);
}
);
width = 205;
}
);
unicode = 003B;
},
{
glyphname = slash;
lastChange = "2016-08-26 16:01:03 +0000";
layers = (
{
hints = (
{
horizontal = 1;
place = "{-19, 21}";
target = up;
type = BottomGhost;
},
{
horizontal = 1;
place = "{736, -20}";
target = down;
type = TopGhost;
}
);
layerId = UUID0;
paths = (
{
closed = 1;
nodes = (
"17 -19 LINE",
"110 233 OFFCURVE",
"202 484 OFFCURVE",
"295 736 CURVE",
"309 736 LINE",
"216 484 OFFCURVE",
"124 233 OFFCURVE",
"31 -19 CURVE"
);
}
);
width = 322;
},
{
hints = (
{
horizontal = 1;
place = "{-19, 21}";
target = up;
type = BottomGhost;
},
{
horizontal = 1;
place = "{736, -20}";
target = down;
type = TopGhost;
}
);
layerId = UUID1;
paths = (
{
closed = 1;
nodes = (
"17 -19 LINE",
"112 238 OFFCURVE",
"206 494 OFFCURVE",
"301 751 CURVE",
"427 751 LINE",
"332 494 OFFCURVE",
"238 238 OFFCURVE",
"143 -19 CURVE"
);
}
);
width = 421;
}
);
unicode = 002F;
},
{
glyphname = underscore;
lastChange = "2016-08-26 16:01:03 +0000";
layers = (
{
hints = (
{
horizontal = 1;
place = "{14, -20}";
target = down;
type = TopGhost;
},
{
horizontal = 1;
place = "{0, 21}";
target = up;
type = BottomGhost;
}
);
layerId = UUID0;
paths = (
{
closed = 1;
nodes = (
"500 0 LINE",
"100 0 LINE",
"100 14 LINE",
"500 14 LINE"
);
}
);
width = 600;
},
{
hints = (
{
horizontal = 1;
place = "{81, -20}";
target = down;
type = TopGhost;
},
{
horizontal = 1;
place = "{0, 21}";
target = up;
type = BottomGhost;
}
);
layerId = UUID1;
paths = (
{
closed = 1;
nodes = (
"510 0 LINE",
"102 0 LINE",
"102 121 LINE",
"510 121 LINE"
);
}
);
width = 612;
}
);
unicode = 005F;
},
{
glyphname = braceleft;
lastChange = "2016-08-26 16:01:03 +0000";
layers = (
{
hints = (
{
horizontal = 1;
place = "{287, 24}";
}
);
layerId = UUID0;
paths = (
{
closed = 1;
nodes = (
"30 287 LINE",
"30 311 LINE",
"95 314 OFFCURVE",
"109 392 OFFCURVE",
"109 446 CURVE SMOOTH",
"109 628 LINE SMOOTH",
"109 749 OFFCURVE",
"152 746 OFFCURVE",
"195 746 CURVE SMOOTH",
"232 746 LINE",
"232 732 LINE",
"175 732 LINE SMOOTH",
"134 732 OFFCURVE",
"123 700 OFFCURVE",
"123 620 CURVE SMOOTH",
"123 470 LINE SMOOTH",
"123 345 OFFCURVE",
"92 318 OFFCURVE",
"57 299 CURVE",
"92 279 OFFCURVE",
"123 251 OFFCURVE",
"123 128 CURVE SMOOTH",
"123 -22 LINE SMOOTH",
"123 -102 OFFCURVE",
"134 -134 OFFCURVE",
"175 -134 CURVE SMOOTH",
"232 -134 LINE",
"232 -148 LINE",
"195 -148 LINE SMOOTH",
"142 -148 OFFCURVE",
"109 -152 OFFCURVE",
"109 6 CURVE SMOOTH",
"109 152 LINE SMOOTH",
"109 206 OFFCURVE",
"95 284 OFFCURVE",
"30 287 CURVE"
);
}
);
width = 272;
},
{
hints = (
{
horizontal = 1;
place = "{256, 81}";
}
);
layerId = UUID1;
paths = (
{
closed = 1;
nodes = (
"31 243 LINE",
"31 359 LINE",
"97 362 OFFCURVE",
"112 441 OFFCURVE",
"112 497 CURVE SMOOTH",
"112 641 LINE SMOOTH",
"112 769 OFFCURVE",
"173 761 OFFCURVE",
"251 761 CURVE SMOOTH",
"330 761 LINE",
"330 639 LINE",
"293 639 LINE SMOOTH",
"251 639 OFFCURVE",
"239 631 OFFCURVE",
"239 540 CURVE SMOOTH",
"239 420 LINE SMOOTH",
"239 362 OFFCURVE",
"195 320 OFFCURVE",
"174 303 CURVE",
"195 289 OFFCURVE",
"239 243 OFFCURVE",
"239 188 CURVE SMOOTH",
"239 69 LINE SMOOTH",
"239 -22 OFFCURVE",
"251 -31 OFFCURVE",
"293 -31 CURVE SMOOTH",
"330 -31 LINE",
"330 -153 LINE",
"251 -153 LINE SMOOTH",
"182 -153 OFFCURVE",
"112 -161 OFFCURVE",
"112 -53 CURVE SMOOTH",
"112 105 LINE SMOOTH",
"112 161 OFFCURVE",
"97 240 OFFCURVE",
"31 243 CURVE"
);
}
);
width = 355;
}
);
unicode = 007B;
},
{
glyphname = braceright;
lastChange = "2016-08-26 16:01:03 +0000";
layers = (
{
hints = (
{
horizontal = 1;
place = "{287, 24}";
}
);
layerId = UUID0;
paths = (
{
closed = 1;
nodes = (
"290 311 LINE",
"290 287 LINE",
"206 283 OFFCURVE",
"211 161 OFFCURVE",
"211 116 CURVE SMOOTH",
"211 -30 LINE SMOOTH",
"211 -153 OFFCURVE",
"168 -148 OFFCURVE",
"125 -148 CURVE SMOOTH",
"88 -148 LINE",
"88 -134 LINE",
"145 -134 LINE SMOOTH",
"186 -134 OFFCURVE",
"197 -102 OFFCURVE",
"197 -22 CURVE SMOOTH",
"197 165 LINE SMOOTH",
"197 255 OFFCURVE",
"238 285 OFFCURVE",
"263 299 CURVE",
"228 318 OFFCURVE",
"197 345 OFFCURVE",
"197 470 CURVE SMOOTH",
"197 620 LINE SMOOTH",
"197 700 OFFCURVE",
"186 732 OFFCURVE",
"145 732 CURVE SMOOTH",
"88 732 LINE",
"88 746 LINE",
"125 746 LINE SMOOTH",
"169 746 OFFCURVE",
"211 750 OFFCURVE",
"211 628 CURVE SMOOTH",
"211 482 LINE SMOOTH",
"211 436 OFFCURVE",
"206 315 OFFCURVE",
"290 311 CURVE"
);
}
);
width = 320;
},
{
hints = (
{
horizontal = 1;
place = "{256, 81}";
}
);
layerId = UUID1;
paths = (
{
closed = 1;
nodes = (
"296 359 LINE",
"296 243 LINE",
"242 242 OFFCURVE",
"215 187 OFFCURVE",
"215 126 CURVE SMOOTH",
"215 -32 LINE SMOOTH",
"215 -159 OFFCURVE",
"154 -153 OFFCURVE",
"76 -153 CURVE SMOOTH",
"-3 -153 LINE",
"-3 -31 LINE",
"34 -31 LINE SMOOTH",
"76 -31 OFFCURVE",
"87 -22 OFFCURVE",
"87 69 CURVE SMOOTH",
"87 167 LINE SMOOTH",
"87 244 OFFCURVE",
"128 286 OFFCURVE",
"153 303 CURVE",
"132 320 OFFCURVE",
"87 362 OFFCURVE",
"87 420 CURVE SMOOTH",
"87 540 LINE SMOOTH",
"87 631 OFFCURVE",
"76 639 OFFCURVE",
"34 639 CURVE SMOOTH",
"-3 639 LINE",
"-3 761 LINE",
"76 761 LINE SMOOTH",
"150 761 OFFCURVE",
"215 770 OFFCURVE",
"215 641 CURVE SMOOTH",
"215 476 LINE SMOOTH",
"215 416 OFFCURVE",
"242 360 OFFCURVE",
"296 359 CURVE"
);
}
);
width = 327;
}
);
unicode = 007D;
},
{
glyphname = bracketleft;
lastChange = "2016-08-26 16:01:03 +0000";
layers = (
{
hints = (
{
horizontal = 1;
place = "{-149, 21}";
target = up;
type = BottomGhost;
},
{
horizontal = 1;
place = "{746, -20}";
target = down;
type = TopGhost;
}
);
layerId = UUID0;
paths = (
{
closed = 1;
nodes = (
"83 -149 LINE",
"83 746 LINE",
"246 746 LINE",
"246 732 LINE",
"99 732 LINE",
"99 -135 LINE",
"246 -135 LINE",
"246 -149 LINE"
);
}
);
width = 338;
},
{
hints = (
{
horizontal = 1;
place = "{-149, 21}";
target = up;
type = BottomGhost;
},
{
horizontal = 1;
place = "{746, -20}";
target = down;
type = TopGhost;
}
);
layerId = UUID1;
paths = (
{
closed = 1;
nodes = (
"85 -152 LINE",
"85 761 LINE",
"298 761 LINE",
"298 639 LINE",
"209 639 LINE",
"209 -31 LINE",
"298 -31 LINE",
"298 -152 LINE"
);
}
);
width = 345;
}
);
unicode = 005B;
},
{
glyphname = bracketright;
lastChange = "2016-08-26 16:01:03 +0000";
layers = (
{
hints = (
{
horizontal = 1;
place = "{746, -20}";
target = down;
type = TopGhost;
},
{
horizontal = 1;
place = "{-149, 21}";
target = up;
type = BottomGhost;
}
);
layerId = UUID0;
paths = (
{
closed = 1;
nodes = (
"251 746 LINE",
"251 -149 LINE",
"88 -149 LINE",
"88 -135 LINE",
"235 -135 LINE",
"235 732 LINE",
"88 732 LINE",
"88 746 LINE"
);
}
);
width = 342;
},
{
hints = (
{
horizontal = 1;
place = "{746, -20}";
target = down;
type = TopGhost;
},
{
horizontal = 1;
place = "{-149, 21}";
target = up;
type = BottomGhost;
}
);
layerId = UUID1;
paths = (
{
closed = 1;
nodes = (
"256 761 LINE",
"256 -152 LINE",
"43 -152 LINE",
"43 -31 LINE",
"132 -31 LINE",
"132 639 LINE",
"43 639 LINE",
"43 761 LINE"
);
}
);
width = 349;
}
);
unicode = 005D;
},
{
glyphname = parenleft;
lastChange = "2016-08-26 16:01:03 +0000";
layers = (
{
hints = (
{
horizontal = 1;
place = "{-163, 21}";
target = up;
type = BottomGhost;
},
{
horizontal = 1;
place = "{747, -20}";
target = down;
type = TopGhost;
}
);
layerId = UUID0;
paths = (
{
closed = 1;
nodes = (
"147 292 LINE SMOOTH",
"147 492 OFFCURVE",
"228 658 OFFCURVE",
"312 747 CURVE",
"313 739 OFFCURVE",
"314 732 OFFCURVE",
"315 724 CURVE",
"238 636 OFFCURVE",
"161 482 OFFCURVE",
"161 292 CURVE SMOOTH",
"161 102 OFFCURVE",
"238 -52 OFFCURVE",
"315 -140 CURVE",
"314 -148 OFFCURVE",
"313 -155 OFFCURVE",
"312 -163 CURVE",
"228 -74 OFFCURVE",
"147 92 OFFCURVE",
"147 292 CURVE SMOOTH"
);
}
);
width = 394;
},
{
hints = (
{
horizontal = 1;
place = "{-164, 21}";
target = up;
type = BottomGhost;
},
{
horizontal = 1;
place = "{746, -20}";
target = down;
type = TopGhost;
}
);
layerId = UUID1;
paths = (
{
closed = 1;
nodes = (
"99 296 LINE SMOOTH",
"99 500 OFFCURVE",
"182 670 OFFCURVE",
"267 760 CURVE",
"305 752 OFFCURVE",
"345 745 OFFCURVE",
"382 737 CURVE",
"304 647 OFFCURVE",
"225 490 OFFCURVE",
"225 296 CURVE SMOOTH",
"225 102 OFFCURVE",
"304 -55 OFFCURVE",
"382 -144 CURVE",
"345 -153 OFFCURVE",
"305 -160 OFFCURVE",
"267 -168 CURVE",
"182 -77 OFFCURVE",
"99 92 OFFCURVE",
"99 296 CURVE SMOOTH"
);
}
);
width = 450;
}
);
unicode = 0028;
},
{
glyphname = parenright;
lastChange = "2016-08-26 16:01:03 +0000";
layers = (
{
hints = (
{
horizontal = 1;
place = "{747, -20}";
target = down;
type = TopGhost;
},
{
horizontal = 1;
place = "{-163, 21}";
target = up;
type = BottomGhost;
}
);
layerId = UUID0;
paths = (
{
closed = 1;
nodes = (
"279 292 LINE SMOOTH",
"279 92 OFFCURVE",
"198 -74 OFFCURVE",
"114 -163 CURVE",
"113 -155 OFFCURVE",
"112 -148 OFFCURVE",
"111 -140 CURVE",
"188 -52 OFFCURVE",
"265 102 OFFCURVE",
"265 292 CURVE SMOOTH",
"265 482 OFFCURVE",
"188 636 OFFCURVE",
"111 724 CURVE",
"112 732 OFFCURVE",
"113 739 OFFCURVE",
"114 747 CURVE",
"198 658 OFFCURVE",
"279 492 OFFCURVE",
"279 292 CURVE SMOOTH"
);
}
);
width = 400;
},
{
hints = (
{
horizontal = 1;
place = "{743, -20}";
target = down;
type = TopGhost;
},
{
horizontal = 1;
place = "{-167, 21}";
target = up;
type = BottomGhost;
}
);
layerId = UUID1;
paths = (
{
closed = 1;
nodes = (
"337 291 LINE SMOOTH",
"337 87 OFFCURVE",
"255 -82 OFFCURVE",
"169 -173 CURVE",
"131 -166 OFFCURVE",
"92 -159 OFFCURVE",
"54 -152 CURVE",
"133 -63 OFFCURVE",
"211 94 OFFCURVE",
"211 288 CURVE SMOOTH",
"211 482 OFFCURVE",
"133 639 OFFCURVE",
"54 729 CURVE",
"92 737 OFFCURVE",
"131 747 OFFCURVE",
"169 756 CURVE",
"255 665 OFFCURVE",
"337 495 OFFCURVE",
"337 291 CURVE SMOOTH"
);
}
);
width = 408;
}
);
unicode = 0029;
},
{
glyphname = emdash;
lastChange = "2016-08-26 16:01:03 +0000";
layers = (
{
hints = (
{
horizontal = 1;
place = "{179, 21}";
target = up;
type = BottomGhost;
},
{
horizontal = 1;
place = "{193, -20}";
target = down;
type = TopGhost;
}
);
layerId = UUID0;
paths = (
{
closed = 1;
nodes = (
"99 179 LINE",
"99 193 LINE",
"601 193 LINE",
"601 179 LINE"
);
}
);
width = 700;
},
{
hints = (
{
horizontal = 1;
place = "{174, 21}";
target = up;
type = BottomGhost;
},
{
horizontal = 1;
place = "{255, -20}";
target = down;
type = TopGhost;
}
);
layerId = UUID1;
paths = (
{
closed = 1;
nodes = (
"101 165 LINE",
"101 286 LINE",
"613 286 LINE",
"613 165 LINE"
);
}
);
width = 714;
}
);
unicode = 2014;
},
{
glyphname = endash;
lastChange = "2016-08-26 16:01:03 +0000";
layers = (
{
hints = (
{
horizontal = 1;
place = "{179, 21}";
target = up;
type = BottomGhost;
},
{
horizontal = 1;
place = "{193, -20}";
target = down;
type = TopGhost;
}
);
layerId = UUID0;
paths = (
{
closed = 1;
nodes = (
"100 179 LINE",
"100 193 LINE",
"401 193 LINE",
"401 179 LINE"
);
}
);
width = 509;
},
{
hints = (
{
horizontal = 1;
place = "{174, 21}";
target = up;
type = BottomGhost;
},
{
horizontal = 1;
place = "{255, -20}";
target = down;
type = TopGhost;
}
);
layerId = UUID1;
paths = (
{
closed = 1;
nodes = (
"102 165 LINE",
"102 286 LINE",
"409 286 LINE",
"409 165 LINE"
);
}
);
width = 519;
}
);
unicode = 2013;
},
{
glyphname = hyphen;
lastChange = "2016-08-26 16:01:03 +0000";
layers = (
{
hints = (
{
horizontal = 1;
place = "{184, 21}";
target = up;
type = BottomGhost;
},
{
horizontal = 1;
place = "{198, -20}";
target = down;
type = TopGhost;
}
);
layerId = UUID0;
paths = (
{
closed = 1;
nodes = (
"53 184 LINE",
"53 198 LINE",
"237 198 LINE",
"237 184 LINE"
);
}
);
width = 300;
},
{
hints = (
{
horizontal = 1;
place = "{147, 21}";
target = up;
type = BottomGhost;
},
{
horizontal = 1;
place = "{228, -20}";
target = down;
type = TopGhost;
}
);
layerId = UUID1;
paths = (
{
closed = 1;
nodes = (
"54 168 LINE",
"54 290 LINE",
"242 290 LINE",
"242 168 LINE"
);
}
);
width = 306;
}
);
unicode = 002D;
},
{
glyphname = guillemotleft;
lastChange = "2016-08-26 16:01:03 +0000";
layers = (
{
hints = (
{
horizontal = 1;
place = "{400, -20}";
target = down;
type = TopGhost;
},
{
horizontal = 1;
place = "{77, 21}";
target = up;
type = BottomGhost;
}
);
layerId = UUID0;
paths = (
{
closed = 1;
nodes = (
"459 77 LINE",
"288 239 LINE",
"345 293 OFFCURVE",
"402 346 OFFCURVE",
"459 400 CURVE",
"459 383 LINE",
"412 335 OFFCURVE",
"364 287 OFFCURVE",
"317 239 CURVE",
"364 190 OFFCURVE",
"412 142 OFFCURVE",
"459 93 CURVE"
);
},
{
closed = 1;
nodes = (
"288 77 LINE",
"117 239 LINE",
"174 293 OFFCURVE",
"231 346 OFFCURVE",
"288 400 CURVE",
"288 383 LINE",
"241 335 OFFCURVE",
"193 287 OFFCURVE",
"146 239 CURVE",
"193 190 OFFCURVE",
"241 142 OFFCURVE",
"288 93 CURVE"
);
}
);
width = 601;
},
{
hints = (
{
horizontal = 1;
place = "{400, -20}";
target = down;
type = TopGhost;
},
{
horizontal = 1;
place = "{77, 21}";
target = up;
type = BottomGhost;
}
);
layerId = UUID1;
paths = (
{
closed = 1;
nodes = (
"468 39 LINE",
"293 244 LINE",
"293 244 OFFCURVE",
"468 448 OFFCURVE",
"468 448 CURVE",
"468 307 LINE",
"468 307 OFFCURVE",
"426 244 OFFCURVE",
"426 244 CURVE",
"426 244 OFFCURVE",
"468 181 OFFCURVE",
"468 181 CURVE"
);
},
{
closed = 1;
nodes = (
"293 39 LINE",
"119 244 LINE",
"119 244 OFFCURVE",
"293 448 OFFCURVE",
"293 448 CURVE",
"293 306 LINE",
"293 306 OFFCURVE",
"252 244 OFFCURVE",
"252 244 CURVE",
"252 244 OFFCURVE",
"293 181 OFFCURVE",
"293 181 CURVE"
);
}
);
width = 613;
}
);
unicode = 00AB;
},
{
glyphname = guilsinglleft;
lastChange = "2016-08-26 16:01:03 +0000";
layers = (
{
hints = (
{
horizontal = 1;
place = "{400, -20}";
target = down;
type = TopGhost;
},
{
horizontal = 1;
place = "{77, 21}";
target = up;
type = BottomGhost;
}
);
layerId = UUID0;
paths = (
{
closed = 1;
nodes = (
"288 77 LINE",
"117 239 LINE",
"174 293 OFFCURVE",
"231 346 OFFCURVE",
"288 400 CURVE",
"288 383 LINE",
"241 335 OFFCURVE",
"193 287 OFFCURVE",
"146 239 CURVE",
"193 190 OFFCURVE",
"241 142 OFFCURVE",
"288 93 CURVE"
);
}
);
width = 392;
},
{
hints = (
{
horizontal = 1;
place = "{400, -20}";
target = down;
type = TopGhost;
},
{
horizontal = 1;
place = "{77, 21}";
target = up;
type = BottomGhost;
}
);
layerId = UUID1;
paths = (
{
closed = 1;
nodes = (
"293 39 LINE",
"119 244 LINE",
"119 244 OFFCURVE",
"293 448 OFFCURVE",
"293 448 CURVE",
"293 306 LINE",
"293 306 OFFCURVE",
"252 244 OFFCURVE",
"252 244 CURVE",
"252 244 OFFCURVE",
"293 181 OFFCURVE",
"293 181 CURVE"
);
}
);
width = 399;
}
);
unicode = 2039;
},
{
glyphname = quotedblbase;
lastChange = "2016-08-26 16:01:03 +0000";
layers = (
{
hints = (
{
horizontal = 1;
place = "{-47, 21}";
target = up;
type = BottomGhost;
},
{
horizontal = 1;
place = "{92, -20}";
target = down;
type = TopGhost;
}
);
layerId = UUID0;
paths = (
{
closed = 1;
nodes = (
"26 -47 LINE",
"24 -41 OFFCURVE",
"22 -35 OFFCURVE",
"20 -29 CURVE",
"48 -2 OFFCURVE",
"62 39 OFFCURVE",
"53 85 CURVE",
"59 87 OFFCURVE",
"66 90 OFFCURVE",
"72 92 CURVE",
"83 39 OFFCURVE",
"65 -12 OFFCURVE",
"26 -47 CURVE"
);
},
{
closed = 1;
nodes = (
"130 -47 LINE",
"128 -41 OFFCURVE",
"126 -35 OFFCURVE",
"124 -29 CURVE",
"152 -2 OFFCURVE",
"166 39 OFFCURVE",
"157 85 CURVE",
"163 87 OFFCURVE",
"170 90 OFFCURVE",
"176 92 CURVE",
"187 39 OFFCURVE",
"169 -12 OFFCURVE",
"130 -47 CURVE"
);
}
);
width = 234;
},
{
hints = (
{
horizontal = 1;
place = "{-53, 21}";
target = up;
type = BottomGhost;
},
{
horizontal = 1;
place = "{92, -20}";
target = down;
type = TopGhost;
}
);
layerId = UUID1;
paths = (
{
closed = 1;
nodes = (
"81 -58 LINE",
"60 -48 OFFCURVE",
"40 -39 OFFCURVE",
"19 -30 CURVE",
"48 -2 OFFCURVE",
"62 40 OFFCURVE",
"53 87 CURVE",
"76 89 OFFCURVE",
"101 92 OFFCURVE",
"125 94 CURVE",
"136 37 OFFCURVE",
"118 -19 OFFCURVE",
"81 -58 CURVE"
);
},
{
closed = 1;
nodes = (
"187 -58 LINE",
"166 -48 OFFCURVE",
"146 -39 OFFCURVE",
"125 -30 CURVE",
"154 -2 OFFCURVE",
"168 40 OFFCURVE",
"159 87 CURVE",
"182 89 OFFCURVE",
"207 92 OFFCURVE",
"231 94 CURVE",
"242 37 OFFCURVE",
"224 -19 OFFCURVE",
"187 -58 CURVE"
);
}
);
width = 410;
}
);
unicode = 201E;
},
{
glyphname = quotedblleft;
lastChange = "2016-08-26 16:01:03 +0000";
layers = (
{
hints = (
{
horizontal = 1;
place = "{711, -20}";
target = down;
type = TopGhost;
},
{
horizontal = 1;
place = "{572, 21}";
target = up;
type = BottomGhost;
}
);
layerId = UUID0;
paths = (
{
closed = 1;
nodes = (
"187 590 LINE",
"185 584 OFFCURVE",
"183 578 OFFCURVE",
"181 572 CURVE",
"142 607 OFFCURVE",
"124 658 OFFCURVE",
"135 711 CURVE",
"141 709 OFFCURVE",
"148 706 OFFCURVE",
"154 704 CURVE",
"145 658 OFFCURVE",
"159 617 OFFCURVE",
"187 590 CURVE"
);
},
{
closed = 1;
nodes = (
"83 590 LINE",
"81 584 OFFCURVE",
"79 578 OFFCURVE",
"77 572 CURVE",
"38 607 OFFCURVE",
"20 658 OFFCURVE",
"31 711 CURVE",
"37 709 OFFCURVE",
"44 706 OFFCURVE",
"50 704 CURVE",
"41 658 OFFCURVE",
"55 617 OFFCURVE",
"83 590 CURVE"
);
}
);
width = 249;
},
{
hints = (
{
horizontal = 1;
place = "{711, -20}";
target = down;
type = TopGhost;
},
{
horizontal = 1;
place = "{566, 21}";
target = up;
type = BottomGhost;
}
);
layerId = UUID1;
paths = (
{
closed = 1;
nodes = (
"243 602 LINE",
"222 592 OFFCURVE",
"202 583 OFFCURVE",
"181 574 CURVE",
"144 613 OFFCURVE",
"126 668 OFFCURVE",
"137 725 CURVE",
"161 723 OFFCURVE",
"186 720 OFFCURVE",
"209 718 CURVE",
"200 671 OFFCURVE",
"215 629 OFFCURVE",
"243 602 CURVE"
);
},
{
closed = 1;
nodes = (
"137 602 LINE",
"116 592 OFFCURVE",
"96 583 OFFCURVE",
"75 574 CURVE",
"38 613 OFFCURVE",
"20 668 OFFCURVE",
"31 725 CURVE",
"55 723 OFFCURVE",
"80 720 OFFCURVE",
"103 718 CURVE",
"94 671 OFFCURVE",
"109 629 OFFCURVE",
"137 602 CURVE"
);
}
);
width = 253;
}
);
unicode = 201C;
},
{
glyphname = quotedblright;
lastChange = "2016-08-26 16:01:03 +0000";
layers = (
{
hints = (
{
horizontal = 1;
place = "{572, 21}";
target = up;
type = BottomGhost;
},
{
horizontal = 1;
place = "{711, -20}";
target = down;
type = TopGhost;
}
);
layerId = UUID0;
paths = (
{
closed = 1;
nodes = (
"50 572 LINE",
"48 578 OFFCURVE",
"46 584 OFFCURVE",
"44 590 CURVE",
"72 617 OFFCURVE",
"86 658 OFFCURVE",
"77 704 CURVE",
"83 706 OFFCURVE",
"90 709 OFFCURVE",
"96 711 CURVE",
"107 658 OFFCURVE",
"89 607 OFFCURVE",
"50 572 CURVE"
);
},
{
closed = 1;
nodes = (
"154 572 LINE",
"152 578 OFFCURVE",
"150 584 OFFCURVE",
"148 590 CURVE",
"176 617 OFFCURVE",
"190 658 OFFCURVE",
"181 704 CURVE",
"187 706 OFFCURVE",
"194 709 OFFCURVE",
"200 711 CURVE",
"211 658 OFFCURVE",
"193 607 OFFCURVE",
"154 572 CURVE"
);
}
);
width = 248;
},
{
hints = (
{
horizontal = 1;
place = "{566, 21}";
target = up;
type = BottomGhost;
},
{
horizontal = 1;
place = "{711, -20}";
target = down;
type = TopGhost;
}
);
layerId = UUID1;
paths = (
{
closed = 1;
nodes = (
"54 574 LINE",
"33 583 OFFCURVE",
"13 592 OFFCURVE",
"-8 602 CURVE",
"21 629 OFFCURVE",
"35 671 OFFCURVE",
"26 718 CURVE",
"49 720 OFFCURVE",
"74 723 OFFCURVE",
"98 725 CURVE",
"109 668 OFFCURVE",
"91 613 OFFCURVE",
"54 574 CURVE"
);
},
{
closed = 1;
nodes = (
"160 574 LINE",
"139 583 OFFCURVE",
"119 592 OFFCURVE",
"98 602 CURVE",
"127 629 OFFCURVE",
"141 671 OFFCURVE",
"132 718 CURVE",
"155 720 OFFCURVE",
"180 723 OFFCURVE",
"204 725 CURVE",
"215 668 OFFCURVE",
"197 613 OFFCURVE",
"160 574 CURVE"
);
}
);
width = 253;
}
);
unicode = 201D;
},
{
glyphname = quoteleft;
lastChange = "2016-08-26 16:01:03 +0000";
layers = (
{
hints = (
{
horizontal = 1;
place = "{711, -20}";
target = down;
type = TopGhost;
},
{
horizontal = 1;
place = "{572, 21}";
target = up;
type = BottomGhost;
}
);
layerId = UUID0;
paths = (
{
closed = 1;
nodes = (
"92 590 LINE",
"90 584 OFFCURVE",
"88 578 OFFCURVE",
"86 572 CURVE",
"47 607 OFFCURVE",
"29 658 OFFCURVE",
"40 711 CURVE",
"46 709 OFFCURVE",
"53 706 OFFCURVE",
"59 704 CURVE",
"50 658 OFFCURVE",
"64 617 OFFCURVE",
"92 590 CURVE"
);
}
);
width = 164;
},
{
hints = (
{
horizontal = 1;
place = "{711, -20}";
target = down;
type = TopGhost;
},
{
horizontal = 1;
place = "{566, 21}";
target = up;
type = BottomGhost;
}
);
layerId = UUID1;
paths = (
{
closed = 1;
nodes = (
"132 602 LINE",
"111 592 OFFCURVE",
"91 583 OFFCURVE",
"70 574 CURVE",
"33 613 OFFCURVE",
"15 668 OFFCURVE",
"26 725 CURVE",
"50 723 OFFCURVE",
"75 720 OFFCURVE",
"98 718 CURVE",
"89 671 OFFCURVE",
"104 629 OFFCURVE",
"132 602 CURVE"
);
}
);
width = 167;
}
);
unicode = 2018;
},
{
glyphname = quoteright;
lastChange = "2016-08-26 16:01:03 +0000";
layers = (
{
hints = (
{
horizontal = 1;
place = "{572, 21}";
target = up;
type = BottomGhost;
},
{
horizontal = 1;
place = "{711, -20}";
target = down;
type = TopGhost;
}
);
layerId = UUID0;
paths = (
{
closed = 1;
nodes = (
"65 572 LINE",
"63 578 OFFCURVE",
"61 584 OFFCURVE",
"59 590 CURVE",
"87 617 OFFCURVE",
"101 658 OFFCURVE",
"92 704 CURVE",
"98 706 OFFCURVE",
"105 709 OFFCURVE",
"111 711 CURVE",
"122 658 OFFCURVE",
"104 607 OFFCURVE",
"65 572 CURVE"
);
}
);
width = 164;
},
{
hints = (
{
horizontal = 1;
place = "{566, 21}";
target = up;
type = BottomGhost;
},
{
horizontal = 1;
place = "{711, -20}";
target = down;
type = TopGhost;
}
);
layerId = UUID1;
paths = (
{
closed = 1;
nodes = (
"84 574 LINE",
"63 583 OFFCURVE",
"43 592 OFFCURVE",
"22 602 CURVE",
"51 629 OFFCURVE",
"65 671 OFFCURVE",
"56 718 CURVE",
"79 720 OFFCURVE",
"104 723 OFFCURVE",
"128 725 CURVE",
"139 668 OFFCURVE",
"121 613 OFFCURVE",
"84 574 CURVE"
);
}
);
width = 167;
}
);
unicode = 2019;
},
{
glyphname = quotesinglbase;
lastChange = "2016-08-26 16:01:03 +0000";
layers = (
{
hints = (
{
horizontal = 1;
place = "{-47, 21}";
target = up;
type = BottomGhost;
},
{
horizontal = 1;
place = "{92, -20}";
target = down;
type = TopGhost;
}
);
layerId = UUID0;
paths = (
{
closed = 1;
nodes = (
"26 -47 LINE",
"24 -41 OFFCURVE",
"22 -35 OFFCURVE",
"20 -29 CURVE",
"48 -2 OFFCURVE",
"62 39 OFFCURVE",
"53 85 CURVE",
"59 87 OFFCURVE",
"66 90 OFFCURVE",
"72 92 CURVE",
"83 39 OFFCURVE",
"65 -12 OFFCURVE",
"26 -47 CURVE"
);
}
);
width = 146;
},
{
hints = (
{
horizontal = 1;
place = "{-53, 21}";
target = up;
type = BottomGhost;
},
{
horizontal = 1;
place = "{92, -20}";
target = down;
type = TopGhost;
}
);
layerId = UUID1;
paths = (
{
closed = 1;
nodes = (
"81 -58 LINE",
"60 -48 OFFCURVE",
"40 -39 OFFCURVE",
"19 -30 CURVE",
"48 -2 OFFCURVE",
"62 40 OFFCURVE",
"53 87 CURVE",
"76 89 OFFCURVE",
"101 92 OFFCURVE",
"125 94 CURVE",
"136 37 OFFCURVE",
"118 -19 OFFCURVE",
"81 -58 CURVE"
);
}
);
width = 149;
}
);
unicode = 201A;
},
{
glyphname = Euro;
lastChange = "2016-08-26 16:01:03 +0000";
layers = (
{
hints = (
{
horizontal = 1;
place = "{150, 208}";
}
);
layerId = UUID0;
paths = (
{
closed = 1;
nodes = (
"44 379 LINE",
"371 379 LINE",
"371 393 LINE",
"44 393 LINE"
);
},
{
closed = 1;
nodes = (
"45 273 LINE",
"371 273 LINE",
"371 287 LINE",
"45 287 LINE"
);
},
{
closed = 1;
nodes = (
"479 35 LINE",
"446 17 OFFCURVE",
"409 7 OFFCURVE",
"373 7 CURVE SMOOTH",
"244 8 OFFCURVE",
"120 134 OFFCURVE",
"121 328 CURVE SMOOTH",
"122 523 OFFCURVE",
"234 645 OFFCURVE",
"377 644 CURVE SMOOTH",
"411 644 OFFCURVE",
"442 637 OFFCURVE",
"471 624 CURVE",
"477 634 LINE",
"470 639 OFFCURVE",
"431 658 OFFCURVE",
"378 658 CURVE SMOOTH",
"177 658 OFFCURVE",
"107 454 OFFCURVE",
"106 327 CURVE SMOOTH",
"105 141 OFFCURVE",
"225 -6 OFFCURVE",
"371 -7 CURVE SMOOTH",
"414 -7 OFFCURVE",
"455 5 OFFCURVE",
"491 27 CURVE"
);
}
);
width = 616;
},
{
hints = (
{
horizontal = 1;
place = "{112, 275}";
}
);
layerId = UUID1;
paths = (
{
closed = 1;
nodes = (
"32 348 LINE",
"421 348 LINE",
"421 411 LINE",
"32 411 LINE"
);
},
{
closed = 1;
nodes = (
"33 240 LINE",
"421 240 LINE",
"421 303 LINE",
"33 303 LINE"
);
},
{
closed = 1;
nodes = (
"436 136 LINE",
"416 121 OFFCURVE",
"393 113 OFFCURVE",
"370 113 CURVE SMOOTH",
"314 113 OFFCURVE",
"224 163 OFFCURVE",
"224 359 CURVE SMOOTH",
"224 453 OFFCURVE",
"245 550 OFFCURVE",
"369 550 CURVE SMOOTH",
"404 550 OFFCURVE",
"425 542 OFFCURVE",
"446 527 CURVE",
"502 638 LINE",
"463 660 OFFCURVE",
"419 671 OFFCURVE",
"372 671 CURVE SMOOTH",
"239 672 OFFCURVE",
"98 584 OFFCURVE",
"98 335 CURVE SMOOTH",
"98 103 OFFCURVE",
"219 -8 OFFCURVE",
"371 -9 CURVE SMOOTH",
"416 -9 OFFCURVE",
"458 0 OFFCURVE",
"495 20 CURVE"
);
}
);
width = 652;
}
);
unicode = 20AC;
},
{
glyphname = cent;
lastChange = "2016-08-26 16:01:03 +0000";
layers = (
{
hints = (
{
place = "{36, 193}";
},
{
horizontal = 1;
place = "{438, -20}";
target = down;
type = TopGhost;
},
{
horizontal = 1;
place = "{-68, 21}";
target = up;
type = BottomGhost;
}
);
layerId = UUID0;
paths = (
{
closed = 1;
nodes = (
"215 -68 LINE",
"215 438 LINE",
"229 438 LINE",
"229 -68 LINE"
);
},
{
closed = 1;
nodes = (
"343 47 LINE",
"346 44 OFFCURVE",
"350 40 OFFCURVE",
"353 37 CURVE",
"319 10 OFFCURVE",
"277 -6 OFFCURVE",
"230 -6 CURVE SMOOTH",
"122 -6 OFFCURVE",
"36 80 OFFCURVE",
"36 188 CURVE SMOOTH",
"36 296 OFFCURVE",
"122 383 OFFCURVE",
"230 383 CURVE SMOOTH",
"277 383 OFFCURVE",
"320 367 OFFCURVE",
"353 340 CURVE",
"350 336 OFFCURVE",
"346 333 OFFCURVE",
"343 329 CURVE",
"312 354 OFFCURVE",
"273 369 OFFCURVE",
"230 369 CURVE SMOOTH",
"130 369 OFFCURVE",
"50 288 OFFCURVE",
"50 188 CURVE SMOOTH",
"50 88 OFFCURVE",
"130 8 OFFCURVE",
"230 8 CURVE SMOOTH",
"273 8 OFFCURVE",
"312 23 OFFCURVE",
"343 47 CURVE"
);
}
);
width = 379;
},
{
hints = (
{
place = "{36, 227}";
},
{
horizontal = 1;
place = "{438, -20}";
target = down;
type = TopGhost;
},
{
horizontal = 1;
place = "{-68, 21}";
target = up;
type = BottomGhost;
}
);
layerId = UUID1;
paths = (
{
closed = 1;
nodes = (
"209 -68 LINE",
"209 506 LINE",
"293 506 LINE",
"293 -68 LINE"
);
},
{
closed = 1;
nodes = (
"355 127 LINE",
"380 97 OFFCURVE",
"401 69 OFFCURVE",
"425 39 CURVE",
"386 8 OFFCURVE",
"335 -12 OFFCURVE",
"279 -12 CURVE SMOOTH",
"149 -12 OFFCURVE",
"44 93 OFFCURVE",
"44 219 CURVE SMOOTH",
"44 345 OFFCURVE",
"149 449 OFFCURVE",
"279 449 CURVE SMOOTH",
"337 449 OFFCURVE",
"388 429 OFFCURVE",
"429 398 CURVE",
"405 369 OFFCURVE",
"380 341 OFFCURVE",
"355 311 CURVE",
"336 326 OFFCURVE",
"309 335 OFFCURVE",
"279 335 CURVE SMOOTH",
"207 335 OFFCURVE",
"160 287 OFFCURVE",
"160 219 CURVE SMOOTH",
"160 154 OFFCURVE",
"207 102 OFFCURVE",
"279 102 CURVE SMOOTH",
"310 102 OFFCURVE",
"336 111 OFFCURVE",
"355 127 CURVE"
);
}
);
width = 385;
}
);
unicode = 00A2;
},
{
glyphname = currency;
lastChange = "2016-08-26 16:01:03 +0000";
layers = (
{
hints = (
{
horizontal = 1;
place = "{219, 21}";
target = up;
type = BottomGhost;
},
{
horizontal = 1;
place = "{496, -20}";
target = down;
type = TopGhost;
}
);
layerId = UUID0;
paths = (
{
closed = 1;
nodes = (
"129 361 LINE SMOOTH",
"129 295 OFFCURVE",
"182 242 OFFCURVE",
"247 242 CURVE SMOOTH",
"312 242 OFFCURVE",
"365 295 OFFCURVE",
"365 361 CURVE SMOOTH",
"365 427 OFFCURVE",
"312 480 OFFCURVE",
"247 480 CURVE SMOOTH",
"182 480 OFFCURVE",
"129 427 OFFCURVE",
"129 361 CURVE SMOOTH"
);
},
{
closed = 1;
nodes = (
"115 361 LINE SMOOTH",
"115 394 OFFCURVE",
"127 424 OFFCURVE",
"147 448 CURVE",
"134 461 OFFCURVE",
"122 473 OFFCURVE",
"109 486 CURVE",
"119 496 LINE",
"157 458 LINE",
"180 480 OFFCURVE",
"212 494 OFFCURVE",
"247 494 CURVE SMOOTH",
"282 494 OFFCURVE",
"314 480 OFFCURVE",
"337 457 CURVE",
"337 457 LINE",
"375 495 LINE",
"385 485 LINE",
"347 447 LINE",
"367 424 OFFCURVE",
"379 394 OFFCURVE",
"379 361 CURVE SMOOTH",
"379 326 OFFCURVE",
"365 295 OFFCURVE",
"344 271 CURVE",
"385 230 LINE",
"375 220 LINE",
"361 234 OFFCURVE",
"348 247 OFFCURVE",
"334 261 CURVE",
"311 240 OFFCURVE",
"280 228 OFFCURVE",
"247 228 CURVE SMOOTH",
"214 228 OFFCURVE",
"183 240 OFFCURVE",
"160 260 CURVE",
"160 260 LINE",
"119 219 LINE",
"109 229 LINE",
"150 270 LINE",
"128 294 OFFCURVE",
"115 326 OFFCURVE",
"115 361 CURVE SMOOTH"
);
}
);
width = 500;
},
{
hints = (
{
horizontal = 1;
place = "{196, 21}";
target = up;
type = BottomGhost;
},
{
horizontal = 1;
place = "{522, -20}";
target = down;
type = TopGhost;
}
);
layerId = UUID1;
paths = (
{
closed = 1;
nodes = (
"171 360 LINE SMOOTH",
"171 318 OFFCURVE",
"206 283 OFFCURVE",
"248 283 CURVE SMOOTH",
"291 283 OFFCURVE",
"326 318 OFFCURVE",
"326 360 CURVE SMOOTH",
"326 403 OFFCURVE",
"291 438 OFFCURVE",
"248 438 CURVE SMOOTH",
"206 438 OFFCURVE",
"171 403 OFFCURVE",
"171 360 CURVE SMOOTH"
);
},
{
closed = 1;
nodes = (
"87 361 LINE SMOOTH",
"87 390 OFFCURVE",
"95 416 OFFCURVE",
"108 439 CURVE",
"100 447 OFFCURVE",
"93 455 OFFCURVE",
"85 463 CURVE",
"144 522 LINE",
"168 498 LINE",
"193 510 OFFCURVE",
"218 519 OFFCURVE",
"247 519 CURVE SMOOTH",
"276 519 OFFCURVE",
"303 511 OFFCURVE",
"327 498 CURVE",
"327 498 LINE",
"351 522 LINE",
"410 463 LINE",
"388 441 LINE",
"402 417 OFFCURVE",
"410 389 OFFCURVE",
"410 361 CURVE SMOOTH",
"410 331 OFFCURVE",
"402 304 OFFCURVE",
"387 280 CURVE",
"411 256 LINE",
"352 197 LINE",
"343 205 OFFCURVE",
"335 214 OFFCURVE",
"326 222 CURVE",
"303 209 OFFCURVE",
"276 202 OFFCURVE",
"247 202 CURVE SMOOTH",
"218 202 OFFCURVE",
"192 209 OFFCURVE",
"169 221 CURVE",
"169 221 LINE",
"144 196 LINE",
"85 255 LINE",
"109 279 LINE",
"95 303 OFFCURVE",
"87 331 OFFCURVE",
"87 361 CURVE SMOOTH"
);
}
);
width = 500;
}
);
unicode = 00A4;
},
{
glyphname = dollar;
lastChange = "2016-08-26 16:01:03 +0000";
layers = (
{
hints = (
{
place = "{100, 178}";
},
{
place = "{264, 220}";
},
{
horizontal = 1;
place = "{764, -20}";
target = down;
type = TopGhost;
},
{
horizontal = 1;
place = "{-68, 21}";
target = up;
type = BottomGhost;
},
{
horizontal = 1;
place = "{704, -20}";
target = down;
type = TopGhost;
},
{
horizontal = 1;
place = "{-8, 21}";
target = up;
type = BottomGhost;
}
);
layerId = UUID0;
paths = (
{
closed = 1;
nodes = (
"278 764 LINE",
"278 -68 LINE",
"264 -68 LINE",
"264 764 LINE"
);
},
{
closed = 1;
nodes = (
"453 667 LINE",
"447 656 LINE",
"411 672 OFFCURVE",
"345 691 OFFCURVE",
"287 691 CURVE SMOOTH",
"177 691 OFFCURVE",
"109 624 OFFCURVE",
"109 546 CURVE SMOOTH",
"109 360 OFFCURVE",
"489 437 OFFCURVE",
"489 188 CURVE SMOOTH",
"489 66 OFFCURVE",
"397 -8 OFFCURVE",
"272 -8 CURVE SMOOTH",
"163 -8 OFFCURVE",
"87 49 OFFCURVE",
"64 63 CURVE",
"72 76 LINE",
"112 47 OFFCURVE",
"193 6 OFFCURVE",
"275 6 CURVE SMOOTH",
"374 6 OFFCURVE",
"475 65 OFFCURVE",
"475 187 CURVE SMOOTH",
"475 425 OFFCURVE",
"95 345 OFFCURVE",
"95 543 CURVE SMOOTH",
"95 635 OFFCURVE",
"177 704 OFFCURVE",
"281 704 CURVE SMOOTH",
"329 704 OFFCURVE",
"405 689 OFFCURVE",
"453 667 CURVE"
);
}
);
width = 567;
},
{
hints = (
{
place = "{74, 242}";
},
{
place = "{232, 252}";
},
{
horizontal = 1;
place = "{764, -20}";
target = down;
type = TopGhost;
},
{
horizontal = 1;
place = "{-68, 21}";
target = up;
type = BottomGhost;
},
{
horizontal = 1;
place = "{704, -20}";
target = down;
type = TopGhost;
},
{
horizontal = 1;
place = "{-8, 21}";
target = up;
type = BottomGhost;
}
);
layerId = UUID1;
paths = (
{
closed = 1;
nodes = (
"356 804 LINE",
"356 -68 LINE",
"272 -68 LINE",
"272 804 LINE"
);
},
{
closed = 1;
nodes = (
"550 693 LINE",
"497 571 LINE",
"436 592 OFFCURVE",
"383 603 OFFCURVE",
"338 603 CURVE SMOOTH",
"265 603 OFFCURVE",
"218 575 OFFCURVE",
"218 534 CURVE SMOOTH",
"218 421 OFFCURVE",
"572 452 OFFCURVE",
"572 214 CURVE SMOOTH",
"572 77 OFFCURVE",
"456 -8 OFFCURVE",
"267 -8 CURVE SMOOTH",
"150 -8 OFFCURVE",
"74 24 OFFCURVE",
"31 50 CURVE",
"96 181 LINE",
"155 150 OFFCURVE",
"223 138 OFFCURVE",
"264 138 CURVE SMOOTH",
"299 138 OFFCURVE",
"424 147 OFFCURVE",
"424 216 CURVE SMOOTH",
"424 332 OFFCURVE",
"70 307 OFFCURVE",
"70 524 CURVE SMOOTH",
"70 627 OFFCURVE",
"149 740 OFFCURVE",
"329 740 CURVE SMOOTH",
"445 740 OFFCURVE",
"550 693 OFFCURVE",
"550 693 CURVE"
);
}
);
width = 567;
}
);
unicode = 0024;
},
